<?xml version="1.0" standalone="no"?>
<!DOCTYPE svg PUBLIC "-//W3C//DTD SVG 1.1//EN" "http://www.w3.org/Graphics/SVG/1.1/DTD/svg11.dtd" >
<svg>
<metadata>
Created by FontForge 20090914 at Fri Sep 18 15:34:23 2015
 By www-data
Copyright (c) 2007-2010 Typodermic Fonts. This font is not freely distributable. Visit typodermic.com for more info.
</metadata>
<defs>
<font id="GnuolaneRg-Regular" horiz-adv-x="470" >
  <font-face 
    font-family="Gnuolane Rg"
    font-weight="400"
    font-stretch="normal"
    units-per-em="1000"
    panose-1="2 11 5 6 4 0 0 2 0 4"
    ascent="800"
    descent="-200"
    x-height="543"
    cap-height="745"
    bbox="-119 -226 746.001 974"
    underline-thickness="50"
    underline-position="-50"
    unicode-range="U+000D-U+FB04"
  />
<missing-glyph horiz-adv-x="584" 
d="M365 604c-8.66699 -32.667 -23.168 -60 -43.501 -82s-42.333 -43.5 -66 -64.5s-46.167 -44.167 -67.5 -69.5s-37.333 -57.666 -48 -96.999c-4.66699 -16.667 -7 -33.334 -7 -50.001v-14.5c0 -4.33301 0.666992 -8.83301 2 -13.5l112 -29c0 34 5.16699 62.167 15.5 84.5
s23.5 42 39.5 59s33.833 32.5 53.5 46.5s39.167 29.5 58.5 46.5s37.333 37 54 60s29.667 52.167 39 87.5c12 44 18 81.333 18 112c0 38 -10.667 68.167 -32 90.5s-58.333 40.833 -111 55.5c-31.333 8 -58.666 12 -81.999 12c-25.333 0 -46.833 -4.66699 -64.5 -14
s-33.167 -23 -46.5 -41s-25.5 -40.667 -36.5 -68s-22.167 -59 -33.5 -95l123 -51c15.333 49.333 29.333 86.5 42 111.5s28.667 37.5 48 37.5c16 0 27.667 -4.66699 35 -14s11 -20 11 -32c0 -8.66699 -1.16699 -18.5 -3.5 -29.5s-5.5 -23.833 -9.5 -38.5zM227.999 75l-135 37
l-39 -145l135 -35zM29.999 974h528v-1200h-528v1200z" />
    <glyph glyph-name="copyright" unicode="&#x28;C&#x29;" horiz-adv-x="776" 
d="M393 756c117.333 0 205.501 -31.667 264.501 -95s88.5 -160 88.5 -290s-30.833 -226.667 -92.5 -290s-148.5 -95 -260.5 -95c-116.667 0 -206.334 31.667 -269.001 95s-94 160 -94 290c0 128.667 31 225 93 289s152 96 270 96zM393.001 708
c-39.333 0 -77.1689 -6.1709 -113.502 -18.5039s-68.5 -31.833 -96.5 -58.5s-50.333 -61.5 -67 -104.5s-25 -94.833 -25 -155.5c0 -61.333 8.33301 -113.166 25 -155.499s39 -76.833 67 -103.5s60.167 -46 96.5 -58s74.166 -18 113.499 -18c38.667 0 75.667 6 111 18
s66.333 31.333 93 58s47.834 61.334 63.501 104.001s23.5 94.334 23.5 155.001s-7.83301 112.334 -23.5 155.001s-36.667 77.5 -63 104.5s-57.166 46.667 -92.499 59s-72.666 18.5 -111.999 18.5zM386.998 535.996c-17.333 0 -33.499 -3.1748 -48.499 -9.50781
s-28.167 -16.166 -39.5 -29.499s-20.333 -30.666 -27 -51.999s-10 -47 -10 -77s3.16699 -55.667 9.5 -77s15.166 -38.666 26.499 -51.999s24.5 -23 39.5 -29s31.5 -9 49.5 -9c14.667 0 28.667 1.66699 42 5s25.333 9 36 17s19.334 18.667 26.001 32s10.334 30 11.001 50
l55 -4c-6 -96.667 -62.667 -145 -170 -145c-122 0 -183 70.667 -183 212c0 70.667 16 123.834 48 159.501s77 53.5 135 53.5c54 0 95.333 -10.667 124 -32s44 -58.666 46 -111.999l-55 -7c-0.666992 22.667 -4.16699 40.834 -10.5 54.501s-14.833 24.334 -25.5 32.001
s-22.834 12.834 -36.501 15.501s-27.834 4 -42.501 4z" />
    <glyph glyph-name="registered" unicode="&#x28;R&#x29;" horiz-adv-x="503" 
d="M302 412l-42.999 100h-40v-100h-43v234h85c27.333 0 47 -5.33301 59 -16s18 -26.667 18 -48c0 -5.33301 -0.833008 -11 -2.5 -17s-4.33398 -12 -8.00098 -18s-8 -11.333 -13 -16s-10.833 -8 -17.5 -10l54 -109h-49zM267.001 548c11.333 0 19.332 3.16895 23.999 9.50195
s7 14.166 7 23.499c0 11.333 -3.16699 19.166 -9.5 23.499s-15.166 6.5 -26.499 6.5h-43v-63h48zM255 755.002c145.333 0 218 -76.001 218 -228.001c0 -79.333 -18.833 -137.333 -56.5 -174s-91.5 -55 -161.5 -55c-72.667 0 -128.334 19 -167.001 57s-58 95.333 -58 172
c0 74.667 19.333 131.334 58 170.001s94.334 58 167.001 58zM255 723.001c-25.333 0 -49.501 -3.5 -72.501 -10.5s-43.167 -18.333 -60.5 -34s-31.333 -36 -42 -61s-16 -55.167 -16 -90.5s5.33301 -65.5 16 -90.5s24.834 -45.5 42.501 -61.5s38 -27.667 61 -35
s46.833 -11 71.5 -11c24 0 47.167 3.66699 69.5 11s42 19 59 35s30.5 36.5 40.5 61.5s15 55.167 15 90.5c0 34.667 -5 64.5 -15 89.5s-23.333 45.333 -40 61s-36.167 27.167 -58.5 34.5s-45.833 11 -70.5 11z" />
    <glyph glyph-name="uni2117" unicode="&#x28;P&#x29;" horiz-adv-x="776" 
d="M393 756c117.333 0 205.501 -31.667 264.501 -95s88.5 -160 88.5 -290s-30.833 -226.667 -92.5 -290s-148.5 -95 -260.5 -95c-116.667 0 -206.334 31.667 -269.001 95s-94 160 -94 290c0 128.667 31 225 93 289s152 96 270 96zM393.001 708
c-39.333 0 -77.1689 -6.1709 -113.502 -18.5039s-68.5 -31.833 -96.5 -58.5s-50.333 -61.5 -67 -104.5s-25 -94.833 -25 -155.5c0 -61.333 8.33301 -113.166 25 -155.499s39 -76.833 67 -103.5s60.167 -46 96.5 -58s74.166 -18 113.499 -18c38.667 0 75.667 6 111 18
s66.333 31.333 93 58s47.834 61.334 63.501 104.001s23.5 94.334 23.5 155.001s-7.83301 112.334 -23.5 155.001s-36.667 77.5 -63 104.5s-57.166 46.667 -92.499 59s-72.666 18.5 -111.999 18.5zM375.998 586.996c34 0 61.833 -2.5 83.5 -7.5s38.834 -12.167 51.501 -21.5
s21.5 -21 26.5 -35s7.5 -30 7.5 -48c0 -43.333 -12.333 -77.166 -37 -101.499s-63 -36.5 -115 -36.5h-72v-173h-57v417c21.333 1.33301 41.166 2.66602 59.499 3.99902s35.833 2 52.5 2zM397.998 538.996c-11.333 0 -23.668 -0.5 -37.001 -1.5
s-26.666 -2.16699 -39.999 -3.5v-152h78c29.333 0 51.333 7.5 66 22.5s22 36.5 22 64.5c0 23.333 -6.66699 40.833 -20 52.5s-36.333 17.5 -69 17.5z" />
    <glyph glyph-name="ff" unicode="ff" horiz-adv-x="474" 
d="M462 476l-106 -0.00390625v-476h-93v476h-132v-476h-94v476h-43l8 67h35v76c0 36 2.33301 65.833 7 89.5s12 42.334 22 56.001s23 23.334 39 29.001s35.667 8.5 59 8.5c22.667 0 41 -3.16699 55 -9.5s24.667 -13.833 32 -22.5l-17 -67c-14 17.333 -31.333 26 -52 26
c-10 0 -18.167 -1.16699 -24.5 -3.5s-11.5 -7.66602 -15.5 -15.999s-6.83301 -20.333 -8.5 -36s-2.5 -36.834 -2.5 -63.501v-67h132v76c0 36 2.33301 65.833 7 89.5s12 42.334 22 56.001s23 23.334 39 29.001s35.667 8.5 59 8.5c22.667 0 41 -3.16699 55 -9.5
s24.667 -13.833 32 -22.5l-18 -67c-14 17.333 -31 26 -51 26c-10 0 -18.333 -1.16699 -25 -3.5s-12 -7.66602 -16 -15.999s-6.83301 -20.333 -8.5 -36s-2.5 -36.834 -2.5 -63.501v-67h114z" />
    <glyph glyph-name="fi" unicode="fi" horiz-adv-x="421" 
d="M381 0l-94 0.000976562v476h-156v-476h-94v476h-43l4 33.5l4 33.5h35v76c0 36 2.16699 65.833 6.5 89.5s11.333 42.334 21 56.001s22.167 23.334 37.5 29.001s33.666 8.5 54.999 8.5s39.5 -3.16699 54.5 -9.5s25.833 -13.833 32.5 -22.5l-1 -67
c-6 7.33301 -14.167 13.166 -24.5 17.499s-21.5 6.5 -33.5 6.5c-12.667 0 -22.667 -2.33301 -30 -7s-12.666 -11.834 -15.999 -21.501s-5.5 -21.834 -6.5 -36.501s-1.5 -32 -1.5 -52v-67h250v-543zM381 654.001h-94v130h94v-130z" />
    <glyph glyph-name="fl" unicode="fl" horiz-adv-x="421" 
d="M286 0l0.000976562 694.999c-9.33301 6 -19.166 10.833 -29.499 14.5s-20.333 6.5 -30 8.5s-18.334 3.5 -26.001 4.5s-12.834 1.5 -15.501 1.5c-11.333 0 -20.5 -1.5 -27.5 -4.5s-12.5 -8.83301 -16.5 -17.5s-6.66699 -20.334 -8 -35.001s-2 -33.667 -2 -57v-67h98
l-8 -67h-90v-476h-94v476h-43l8 67h35v76c0 36 2.33301 65.833 7 89.5s12.834 42.334 24.501 56.001s27.167 23.334 46.5 29.001s43.666 8.5 72.999 8.5c12.667 0 27.167 -2.33301 43.5 -7s30.166 -10 41.499 -16c17.333 5.33301 34.833 9.5 52.5 12.5
s35.834 5.5 54.501 7.5v-799h-94z" />
    <glyph glyph-name="ffi" unicode="ffi" horiz-adv-x="646" 
d="M131 543l132.002 -0.00585938v76c0 36 2.16699 65.833 6.5 89.5s11.333 42.334 21 56.001s22 23.334 37 29.001s33.167 8.5 54.5 8.5s39.5 -3.16699 54.5 -9.5s25.833 -13.833 32.5 -22.5l-1 -67c-6.66699 6 -15.334 11.167 -26.001 15.5s-23.667 6.5 -39 6.5
c-9.33301 0 -17 -1.16699 -23 -3.5s-10.667 -7.5 -14 -15.5s-5.83301 -19.667 -7.5 -35s-2.5 -35.666 -2.5 -60.999v-67h250v-543h-93v476h-157v-476h-93v476h-132v-476h-94v476h-43l8 67h35v76c0 36 2.33301 65.833 7 89.5s12 42.334 22 56.001s23 23.334 39 29.001
s35.667 8.5 59 8.5c22.667 0 41 -3.16699 55 -9.5s24.667 -13.833 32 -22.5l-17 -67c-13.333 15.333 -32.666 23 -57.999 23c-8.66699 0 -15.834 -1.33301 -21.501 -4s-10.334 -8 -14.001 -16s-6.16699 -19.667 -7.5 -35s-2 -35.666 -2 -60.999v-67zM606.002 653.994h-93
v130h93v-130z" />
    <glyph glyph-name="ffl" unicode="ffl" horiz-adv-x="663" 
d="M131 543l131.999 -0.00488281v76c0 36 2.33301 65.833 7 89.5s12.834 42.334 24.501 56.001s27 23.334 46 29.001s43.167 8.5 72.5 8.5c12.667 0 27.167 -2.33301 43.5 -7s30.5 -10 42.5 -16c17.333 5.33301 35 9.5 53 12.5s35.667 5.5 53 7.5v-799h-94v698
c-10.667 7.33301 -24 14.333 -40 21s-32.667 10 -50 10c-13.333 0 -24.166 -1.33301 -32.499 -4s-14.833 -8.16699 -19.5 -16.5s-8 -20.333 -10 -36s-3 -36.5 -3 -62.5v-67h98l-7 -67h-91v-476h-93v476h-132v-476h-94v476h-43l8 67h35v76c0 36 2.33301 65.833 7 89.5
s12 42.334 22 56.001s23 23.334 39 29.001s35.667 8.5 59 8.5c22.667 0 41 -3.16699 55 -9.5s24.667 -13.833 32 -22.5l-17 -67c-13.333 15.333 -32.666 23 -57.999 23c-8.66699 0 -15.834 -1.33301 -21.501 -4s-10.334 -8 -14.001 -16s-6.16699 -19.667 -7.5 -35
s-2 -35.666 -2 -60.999v-67z" />
    <glyph glyph-name=".notdef" horiz-adv-x="584" 
d="M365 604c-8.66699 -32.667 -23.168 -60 -43.501 -82s-42.333 -43.5 -66 -64.5s-46.167 -44.167 -67.5 -69.5s-37.333 -57.666 -48 -96.999c-4.66699 -16.667 -7 -33.334 -7 -50.001v-14.5c0 -4.33301 0.666992 -8.83301 2 -13.5l112 -29c0 34 5.16699 62.167 15.5 84.5
s23.5 42 39.5 59s33.833 32.5 53.5 46.5s39.167 29.5 58.5 46.5s37.333 37 54 60s29.667 52.167 39 87.5c12 44 18 81.333 18 112c0 38 -10.667 68.167 -32 90.5s-58.333 40.833 -111 55.5c-31.333 8 -58.666 12 -81.999 12c-25.333 0 -46.833 -4.66699 -64.5 -14
s-33.167 -23 -46.5 -41s-25.5 -40.667 -36.5 -68s-22.167 -59 -33.5 -95l123 -51c15.333 49.333 29.333 86.5 42 111.5s28.667 37.5 48 37.5c16 0 27.667 -4.66699 35 -14s11 -20 11 -32c0 -8.66699 -1.16699 -18.5 -3.5 -29.5s-5.5 -23.833 -9.5 -38.5zM227.999 75l-135 37
l-39 -145l135 -35zM29.999 974h528v-1200h-528v1200z" />
    <glyph glyph-name=".null" horiz-adv-x="0" 
 />
    <glyph glyph-name=".null" horiz-adv-x="0" 
 />
    <glyph glyph-name="nonmarkingreturn" unicode="&#xd;" horiz-adv-x="472" 
 />
    <glyph glyph-name="space" unicode=" " horiz-adv-x="212" 
 />
    <glyph glyph-name="exclam" unicode="!" horiz-adv-x="197" 
d="M157 782l-19 -549h-80l-19 549h118zM144 0h-93v130h93v-130z" />
    <glyph glyph-name="quotedbl" unicode="&#x22;" horiz-adv-x="256" 
d="M164 778h81l-8 -292h-63zM11 778h81l-10 -292h-61z" />
    <glyph glyph-name="numbersign" unicode="#" horiz-adv-x="490" 
d="M465 721l-53 -182h61v-64h-79l-47 -170h86v-65h-104l-53 -193l-75 19l51 174h-98l-54 -193l-74 19l25.5 87l24.5 87h-61v65h78l47 170h-84v64h104l56 202l73 -20l-51 -182h96l56 202zM171 305h96l47 170h-94z" />
    <glyph glyph-name="dollar" unicode="$" horiz-adv-x="363" 
d="M149 0l-0.00292969 85.0049c-41.333 4.66699 -72.666 20.167 -93.999 46.5s-32 67.166 -32 122.499l81 12c0 -15.333 0.833008 -29.5 2.5 -42.5s4.83398 -24.333 9.50098 -34s11.5 -17.334 20.5 -23.001s20.833 -8.5 35.5 -8.5c32 0 53 7 63 21s15 33.333 15 58
c0 15.333 -1.83301 28.5 -5.5 39.5s-9.16699 20.667 -16.5 29s-16.166 15.666 -26.499 21.999s-22.5 12.833 -36.5 19.5c-20 9.33301 -37.667 19.166 -53 29.499s-28.166 22 -38.499 35s-18.333 27.833 -24 44.5s-8.5 36 -8.5 58c0 36 7.5 66 22.5 90s43.5 38.333 85.5 43
v98h58v-96c20.667 -2 38 -5.5 52 -10.5s25.333 -12.167 34 -21.5s15.5 -21.5 20.5 -36.5s9.16699 -33.167 12.5 -54.5l-74 -14c-3.33301 22 -9.33301 38 -18 48s-24 15 -46 15c-17.333 0 -31.5 -3.83301 -42.5 -11.5s-16.5 -23.167 -16.5 -46.5
c0 -22.667 5.16699 -41.334 15.5 -56.001s28.166 -28 53.499 -40c20 -10 38.333 -19.667 55 -29s31 -20.333 43 -33s21.167 -28 27.5 -46s9.5 -40.333 9.5 -67c0 -46.667 -10 -83.5 -30 -110.5s-52 -43.167 -96 -48.5v-87h-58z" />
    <glyph glyph-name="percent" unicode="%" horiz-adv-x="619" 
d="M149 766c28.667 0 51 -4.83301 67 -14.5s27.833 -23.5 35.5 -41.5s12.334 -39.667 14.001 -65s2.5 -53.666 2.5 -84.999c0 -29.333 -0.833008 -56.333 -2.5 -81s-6.33398 -46.334 -14.001 -65.001s-19.5 -33.167 -35.5 -43.5s-38.333 -15.5 -67 -15.5
c-28 0 -50 5.16699 -66 15.5s-28 24.833 -36 43.5s-12.833 40.334 -14.5 65.001s-2.5 51.667 -2.5 81c0 31.333 0.833008 59.666 2.5 84.999s6.5 47 14.5 65s20 31.833 36 41.5s38 14.5 66 14.5zM116 0l321 756h67l-320 -756h-68zM149 705
c-12.667 0 -22.5 -2.66699 -29.5 -8s-12.333 -13.666 -16 -24.999s-5.83398 -26.333 -6.50098 -45s-1 -41 -1 -67s0.333008 -48.167 1 -66.5s2.83398 -33.5 6.50098 -45.5s9 -20.667 16 -26s16.833 -8 29.5 -8s22.5 2.66699 29.5 8s12.167 14 15.5 26s5.33301 27.167 6 45.5
s1 40.5 1 66.5s-0.333008 48.333 -1 67s-2.66699 33.667 -6 45s-8.5 19.666 -15.5 24.999s-16.833 8 -29.5 8zM470 400c28.667 0 51 -4.83301 67 -14.5s27.833 -23.334 35.5 -41.001s12.334 -39.167 14.001 -64.5s2.5 -53.666 2.5 -84.999
c0 -29.333 -0.833008 -56.5 -2.5 -81.5s-6.33398 -46.667 -14.001 -65s-19.5 -32.666 -35.5 -42.999s-38.333 -15.5 -67 -15.5c-28 0 -50 5.16699 -66 15.5s-28 24.666 -36 42.999s-12.833 40 -14.5 65s-2.5 52.167 -2.5 81.5c0 31.333 0.833008 59.666 2.5 84.999
s6.5 46.833 14.5 64.5s20 31.334 36 41.001s38 14.5 66 14.5zM470 340c-12.667 0 -22.5 -2.66699 -29.5 -8s-12.333 -13.666 -16 -24.999s-5.83398 -26.333 -6.50098 -45s-1 -41 -1 -67s0.333008 -48.167 1 -66.5s2.83398 -33.5 6.50098 -45.5s9 -20.667 16 -26
s16.833 -8 29.5 -8s22.5 2.66699 29.5 8s12.167 14 15.5 26s5.33301 27.167 6 45.5s1 40.5 1 66.5s-0.333008 48.333 -1 67s-2.66699 33.667 -6 45s-8.5 19.666 -15.5 24.999s-16.833 8 -29.5 8z" />
    <glyph glyph-name="ampersand" unicode="&#x26;" horiz-adv-x="519" 
d="M124 631c0 14.667 1.16699 29.501 3.5 44.501s7.5 28.667 15.5 41s19.833 22.333 35.5 30s36.834 11.5 63.501 11.5c45.333 0 75.833 -10.5 91.5 -31.5s23.5 -52.5 23.5 -94.5c0 -26 -2.83301 -49.333 -8.5 -70s-13.334 -39.5 -23.001 -56.5s-20.834 -32.333 -33.501 -46
s-25.667 -26.5 -39 -38.5c20.667 -37.333 41.5 -72.166 62.5 -104.499s42.5 -63.5 64.5 -93.5c11.333 29.333 19.166 60 23.499 92s7.5 63 9.5 93l81 -15c-5.33301 -40 -12.166 -81 -20.499 -123s-20.166 -82 -35.499 -120c11.333 -12.667 24.666 -26.834 39.999 -42.501
l40 -41.5l-61 -73l-35 37.5c-13.333 14.333 -24.666 27.166 -33.999 38.499c-20.667 -25.333 -44.5 -45.666 -71.5 -60.999s-59.5 -23 -97.5 -23c-37.333 0 -68.333 5.33301 -93 16s-44.5 24.5 -59.5 41.5s-25.667 35.667 -32 56s-9.5 40.5 -9.5 60.5
c0 34 3.5 64.833 10.5 92.5s17 52.667 30 75s28.667 42.5 47 60.5s38.5 35 60.5 51c-17.333 32.667 -29.833 65.667 -37.5 99s-11.5 64.666 -11.5 93.999zM215 64.001c28 0 52 6.66895 72 20.002s37.333 31 52 53c-26 35.333 -50.5 72.166 -73.5 110.499
s-44.5 77.166 -64.5 116.499c-25.333 -21.333 -45.5 -46.5 -60.5 -75.5s-22.5 -64.5 -22.5 -106.5c0 -16 1.5 -31.167 4.5 -45.5s8.33301 -26.833 16 -37.5s17.667 -19.167 30 -25.5s27.833 -9.5 46.5 -9.5zM194 623.003c0 -19.333 2.66797 -40.667 8.00098 -64
s12.666 -46.666 21.999 -69.999c18 17.333 33.333 37.333 46 60s19 47.667 19 75c0 19.333 -3.16699 35.166 -9.5 47.499s-18.833 18.5 -37.5 18.5c-20 0 -33 -7 -39 -21s-9 -29.333 -9 -46z" />
    <glyph glyph-name="quotesingle" unicode="'" horiz-adv-x="103" 
d="M11 778h81l-9 -292h-62z" />
    <glyph glyph-name="parenleft" unicode="(" horiz-adv-x="315" 
d="M260 739c-24.667 -17.333 -46.3311 -40.3301 -64.998 -68.9971s-34.334 -61.334 -47.001 -98.001s-22.334 -76.334 -29.001 -119.001s-10 -87 -10 -133c0 -50.667 3.83301 -98 11.5 -142s18.834 -83.667 33.501 -119s33 -65.333 55 -90s47.333 -43 76 -55l-36 -54
c-40.667 14.667 -74.834 36.834 -102.501 66.501s-50.167 64.5 -67.5 104.5s-29.833 84.5 -37.5 133.5s-11.5 100.833 -11.5 155.5c0 49.333 3 97.5 9 144.5s16.167 91.167 30.5 132.5s33.333 78.666 57 111.999s53.5 60.666 89.5 81.999z" />
    <glyph glyph-name="parenright" unicode=")" horiz-adv-x="315" 
d="M56 -90c24.667 18 46.333 41.1631 65 69.4961s34.334 60.5 47.001 96.5s22.167 75.333 28.5 118s9.5 87.334 9.5 134.001c0 50.667 -3.83301 98.167 -11.5 142.5s-19 84 -34 119s-33.5 64.833 -55.5 89.5s-47 43 -75 55l36 55c40.667 -15.333 75 -37.666 103 -66.999
s50.667 -64.333 68 -105s29.666 -85.5 36.999 -134.5s11 -100.5 11 -154.5c0 -48.667 -3 -96.5 -9 -143.5s-16.167 -91.167 -30.5 -132.5s-33.333 -78.666 -57 -111.999s-53.5 -60.666 -89.5 -81.999z" />
    <glyph glyph-name="asterisk" unicode="*" horiz-adv-x="488" 
d="M291 745l-15 -162l158 65l24 -76l-169 -40l111 -122l-76 -53l-79 138l-88 -136l-71 53l112 119l-168 43l27 75l156 -65l-17 161h95z" />
    <glyph glyph-name="plus" unicode="+" horiz-adv-x="530" 
d="M233 340h-203v63h203v204h63v-204h204v-63h-204v-204h-63v204z" />
    <glyph glyph-name="comma" unicode="," horiz-adv-x="163" 
d="M134 25c0 -46.667 -24.667 -95.668 -74 -147.001l-27 21c34.667 34.667 52 70.334 52 107.001h-46v124h95v-105z" />
    <glyph glyph-name="hyphen" unicode="-" horiz-adv-x="219" 
d="M11 262l8 63h190l-8 -63h-190z" />
    <glyph glyph-name="period" unicode="." horiz-adv-x="153" 
d="M124 0h-94v130h94v-130z" />
    <glyph glyph-name="slash" unicode="/" horiz-adv-x="250" 
d="M187 745h59l-183 -745h-59z" />
    <glyph glyph-name="zero" unicode="0" horiz-adv-x="439" 
d="M219 758c46.667 0 82.834 -6.16895 108.501 -18.502s44.5 -33.333 56.5 -63s19.167 -69.167 21.5 -118.5s3.5 -111.333 3.5 -186c0 -74 -1.16699 -135.833 -3.5 -185.5s-9.5 -89.167 -21.5 -118.5s-30.833 -50.166 -56.5 -62.499s-61.834 -18.5 -108.501 -18.5
s-82.834 6.16699 -108.501 18.5s-44.5 33.333 -56.5 63s-19 69.167 -21 118.5s-3 111 -3 185s1 135.833 3 185.5s9 89.334 21 119.001s30.833 50.667 56.5 63s61.834 18.5 108.501 18.5zM219 679.998c-22 0 -39 -4.66699 -51 -14s-20.833 -25.833 -26.5 -49.5
s-9.16699 -55.334 -10.5 -95.001s-2 -89.5 -2 -149.5s0.5 -109.833 1.5 -149.5s4.5 -71 10.5 -94s15 -39.167 27 -48.5s29 -14 51 -14c21.333 0 38 4.66699 50 14s20.833 25.5 26.5 48.5s9.16699 54.333 10.5 94s2 89.5 2 149.5s-0.666992 109.833 -2 149.5
s-4.83301 71.334 -10.5 95.001s-14.5 40.167 -26.5 49.5s-28.667 14 -50 14z" />
    <glyph glyph-name="one" unicode="1" horiz-adv-x="248" 
d="M9 646c36.667 7.33301 65.833 20 87.5 38s41.167 42.667 58.5 74h63v-758h-99v624c-6.66699 -11.333 -18.5 -22.333 -35.5 -33s-37.833 -17 -62.5 -19z" />
    <glyph glyph-name="two" unicode="2" horiz-adv-x="399" 
d="M194 680c-16 0 -28.6709 -2.99902 -38.0039 -8.99902s-16.666 -16 -21.999 -30s-9.16602 -32.5 -11.499 -55.5s-4.5 -51.5 -6.5 -85.5l-91 13c2 40.667 4.5 76.334 7.5 107.001s10.333 56.167 22 76.5s28.834 35.666 51.501 45.999s54.667 15.5 96 15.5
c31.333 0 57.166 -3.83301 77.499 -11.5s36.5 -20 48.5 -37s20.333 -38.667 25 -65s7 -58.5 7 -96.5c0 -46 -6.66699 -91.333 -20 -136s-30.5 -87.5 -51.5 -128.5s-44.167 -79.167 -69.5 -114.5s-50 -66.333 -74 -93h230l-5 -76h-340v74
c30.667 28.667 60.334 61.167 89.001 97.5s53.834 75 75.501 116s39 83.667 52 128s19.5 88.5 19.5 132.5c0 49.333 -5.5 83.666 -16.5 102.999s-29.5 29 -55.5 29z" />
    <glyph glyph-name="three" unicode="3" horiz-adv-x="405" 
d="M197 758c38 0 67.6621 -5 88.9951 -15s37.5 -24 48.5 -42s17.833 -39.5 20.5 -64.5s4 -52.833 4 -83.5c0 -18 -1.33301 -35.833 -4 -53.5s-6.66699 -34.167 -12 -49.5s-12.166 -28.333 -20.499 -39s-18.166 -18 -29.499 -22c16.667 -5.33301 30.667 -13.333 42 -24
s20.333 -23.5 27 -38.5s11.334 -32 14.001 -51s4 -39.167 4 -60.5c0 -31.333 -1.5 -60.666 -4.5 -87.999s-10.5 -51.5 -22.5 -72.5s-30.333 -37.5 -55 -49.5s-58.667 -18 -102 -18c-33.333 0 -60.833 3.5 -82.5 10.5s-39 17.333 -52 31s-22.5 30.167 -28.5 49.5
s-10 41 -12 65l81 27c2.66699 -17.333 5.66699 -32.333 9 -45s8.33301 -23.5 15 -32.5s15.334 -15.667 26.001 -20s24.667 -6.5 42 -6.5c20.667 0 37 3.16699 49 9.5s21.167 16 27.5 29s10.5 29.333 12.5 49s3 42.5 3 68.5c0 22 -1.16699 41 -3.5 57s-6.83301 29 -13.5 39
s-16.167 17.5 -28.5 22.5s-28.166 7.5 -47.499 7.5h-53l8 76h45c14.667 0 26.667 2 36 6s16.666 10.5 21.999 19.5s9 21.167 11 36.5s3 34.666 3 57.999c0 24 -0.666992 44.667 -2 62s-4.16602 31.5 -8.49902 42.5s-11 19 -20 24s-21.5 7.5 -37.5 7.5
c-14 0 -25.5 -1.83301 -34.5 -5.5s-16.333 -9.66699 -22 -18s-10 -19.5 -13 -33.5s-5.5 -31 -7.5 -51l-84 8c2 33.333 5.5 61.333 10.5 84s13.333 41 25 55s27.5 24 47.5 30s46 9 78 9z" />
    <glyph glyph-name="four" unicode="4" horiz-adv-x="381" 
d="M13 217l205 528h117v-514h42l-8 -79h-34v-152h-97v152h-225v65zM238 231v358l-140 -358h140z" />
    <glyph glyph-name="five" unicode="5" horiz-adv-x="403" 
d="M161 661l-13.001 -209c22.667 16.667 58 25 106 25c26 0 47.167 -4.66699 63.5 -14s29 -23.5 38 -42.5s15.167 -42.5 18.5 -70.5s5 -61 5 -99c0 -42 -1.5 -79.333 -4.5 -112s-10.833 -60.167 -23.5 -82.5s-31.5 -39.5 -56.5 -51.5s-59.833 -18 -104.5 -18
c-24 0 -45 2.5 -63 7.5s-34 12.5 -48 22.5s-26.333 22.667 -37 38s-21 33.333 -31 54l67 49c11.333 -29.333 24.833 -52 40.5 -68s37.167 -24 64.5 -24c22.667 0 40.334 3.66699 53.001 11s22 18.333 28 33s9.5 33.167 10.5 55.5s1.5 48.5 1.5 78.5
c0 26.667 -0.666992 49.667 -2 69s-4.5 35 -9.5 47s-12.5 20.833 -22.5 26.5s-23.333 8.5 -40 8.5c-36 0 -65.333 -11 -88 -33l-65 33l22 350h282l-9 -84h-183z" />
    <glyph glyph-name="six" unicode="6" horiz-adv-x="433" 
d="M219 680c-21.333 0 -38.5049 -4.99902 -51.5049 -14.999s-22.833 -26 -29.5 -48s-11.167 -50.667 -13.5 -86s-3.5 -78.333 -3.5 -129c15.333 26.667 36.333 46.667 63 60s53.334 20 80.001 20c33.333 0 59.5 -6 78.5 -18s33.333 -28.5 43 -49.5s15.667 -46.167 18 -75.5
s3.5 -61 3.5 -95c0 -38.667 -1.66699 -73.834 -5 -105.501s-11.333 -58.667 -24 -81s-31.5 -39.666 -56.5 -51.999s-59.167 -18.5 -102.5 -18.5c-46 0 -81.667 9.83301 -107 29.5s-44.166 46.167 -56.499 79.5s-19.666 71.666 -21.999 114.999s-3.5 89 -3.5 137
c0 80.667 3 147.334 9 200.001s16.167 94.5 30.5 125.5s33.333 52.833 57 65.5s52.834 19 87.501 19c30.667 0 56.667 -2.66699 78 -8s38.833 -14 52.5 -26s23.667 -27.167 30 -45.5s10.166 -40.5 11.499 -66.5l-77 -30c-1.33301 16 -3.5 30 -6.5 42
s-7.66699 22.167 -14 30.5s-15.166 14.666 -26.499 18.999s-25.666 6.5 -42.999 6.5zM224.995 402.001c-21.333 0 -40.668 -8.16895 -58.001 -24.502s-30 -39.166 -38 -68.499c0.666992 -44 1.66699 -81.333 3 -112s5 -55.667 11 -75s14.667 -33.5 26 -42.5
s27.333 -13.5 48 -13.5s37 4.16699 49 12.5s21 20 27 35s9.66699 32.833 11 53.5s2 43.334 2 68.001c0 29.333 -0.666992 54.5 -2 75.5s-4.66602 38.333 -9.99902 52s-13.5 23.667 -24.5 30s-25.833 9.5 -44.5 9.5z" />
    <glyph glyph-name="seven" unicode="7" horiz-adv-x="333" 
d="M25 745h295.998v-61c-24 -30.667 -44.667 -71.5 -62 -122.5s-32 -107.5 -44 -169.5s-21.667 -126.833 -29 -194.5s-12.333 -133.5 -15 -197.5h-116c2.66699 64 8.83398 128.333 18.501 193s21.834 126.167 36.501 184.5s32 112.333 52 162s42 92.167 66 127.5h-211z" />
    <glyph glyph-name="eight" unicode="8" horiz-adv-x="426" 
d="M288 401c38 -12.667 66.666 -34.501 85.999 -65.501s29 -77.833 29 -140.5c0 -39.333 -3.5 -72.333 -10.5 -99s-18.167 -48 -33.5 -64s-35 -27.5 -59 -34.5s-52.667 -10.5 -86 -10.5s-62 3.5 -86 10.5s-43.667 18.5 -59 34.5s-26.5 37.333 -33.5 64
s-10.5 59.667 -10.5 99c0 31.333 1.66699 58.5 5 81.5s9.33301 42.667 18 59s20.5 29.666 35.5 39.999s34.167 18.5 57.5 24.5c-18 4.66699 -32.833 11.334 -44.5 20.001s-20.667 20 -27 34s-10.833 31.333 -13.5 52s-4 45.667 -4 75c0 28 2.66699 53 8 75
s14.333 40.5 27 55.5s29.334 26.5 50.001 34.5s46.334 12 77.001 12c59.333 0 101.166 -15.167 125.499 -45.5s36.5 -74.166 36.5 -131.499c0 -29.333 -1.5 -54.333 -4.5 -75s-8 -38 -15 -52s-16.167 -25.167 -27.5 -33.5s-25 -14.833 -41 -19.5zM208.999 361.999
c-16.667 -5.33301 -30.665 -11.832 -41.998 -19.499s-20.5 -17.667 -27.5 -30s-12 -27.833 -15 -46.5s-4.5 -41.334 -4.5 -68.001c0 -47.333 6.16699 -82.166 18.5 -104.499s36.166 -33.5 71.499 -33.5s59 11.167 71 33.5s18 57.166 18 104.499c0 26 -1.5 48 -4.5 66
s-8 33.167 -15 45.5s-16.333 22.5 -28 30.5s-25.834 15.333 -42.501 22zM218.001 436c12.667 6 23.5 12.167 32.5 18.5s16.5 14.666 22.5 24.999s10.333 23.833 13 40.5s4 38 4 64c0 39.333 -5.33301 66.833 -16 82.5s-29 23.5 -55 23.5s-44.833 -7.83301 -56.5 -23.5
s-17.5 -43.167 -17.5 -82.5c0 -26 1.33301 -47.167 4 -63.5s6.83398 -29.666 12.501 -39.999s13.167 -18.833 22.5 -25.5s20.666 -13 33.999 -19z" />
    <glyph glyph-name="nine" unicode="9" horiz-adv-x="433" 
d="M209 63c21.333 0 38.5059 5.99902 51.5059 17.999s23.333 30.167 31 54.5s12.834 54.833 15.501 91.5s4 79.334 4 128.001c-14.667 -20 -34.667 -37 -60 -51s-53 -21 -83 -21c-33.333 0 -59.333 6 -78 18s-32.834 28.5 -42.501 49.5s-15.667 45.833 -18 74.5
s-3.5 60 -3.5 94c0 39.333 1.66699 73.833 5 103.5s11.333 54.5 24 74.5s31.5 35 56.5 45s59.167 15 102.5 15c46 0 81.667 -8.83301 107 -26.5s44.166 -41.667 56.499 -72s19.666 -66.166 21.999 -107.499s3.5 -86 3.5 -134c0 -80.667 -3.33301 -148.5 -10 -203.5
s-17.334 -99.333 -32.001 -133s-34.167 -57.834 -58.5 -72.501s-53.833 -22 -88.5 -22c-62 0 -107.333 13.667 -136 41s-44.334 67.333 -47.001 120l76 29c1.33301 -16 4.16602 -30.833 8.49902 -44.5s10.5 -25.5 18.5 -35.5s18.167 -18 30.5 -24s27.166 -9 44.499 -9z
M209.006 361.999c20.667 0 39.1729 7.99805 55.5059 23.998s29.166 35.667 38.499 59c0 44.667 -0.666992 81.834 -2 111.501s-4.83301 53.5 -10.5 71.5s-14.334 30.667 -26.001 38s-27.834 11 -48.501 11s-37 -3.16699 -49 -9.5s-21 -15.833 -27 -28.5
s-9.83301 -28.667 -11.5 -48s-2.5 -42.333 -2.5 -69c0 -27.333 0.666992 -51.166 2 -71.499s4.66602 -37 9.99902 -50s13.666 -22.667 24.999 -29s26.666 -9.5 45.999 -9.5z" />
    <glyph glyph-name="colon" unicode=":" horiz-adv-x="153" 
d="M124 0h-94v130h94v-130zM124 413h-94v130h94v-130z" />
    <glyph glyph-name="semicolon" unicode=";" horiz-adv-x="160" 
d="M128 413h-94v130h94v-130zM128 25c0 -46.667 -24.667 -95.668 -74 -147.001l-27 21c34.667 34.667 52 70.334 52 107.001h-46v124h95v-105z" />
    <glyph glyph-name="less" unicode="&#x3c;" horiz-adv-x="393" 
d="M363 120l-333 215v52l333 221v-76l-272 -170l272 -168v-74z" />
    <glyph glyph-name="equal" unicode="=" horiz-adv-x="553" 
d="M30 246v63h493v-63h-493zM30 454v63h493v-63h-493z" />
    <glyph glyph-name="greater" unicode="&#x3e;" horiz-adv-x="393" 
d="M30 194l271 168l-271 170v76l333 -221v-52l-333 -215v74z" />
    <glyph glyph-name="question" unicode="?" horiz-adv-x="367" 
d="M252 612c0 18.667 -1 34.834 -3 48.501s-5.5 24.834 -10.5 33.501s-12.167 15 -21.5 19s-21.333 6 -36 6c-17.333 0 -31 -3.33301 -41 -10s-17.833 -16.834 -23.5 -30.501s-9.66699 -31 -12 -52s-4.16602 -45.5 -5.49902 -73.5l-88 12c2 40.667 5.16699 75.667 9.5 105
s12.666 53.5 24.999 72.5s29.666 33 51.999 42s52.166 13.5 89.499 13.5c33.333 0 60.5 -3.5 81.5 -10.5s37.5 -17.833 49.5 -32.5s20.333 -33.834 25 -57.501s7 -51.834 7 -84.501c0 -28 -3.83301 -52.667 -11.5 -74s-17.167 -40.666 -28.5 -57.999
s-23.666 -33.5 -36.999 -48.5s-25.666 -30.167 -36.999 -45.5s-20.833 -31.5 -28.5 -48.5s-11.5 -36.5 -11.5 -58.5c0 -19.333 3 -37.333 9 -54h-79c-8.66699 17.333 -13 38.333 -13 63c0 36 7.16699 67 21.5 93s30.333 50.833 48 74.5s33.667 47.5 48 71.5s21.5 52 21.5 84
zM212 0h-94v130h94v-130z" />
    <glyph glyph-name="at" unicode="@" horiz-adv-x="590" 
d="M291 484c15.333 0 27.3281 -4.66602 35.9951 -13.999s15.667 -19.666 21 -30.999c0.666992 20 2.66699 37 6 51h35v-264c0 -17.333 3.33301 -32.833 10 -46.5s16.667 -20.5 30 -20.5c9.33301 0 17.666 2 24.999 6s13.666 13 18.999 27s9.33301 34.833 12 62.5
s4 65.167 4 112.5c0 62.667 -1.5 112.834 -4.5 150.501s-10.833 66.834 -23.5 87.501s-32.167 34.334 -58.5 41.001s-62.833 10 -109.5 10c-30.667 0 -56.667 -1.5 -78 -4.5s-39.333 -9.16699 -54 -18.5s-26.167 -22.5 -34.5 -39.5s-14.666 -39.333 -18.999 -67
s-7.16602 -61.334 -8.49902 -101.001s-2 -86.834 -2 -141.501c0 -58 1.5 -107.333 4.5 -148s8 -74.334 15 -101.001s16.667 -47.5 29 -62.5s27.833 -26.167 46.5 -33.5s40.834 -11.833 66.501 -13.5s55.5 -2.5 89.5 -2.5c48.667 0 87.334 7.66699 116.001 23
s50.334 34.333 65.001 57l33 -58c-18 -30 -45 -53.333 -81 -70s-81 -25 -135 -25c-44.667 0 -83.5 1.83301 -116.5 5.5s-61.167 10.834 -84.5 21.501s-42.5 25.834 -57.5 45.501s-26.667 45.667 -35 78s-14.166 71.666 -17.499 117.999s-5 101.5 -5 165.5
c0 61.333 0.833008 115 2.5 161s5.33398 85.333 11.001 118s14.167 59.5 25.5 80.5s26.833 37.667 46.5 50s43.834 20.833 72.501 25.5s63.667 7 105 7c62.667 0 111.5 -4.66699 146.5 -14s61 -27.333 78 -54s27.333 -64 31 -112s5.5 -110.333 5.5 -187
c0 -55.333 -3.16699 -99.833 -9.5 -133.5s-14.833 -59.834 -25.5 -78.501s-23.167 -31 -37.5 -37s-29.833 -9 -46.5 -9c-22.667 0 -39.334 6.5 -50.001 19.5s-17.667 27.5 -21 43.5c-12 -42 -36 -63 -72 -63c-23.333 0 -41.5 2.66699 -54.5 8s-22.667 15.166 -29 29.499
s-10.333 34.166 -12 59.499s-2.5 57.666 -2.5 96.999c0 38.667 0.833008 70.334 2.5 95.001s5.66699 44 12 58s16 23.5 29 28.5s30.833 7.5 53.5 7.5zM290.995 428.001c-10 0 -17.833 -1.66699 -23.5 -5s-9.83398 -9.66602 -12.501 -18.999s-4.33398 -22.5 -5.00098 -39.5
s-1 -39.167 -1 -66.5c0 -28 0.333008 -50.833 1 -68.5s2.5 -31.834 5.5 -42.501s7.5 -18 13.5 -22s14.667 -6 26 -6c13.333 0 23.833 6.83301 31.5 20.5s11.5 32.167 11.5 55.5v130c-5.33301 20 -11.166 35.5 -17.499 46.5s-16.166 16.5 -29.499 16.5z" />
    <glyph glyph-name="A" unicode="A" horiz-adv-x="421" 
d="M273 179h-139l-31 -179h-94l148 745h105l150 -745h-109zM141 258h123l-60 326z" />
    <glyph glyph-name="B" unicode="B" horiz-adv-x="438" 
d="M40 745h157.001c46 0 82.167 -4.33301 108.5 -13s46.166 -21 59.499 -37s21.666 -35.333 24.999 -58s5 -48 5 -76c0 -40 -7.33301 -74.5 -22 -103.5s-39.667 -47.833 -75 -56.5c44.667 -9.33301 75.834 -29.166 93.501 -59.499s26.5 -68.166 26.5 -113.499
c0 -32 -1.16699 -61.833 -3.5 -89.5s-9.33301 -51.834 -21 -72.501s-30 -36.834 -55 -48.501s-60.5 -17.5 -106.5 -17.5h-192v745zM134.001 73l71.9961 -0.00292969c28 0 49.833 3.33301 65.5 10s27.334 16.334 35.001 29.001s12.167 28.334 13.5 47.001s2 40.334 2 65.001
c0 21.333 -1.16699 40.333 -3.5 57s-7.16602 30.5 -14.499 41.5s-17.666 19.333 -30.999 25s-30.666 8.5 -51.999 8.5h-87v-283zM133.997 426.997h75.001c20 0 35.833 3.16699 47.5 9.5s20.667 15 27 26s10.333 24.167 12 39.5s2.5 32.333 2.5 51
c0 22 -1.33301 40.333 -4 55s-7.5 26.5 -14.5 35.5s-16.833 15.5 -29.5 19.5s-29.334 6 -50.001 6h-66v-242z" />
    <glyph glyph-name="C" unicode="C" horiz-adv-x="444" 
d="M228 680c-22 0 -39.3301 -5.83105 -51.9971 -17.498s-22 -29.834 -28 -54.501s-9.83301 -56.5 -11.5 -95.5s-2.5 -85.833 -2.5 -140.5c0 -55.333 0.833008 -102.333 2.5 -141s5.5 -70.334 11.5 -95.001s15.333 -42.5 28 -53.5s30 -16.5 52 -16.5s39 3.33301 51 10
s20.833 17.5 26.5 32.5s9.16699 34.833 10.5 59.5s2.66602 55.334 3.99902 92.001l99 -8c-3.33301 -45.333 -6.83301 -84.5 -10.5 -117.5s-11.667 -60.5 -24 -82.5s-30.5 -38.333 -54.5 -49s-58 -16 -102 -16c-48 0 -85.333 8.16699 -112 24.5s-46.334 40.5 -59.001 72.5
s-20.334 72 -23.001 120s-4 104 -4 168c0 63.333 1.33301 119 4 167s10.334 88.333 23.001 121s32.334 57.167 59.001 73.5s64 24.5 112 24.5c44.667 0 79.5 -4.5 104.5 -13.5s43.667 -23.833 56 -44.5s20.166 -47.5 23.499 -80.5s5.66602 -73.5 6.99902 -121.5l-97 -13
c-1.33301 41.333 -2.83301 74.666 -4.5 99.999s-5.5 45 -11.5 59s-15 23.5 -27 28.5s-29 7.5 -51 7.5z" />
    <glyph glyph-name="D" unicode="D" 
d="M207 745c54 0 96.5 -7.83496 127.5 -23.502s54.333 -39 70 -70s25.5 -69.833 29.5 -116.5s6 -101 6 -163c0 -68 -1.83301 -125.667 -5.5 -173s-13 -85.666 -28 -114.999s-37.667 -50.666 -68 -63.999s-71.833 -20 -124.5 -20h-174v745h167zM138 668.998
l0.00292969 -587.001h78c28 0 50.167 5.33301 66.5 16s28.666 27.667 36.999 51s13.666 53.333 15.999 90s3.5 81 3.5 133c0 54.667 -1 100.834 -3 138.501s-7.16699 68.167 -15.5 91.5s-21.333 40.333 -39 51s-41.834 16 -72.501 16h-71z" />
    <glyph glyph-name="E" unicode="E" horiz-adv-x="353" 
d="M326 745v-78h-187v-235h157l-7 -79h-150v-277h192v-76h-291v745h286z" />
    <glyph glyph-name="F" unicode="F" horiz-adv-x="356" 
d="M347 745v-78h-207v-247h168l-8 -79h-160v-341h-100v745h307z" />
    <glyph glyph-name="G" unicode="G" horiz-adv-x="447" 
d="M414 382l-0.00292969 -381.997h-73l-9 71c-4.66699 -11.333 -10.5 -22 -17.5 -32s-15.833 -18.833 -26.5 -26.5s-23.667 -13.834 -39 -18.501s-33.333 -7 -54 -7c-40 0 -71.167 9.16699 -93.5 27.5s-38.666 44.5 -48.999 78.5s-16.666 75 -18.999 123
s-3.5 101.667 -3.5 161c0 58 1.33301 110.5 4 157.5s10.334 87 23.001 120s32.334 58.5 59.001 76.5s64.334 27 113.001 27c43.333 0 77 -4.33301 101 -13s42 -22.334 54 -41.001s19.5 -42.834 22.5 -72.501s5.5 -65.167 7.5 -106.5l-82 -20c-1.33301 31.333 -3 58 -5 80
s-6.33301 40 -13 54s-16.167 24.167 -28.5 30.5s-29.833 9.5 -52.5 9.5c-24.667 0 -43.834 -6.33301 -57.501 -19s-23.834 -31.5 -30.501 -56.5s-10.834 -56.5 -12.501 -94.5s-2.5 -82 -2.5 -132c0 -46.667 0.666992 -89.167 2 -127.5s5 -71 11 -98s14.833 -48 26.5 -63
s27.834 -22.5 48.501 -22.5c29.333 0 53 9.33301 71 28s28.667 43 32 73v137h-93l13 78h173z" />
    <glyph glyph-name="H" unicode="H" horiz-adv-x="451" 
d="M140 745v-321h172v321h99v-745h-99v346h-172v-346h-100v745h100z" />
    <glyph glyph-name="I" unicode="I" horiz-adv-x="179" 
d="M139 745v-745h-99v745h99z" />
    <glyph glyph-name="J" unicode="J" horiz-adv-x="368" 
d="M328 180c0 -30 -1.49902 -56.999 -4.49902 -80.999s-10 -44.333 -21 -61s-27.5 -29.334 -49.5 -38.001s-51.667 -13 -89 -13c-24 0 -44.5 2.33301 -61.5 7s-31.333 11.834 -43 21.501s-21.5 21.5 -29.5 35.5s-15 30.333 -21 49l77 30
c5.33301 -21.333 13.166 -37.333 23.499 -48s27.833 -16 52.5 -16c15.333 0 27.5 2 36.5 6s15.833 10.5 20.5 19.5s7.66699 20.167 9 33.5s2 29.666 2 48.999v571h98v-565z" />
    <glyph glyph-name="K" unicode="K" horiz-adv-x="430" 
d="M213 390l-74 -129v-261h-99v745h99v-331l150 331h112l-131 -244l150 -501h-115z" />
    <glyph glyph-name="L" unicode="L" horiz-adv-x="306" 
d="M140 745v-669h153v-76h-253v745h100z" />
    <glyph glyph-name="M" unicode="M" horiz-adv-x="561" 
d="M112 543v-543h-76v745h118l129 -591l131 591h111v-745h-82v543l-115 -543h-96z" />
    <glyph glyph-name="N" unicode="N" horiz-adv-x="445" 
d="M38 745h103l181 -516v516h85v-745h-102l-182 515v-515h-85v745z" />
    <glyph glyph-name="O" unicode="O" 
d="M238 758c49.333 0 87.5 -8 114.5 -24s47 -40 60 -72s20.833 -72.167 23.5 -120.5s4 -104.833 4 -169.5c0 -65.333 -1.33301 -122 -4 -170s-10.5 -88 -23.5 -120s-33 -55.833 -60 -71.5s-65.167 -23.5 -114.5 -23.5s-87.833 8.16699 -115.5 24.5
s-48.334 40.5 -62.001 72.5s-22.167 72 -25.5 120s-5 104 -5 168c0 63.333 1.66699 119 5 167s11.833 88.333 25.5 121s34.334 57.167 62.001 73.5s66.167 24.5 115.5 24.5zM238 680c-24 0 -42.833 -5.83203 -56.5 -17.499s-24 -29.834 -31 -54.501s-11.5 -56.5 -13.5 -95.5
s-3 -85.833 -3 -140.5c0 -55.333 1 -102.333 3 -141s6.5 -70.334 13.5 -95.001s17.333 -42.5 31 -53.5s32.5 -16.5 56.5 -16.5c23.333 0 41.5 5.5 54.5 16.5s22.667 28.833 29 53.5s10.166 56.334 11.499 95.001s2 85.667 2 141c0 54.667 -0.666992 101.5 -2 140.5
s-5.16602 71 -11.499 96s-16 43.167 -29 54.5s-31.167 17 -54.5 17z" />
    <glyph glyph-name="P" unicode="P" horiz-adv-x="415" 
d="M169 745c47.333 0 86 -4.33398 116 -13.001s53.5 -21.5 70.5 -38.5s28.667 -38.167 35 -63.5s9.5 -54.333 9.5 -87c0 -36.667 -3.16699 -69.667 -9.5 -99s-17.666 -54.166 -33.999 -74.499s-38.833 -36 -67.5 -47s-65.334 -16.5 -110.001 -16.5h-41v-306h-98v745h129z
M138 663.999l-0.00195312 -280h53c24 0 43.333 3.33301 58 10s26 16.5 34 29.5s13.167 29 15.5 48s3.5 40.5 3.5 64.5c0 20.667 -1.16699 39 -3.5 55s-7.16602 29.5 -14.499 40.5s-18.166 19.167 -32.499 24.5s-33.833 8 -58.5 8h-55z" />
    <glyph glyph-name="Q" unicode="Q" 
d="M238 758c49.333 0 87.501 -8.00098 114.501 -24.001s47 -40 60 -72s20.833 -72.167 23.5 -120.5s4 -104.833 4 -169.5c0 -56.667 -1 -107 -3 -151s-7.33301 -81.667 -16 -113s-22.334 -56.5 -41.001 -75.5s-44.334 -31.833 -77.001 -38.5
c11.333 -21.333 24.333 -41.5 39 -60.5s30.667 -35.5 48 -49.5l-70 -53c-21.333 18.667 -41 42.334 -59 71.001s-31.333 57.334 -40 86.001c-45.333 3.33301 -80.833 13.666 -106.5 30.999s-44.667 41.833 -57 73.5s-20 70.667 -23 117s-4.5 100.5 -4.5 162.5
c0 63.333 1.66699 119 5 167s11.833 88.333 25.5 121s34.334 57.167 62.001 73.5s66.167 24.5 115.5 24.5zM238.001 679.999c-24 0 -42.833 -5.83203 -56.5 -17.499s-24 -29.834 -31 -54.501s-11.5 -56.5 -13.5 -95.5s-3 -85.833 -3 -140.5c0 -55.333 1 -102.333 3 -141
s6.5 -70.334 13.5 -95.001s17.333 -42.5 31 -53.5s32.5 -16.5 56.5 -16.5c23.333 0 41.5 5.5 54.5 16.5s22.667 28.833 29 53.5s10.166 56.334 11.499 95.001s2 85.667 2 141c0 54.667 -0.666992 101.5 -2 140.5s-5.16602 71 -11.499 96s-16 43.167 -29 54.5
s-31.167 17 -54.5 17z" />
    <glyph glyph-name="R" unicode="R" horiz-adv-x="403" 
d="M284 0l-71 334h-74v-334h-99v745h158c41.333 0 74.5 -3.66699 99.5 -11s44.167 -18.833 57.5 -34.5s22.166 -35.5 26.499 -59.5s6.5 -52.667 6.5 -86c0 -28 -1.16699 -53.667 -3.5 -77s-6.66602 -43.833 -12.999 -61.5s-15 -32.5 -26 -44.5s-25.167 -20.333 -42.5 -25
l91 -346h-110zM211 410c18.667 0 33.5 2.33301 44.5 7s19.5 12.5 25.5 23.5s9.83301 25.5 11.5 43.5s2.5 40 2.5 66c0 22.667 -0.833008 41.834 -2.5 57.501s-5.5 28.167 -11.5 37.5s-15.167 16.166 -27.5 20.499s-28.833 6.5 -49.5 6.5h-65v-262h72z" />
    <glyph glyph-name="S" unicode="S" horiz-adv-x="399" 
d="M205 758c33.333 0 60.1699 -4.33789 80.5029 -13.0049s36 -20.5 47 -35.5s18.333 -32.833 22 -53.5s6.16699 -42.667 7.5 -66l-79 -11c-1.33301 16 -2.83301 30.333 -4.5 43s-5.16699 23.334 -10.5 32.001s-12.833 15.167 -22.5 19.5s-22.834 6.5 -39.501 6.5
c-17.333 0 -31.166 -2.33301 -41.499 -7s-18.333 -11.167 -24 -19.5s-9.5 -18.666 -11.5 -30.999s-3 -26.166 -3 -41.499c0 -19.333 2.16699 -36.166 6.5 -50.499s10.5 -27 18.5 -38s17.5 -20.667 28.5 -29s23.167 -16.5 36.5 -24.5c20 -11.333 39.5 -23.166 58.5 -35.499
s36 -27.666 51 -45.999s27 -41 36 -68s13.5 -61.167 13.5 -102.5c0 -64 -13.833 -113.333 -41.5 -148s-75.5 -52 -143.5 -52c-33.333 0 -60.5 4.16699 -81.5 12.5s-37.833 21.666 -50.5 39.999s-22 42.166 -28 71.499s-10.333 65 -13 107l85 17
c1.33301 -31.333 3.66602 -57.833 6.99902 -79.5s8.16602 -39.167 14.499 -52.5s14.833 -22.833 25.5 -28.5s24.334 -8.5 41.001 -8.5c18 0 32.5 2.66699 43.5 8s19.5 13.166 25.5 23.499s10.167 23.333 12.5 39s3.5 33.834 3.5 54.501c0 24 -2.33301 44.667 -7 62
s-11.5 32.333 -20.5 45s-20.167 24.167 -33.5 34.5s-28.333 20.5 -45 30.5c-18 10.667 -35.167 22.334 -51.5 35.001s-31 27.667 -44 45s-23.333 37.333 -31 60s-11.5 49.667 -11.5 81c0 26.667 2.83301 50.667 8.5 72s15.167 39.5 28.5 54.5s31.166 26.667 53.499 35
s50.166 12.5 83.499 12.5z" />
    <glyph glyph-name="T" unicode="T" horiz-adv-x="361" 
d="M356 745v-78h-127v-667h-99v667h-124v78h350z" />
    <glyph glyph-name="U" unicode="U" horiz-adv-x="434" 
d="M137 745l0.00195312 -448.999c0 -40.667 0.666992 -75.5 2 -104.5s4.66602 -52.833 9.99902 -71.5s13.333 -32.334 24 -41.001s25.334 -13 44.001 -13c18 0 32.333 4.33301 43 13s18.667 22.334 24 41.001s8.66602 42.5 9.99902 71.5s2 63.833 2 104.5v449h100v-530
c0 -36 -2 -68 -6 -96s-12.167 -51.833 -24.5 -71.5s-30.333 -34.667 -54 -45s-55.167 -15.5 -94.5 -15.5c-38 0 -68.833 5 -92.5 15s-41.834 24.667 -54.501 44s-21.167 43.166 -25.5 71.499s-6.5 60.833 -6.5 97.5v530h99z" />
    <glyph glyph-name="V" unicode="V" horiz-adv-x="421" 
d="M216 171l102 574h94l-150 -745h-104l-149 745h107z" />
    <glyph glyph-name="W" unicode="W" horiz-adv-x="648" 
d="M276 745h102l83 -593l74 593h104l-125 -745h-97l-90 599l-87 -599h-107l-124 745h106l76 -595z" />
    <glyph glyph-name="X" unicode="X" horiz-adv-x="428" 
d="M9 0l153 389l-140 356h101l94 -249l89 249h92l-137 -347l158 -398h-103l-108 288l-102 -288h-97z" />
    <glyph glyph-name="Y" unicode="Y" horiz-adv-x="382" 
d="M195 417l94 328h83l-131 -431v-314h-98v314l-134 431h97z" />
    <glyph glyph-name="Z" unicode="Z" horiz-adv-x="352" 
d="M46 745h278v-64l-209 -604h220v-77h-321v66l212 600h-180v79z" />
    <glyph glyph-name="bracketleft" unicode="[" horiz-adv-x="295" 
d="M30 822h235v-61h-158v-851h158v-63h-235v975z" />
    <glyph glyph-name="backslash" unicode="\" horiz-adv-x="250" 
d="M246 0h-59l-183 745h59z" />
    <glyph glyph-name="bracketright" unicode="]" horiz-adv-x="295" 
d="M265 -153h-235v61h156v852h-156v62h235v-975z" />
    <glyph glyph-name="asciicircum" unicode="^" horiz-adv-x="486" 
d="M242 631l-133 -298h-79l189 411h46l192 -411h-85z" />
    <glyph glyph-name="underscore" unicode="_" horiz-adv-x="429" 
d="M426 -124h-422v55h422v-55z" />
    <glyph glyph-name="grave" unicode="`" horiz-adv-x="272" 
d="M59 770l162 -127l-33 -37l-179 106z" />
    <glyph glyph-name="a" unicode="a" horiz-adv-x="395" 
d="M191 552c34.667 0 62.665 -4.00391 83.998 -12.0039s38 -20.167 50 -36.5s20 -36.666 24 -60.999s6 -52.5 6 -84.5v-253c0 -19.333 3.83301 -31.333 11.5 -36s16.167 -7 25.5 -7l-8 -62c-34 0 -58.667 5.83301 -74 17.5s-24.666 25.834 -27.999 42.501
c-12.667 -22 -29 -39.333 -49 -52s-48.667 -19 -86 -19c-24 0 -43.667 4.16699 -59 12.5s-27.666 19.5 -36.999 33.5s-15.833 29.833 -19.5 47.5s-5.5 35.834 -5.5 54.501c0 35.333 2.66699 65.166 8 89.499s16.333 44 33 59s40.667 25.667 72 32s73 9.5 125 9.5v41
c0 18.667 -0.666992 34.834 -2 48.501s-4.5 25 -9.5 34s-12.167 15.5 -21.5 19.5s-22 6 -38 6c-27.333 0 -45.5 -7.33301 -54.5 -22s-14.833 -39 -17.5 -73l-79 7c2 28 5.16699 52.333 9.5 73s11.666 37.834 21.999 51.501s24.833 23.667 43.5 30s43.334 9.5 74.001 9.5z
M263.998 271.996c-32 -2 -57.667 -4.83398 -77 -8.50098s-34 -10 -44 -19s-16.667 -21.5 -20 -37.5s-5 -37.333 -5 -64c0 -27.333 3.66699 -48.166 11 -62.499s21.333 -21.5 42 -21.5c26 0 46.5 8.33301 61.5 25s25.5 40.667 31.5 72v116z" />
    <glyph glyph-name="b" unicode="b" horiz-adv-x="413" 
d="M136 481c4.66699 8 10.835 16.332 18.502 24.999s16.834 16.334 27.501 23.001s23.167 12.167 37.5 16.5s30.833 6.5 49.5 6.5c28 0 49.667 -6.5 65 -19.5s26.833 -31.667 34.5 -56s12.167 -54.166 13.5 -89.499s2 -75.333 2 -120c0 -36.667 -0.833008 -71.667 -2.5 -105
s-7.33398 -62.833 -17.001 -88.5s-24.334 -46.167 -44.001 -61.5s-47.5 -23 -83.5 -23s-63.5 7.16699 -82.5 21.5s-35.5 34.166 -49.5 59.499c0 -2.66699 -0.333008 -7.16699 -1 -13.5s-1.66699 -13 -3 -20s-2.83301 -14 -4.5 -21s-3.83398 -12.167 -6.50098 -15.5h-50v788
l96 17v-324zM227.001 476.999c-23.333 0 -42.998 -7 -58.998 -21s-28.333 -31.667 -37 -53v-275c7.33301 -20 18.5 -35.667 33.5 -47s31.167 -17 48.5 -17c18 0 32.167 3.66699 42.5 11s18.166 19 23.499 35s8.66602 37.167 9.99902 63.5s2 58.5 2 96.5
c0 39.333 -0.5 72.333 -1.5 99s-3.5 48 -7.5 64s-10.333 27.333 -19 34s-20.667 10 -36 10z" />
    <glyph glyph-name="c" unicode="c" horiz-adv-x="387" 
d="M210 552c28 0 51.1709 -3.16797 69.5039 -9.50098s33.166 -16.5 44.499 -30.5s19.666 -32.333 24.999 -55s8.66602 -50.334 9.99902 -83.001l-77 -12c-2.66699 41.333 -8.5 70.833 -17.5 88.5s-27.167 26.5 -54.5 26.5c-21.333 0 -37.833 -4.66699 -49.5 -14
s-20.334 -23 -26.001 -41s-9 -39.667 -10 -65s-1.5 -54 -1.5 -86s0.5 -60.833 1.5 -86.5s4 -47.5 9 -65.5s12.833 -31.833 23.5 -41.5s25.667 -14.5 45 -14.5c16.667 0 30.167 3 40.5 9s18.333 14.5 24 25.5s9.83398 24.5 12.501 40.5s4.66699 34 6 54l77 -8
c-1.33301 -24 -3.83301 -47.667 -7.5 -71s-11 -44.166 -22 -62.499s-26.833 -33.166 -47.5 -44.499s-48.334 -17 -83.001 -17c-42 0 -74.667 7.5 -98 22.5s-40.5 35.5 -51.5 61.5s-17.5 56 -19.5 90s-3 70 -3 108c0 38.667 1 75 3 109s8.83301 63.667 20.5 89
s29.667 45.5 54 60.5s58.5 22.5 102.5 22.5z" />
    <glyph glyph-name="d" unicode="d" horiz-adv-x="427" 
d="M387 0l-78.998 -0.00390625c-1.33301 4 -2.33301 9.33301 -3 16s-1.33398 13.834 -2.00098 21.501s-1.16699 15 -1.5 22s-0.5 12.833 -0.5 17.5c-10.667 -25.333 -25.834 -46.166 -45.501 -62.499s-46.5 -24.5 -80.5 -24.5c-34.667 0 -61.667 7 -81 21
s-33.833 33 -43.5 57s-15.5 52 -17.5 84s-3 66.333 -3 103c0 44.667 1.16699 85.334 3.5 122.001s8.5 68 18.5 94s25.167 46 45.5 60s48.5 21 84.5 21c29.333 0 53.333 -6.66699 72 -20s32 -28.666 40 -45.999v302l93 17v-805zM204.002 475.996
c-18.667 0 -33.168 -4.16699 -43.501 -12.5s-18.166 -21.166 -23.499 -38.499s-8.66602 -39.833 -9.99902 -67.5s-2 -60.834 -2 -99.501c0 -33.333 0.5 -62.166 1.5 -86.499s3.66699 -44.5 8 -60.5s11.166 -28 20.499 -36s22.333 -12 39 -12c16 0 29.5 2.66699 40.5 8
s20.333 12.5 28 21.5s14 19.667 19 32s9.16699 25.5 12.5 39.5v249c-8.66699 19.333 -21 34.666 -37 45.999s-33.667 17 -53 17z" />
    <glyph glyph-name="e" unicode="e" horiz-adv-x="411" 
d="M207 552c42.667 0 75.8281 -7.33496 99.4951 -22.002s41.167 -33.667 52.5 -57s18 -49.333 20 -78s3 -57 3 -85v-42h-263c0 -27.333 0.833008 -53.333 2.5 -78s5.66699 -46.5 12 -65.5s16 -34 29 -45s31.167 -16.5 54.5 -16.5c32.667 0 54.834 9.66699 66.501 29
s19.167 45.666 22.5 78.999l76 -11c-3.33301 -28 -8.66602 -52.667 -15.999 -74s-17.5 -39.166 -30.5 -53.499s-29.667 -25.166 -50 -32.499s-45.166 -11 -74.499 -11c-43.333 0 -77 7.83301 -101 23.5s-42 36.5 -54 62.5s-19.333 55.833 -22 89.5s-4 68.5 -4 104.5
c0 38.667 1.33301 75.334 4 110.001s9.83398 64.667 21.501 90s29.334 45.5 53.001 60.5s56.5 22.5 98.5 22.5zM207.994 484.998c-20 0 -35.499 -4.00098 -46.499 -12.001s-19.5 -19 -25.5 -33s-9.83301 -30.833 -11.5 -50.5s-2.83398 -41.5 -3.50098 -65.5h173v40
c0 16.667 -1.16699 32.334 -3.5 47.001s-6.5 27.5 -12.5 38.5s-14.667 19.667 -26 26s-26 9.5 -44 9.5z" />
    <glyph glyph-name="f" unicode="f" horiz-adv-x="249" 
d="M237 476l-106 -0.00195312v-476h-94v476h-43l8 67h35v76c0 36 2.33301 65.833 7 89.5s12 42.334 22 56.001s23 23.334 39 29.001s35.667 8.5 59 8.5c22.667 0 41 -3.16699 55 -9.5s24.667 -13.833 32 -22.5l-17 -67c-14 17.333 -31.333 26 -52 26
c-9.33301 0 -17.333 -1.33301 -24 -4s-12 -8.16699 -16 -16.5s-6.83301 -20.333 -8.5 -36s-2.5 -36.5 -2.5 -62.5v-67h114z" />
    <glyph glyph-name="g" unicode="g" horiz-adv-x="376" 
d="M343 378c0 -23.333 -2.33398 -45.6699 -7.00098 -67.0029s-12.334 -40.166 -23.001 -56.499s-24.5 -29.333 -41.5 -39s-37.5 -14.5 -61.5 -14.5h-18c-6 0 -11.667 0.333008 -17 1c-9.33301 -5.33301 -16 -11.5 -20 -18.5s-6 -17.167 -6 -30.5
c0 -11.333 3.66699 -22 11 -32s19.333 -15 36 -15h53c16 0 31.333 -2.83301 46 -8.5s27.834 -14.5 39.501 -26.5s20.834 -27.5 27.501 -46.5s10 -41.833 10 -68.5c0 -63.333 -12.667 -108.333 -38 -135s-65.333 -40 -120 -40h-84c-42.667 0 -74.334 11.667 -95.001 35
s-31 53 -31 89c0 44.667 9 76.834 27 96.501s46 32.5 84 38.5c-10 4 -18.833 8.33301 -26.5 13s-14 10.5 -19 17.5s-8.66699 15.5 -11 25.5s-3.5 22.333 -3.5 37c0 26 5.33301 46.5 16 61.5s26 25.167 46 30.5c-28 14 -48 34 -60 60s-18 57 -18 93
c0 20.667 2 40.834 6 60.501s11.667 37.167 23 52.5s27 27.833 47 37.5s45.667 14.5 77 14.5c11.333 0 21.833 -0.833008 31.5 -2.5s18.5 -3.83398 26.5 -6.50098c6.66699 21.333 14.5 41 23.5 59s19.167 32.333 30.5 43l56 -30
c-13.333 -9.33301 -26.166 -22.666 -38.499 -39.999s-22.5 -35 -30.5 -53c20 -15.333 33.667 -35.333 41 -60s11 -49.667 11 -75zM86.999 -66.0039c0 -18 2.16797 -32.501 6.50098 -43.501s11.166 -19.667 20.499 -26s21.333 -10.666 36 -12.999s32 -3.5 52 -3.5
c36 0 61.167 6.83301 75.5 20.5s21.5 37.167 21.5 70.5c0 32 -7.33301 53.167 -22 63.5s-38 15.5 -70 15.5c-20 0 -37.5 -1 -52.5 -3s-27.5 -6 -37.5 -12s-17.5 -14.5 -22.5 -25.5s-7.5 -25.5 -7.5 -43.5zM192 260.995c24 0 40.501 8.66699 49.501 26s13.5 47 13.5 89
c0 41.333 -4.33301 69.833 -13 85.5s-25.334 23.5 -50.001 23.5s-41.167 -8.16699 -49.5 -24.5s-12.5 -44.5 -12.5 -84.5c0 -40.667 4.16699 -70 12.5 -88s24.833 -27 49.5 -27z" />
    <glyph glyph-name="h" unicode="h" horiz-adv-x="431" 
d="M297 0v412c0 20 -5.33301 35.667 -16 47s-26.334 17 -47.001 17c-23.333 0 -42.166 -6.66699 -56.499 -20s-28.833 -35 -43.5 -65v-391h-94v788l94 17v-333c15.333 23.333 33.5 42.5 54.5 57.5s48.833 22.5 83.5 22.5c24 0 43.667 -4 59 -12s27.5 -18.833 36.5 -32.5
s15.167 -29.167 18.5 -46.5s5 -35.333 5 -54v-407h-94z" />
    <glyph glyph-name="i" unicode="i" horiz-adv-x="174" 
d="M134 0h-94v543h94v-543zM134 654h-94v130h94v-130z" />
    <glyph glyph-name="j" unicode="j" horiz-adv-x="187" 
d="M147 654h-94v130h94v-130zM53 543l93.999 0.000976562v-579c0 -36 -2.33301 -65.833 -7 -89.5s-12 -42.334 -22 -56.001s-23 -23.334 -39 -29.001s-35.667 -8.5 -59 -8.5c-22.667 0 -41 3.16699 -55 9.5s-24.667 13.833 -32 22.5l18 67
c6.66699 -9.33301 14.834 -15.666 24.501 -18.999s19.167 -5 28.5 -5c8.66699 0 16.167 1.5 22.5 4.5s11.5 9.16699 15.5 18.5s6.83301 22.833 8.5 40.5s2.5 41.167 2.5 70.5v553z" />
    <glyph glyph-name="k" unicode="k" horiz-adv-x="394" 
d="M207 298l-73 -98v-200h-94v788l94 17v-495l132 233h110l-109 -156l122 -387h-112z" />
    <glyph glyph-name="l" unicode="l" horiz-adv-x="174" 
d="M40 0v788l94 17v-805h-94z" />
    <glyph glyph-name="m" unicode="m" horiz-adv-x="638" 
d="M368 0h-93.0039v412c0 42.667 -20 64 -60 64c-15.333 0 -29.166 -6.16699 -41.499 -18.5s-25.5 -34.5 -39.5 -66.5v-391h-94v543h79c1.33301 -12 3 -24.667 5 -38s3.33301 -27 4 -41c15.333 28.667 32.333 50.5 51 65.5s42 22.5 70 22.5c34 0 59.5 -8.16699 76.5 -24.5
s28.5 -36.166 34.5 -59.499c15.333 27.333 32 48.166 50 62.499s41 21.5 69 21.5c24 0 43.667 -4 59 -12s27.5 -18.833 36.5 -32.5s15.167 -29.167 18.5 -46.5s5 -35.333 5 -54v-407h-93v397c0 25.333 -4.16699 44.833 -12.5 58.5s-24.166 20.5 -47.499 20.5
c-15.333 0 -28.666 -5.83301 -39.999 -17.5s-23.666 -32.5 -36.999 -62.5v-396z" />
    <glyph glyph-name="n" unicode="n" horiz-adv-x="431" 
d="M119 543c0.666992 -4 1.49902 -9.33301 2.49902 -16s2 -14 3 -22s1.83301 -15.667 2.5 -23s1 -13.333 1 -18c16 28 35.333 49.667 58 65s51.334 23 86.001 23c24 0 43.667 -4 59 -12s27.5 -18.833 36.5 -32.5s15.167 -29.167 18.5 -46.5s5 -35.333 5 -54v-407h-94v412
c0 20 -5.33301 35.667 -16 47s-26.334 17 -47.001 17c-23.333 0 -42.166 -6.66699 -56.499 -20s-28.833 -35 -43.5 -65v-391h-94v543h79v0z" />
    <glyph glyph-name="o" unicode="o" horiz-adv-x="429" 
d="M214 552c46 0 81.501 -7.66699 106.501 -23s43.333 -36 55 -62s18.5 -56.167 20.5 -90.5s3 -70.166 3 -107.499s-1 -72.833 -3 -106.5s-8.83301 -63.334 -20.5 -89.001s-30 -46.167 -55 -61.5s-60.5 -23 -106.5 -23s-81.333 7.66699 -106 23s-42.834 35.833 -54.501 61.5
s-18.5 55.334 -20.5 89.001s-3 69.167 -3 106.5s1 73.166 3 107.499s8.83301 64.5 20.5 90.5s30 46.667 55 62s60.167 23 105.5 23zM214.001 476c-22 0 -39 -4 -51 -12s-21 -20.5 -27 -37.5s-9.5 -38.5 -10.5 -64.5s-1.5 -57 -1.5 -93s0.5 -66.833 1.5 -92.5
s4.5 -47 10.5 -64s15 -29.5 27 -37.5s29 -12 51 -12s39 4 51 12s21 20.5 27 37.5s9.5 38.333 10.5 64s1.5 56.5 1.5 92.5s-0.5 67 -1.5 93s-4.5 47.5 -10.5 64.5s-15 29.5 -27 37.5s-29 12 -51 12z" />
    <glyph glyph-name="p" unicode="p" horiz-adv-x="423" 
d="M40 543l79.001 0.000976562c2.66699 -26 4.66699 -52 6 -78c11.333 25.333 26.833 46.333 46.5 63s46.5 25 80.5 25c34.667 0 61.667 -7 81 -21s33.666 -33.167 42.999 -57.5s15.166 -52.5 17.499 -84.5s3.5 -66 3.5 -102c0 -45.333 -1.33301 -86.333 -4 -123
s-9 -67.834 -19 -93.501s-25.167 -45.5 -45.5 -59.5s-48.166 -21 -83.499 -21c-12 0 -24 1.83301 -36 5.5s-23 8.66699 -33 15s-18.833 13.5 -26.5 21.5s-13.5 16 -17.5 24v-276h-92v762zM223.001 67.001c18 0 32.332 4.16797 42.999 12.501s18.5 21.333 23.5 39
s8.16699 40.167 9.5 67.5s2 60 2 98c0 33.333 -0.5 62.166 -1.5 86.499s-3.66699 44.5 -8 60.5s-11.166 28 -20.499 36s-22.333 12 -39 12c-16 0 -29.5 -2.66699 -40.5 -8s-20.333 -12.5 -28 -21.5s-14 -19.833 -19 -32.5s-9.16699 -26 -12.5 -40v-248
c6 -14.667 16.833 -28.667 32.5 -42s35.167 -20 58.5 -20z" />
    <glyph glyph-name="q" unicode="q" horiz-adv-x="412" 
d="M276 60c-4.66699 -8 -10.835 -16.1709 -18.502 -24.5039s-17 -15.666 -28 -21.999s-23.667 -11.666 -38 -15.999s-30.5 -6.5 -48.5 -6.5c-28 0 -49.667 6.5 -65 19.5s-26.666 31.667 -33.999 56s-11.666 54 -12.999 89s-2 74.833 -2 119.5
c0 36.667 0.833008 71.834 2.5 105.501s7.16699 63.334 16.5 89.001s23.833 46.167 43.5 61.5s47.167 23 82.5 23c36.667 0 64.5 -7.5 83.5 -22.5s35.5 -34.833 49.5 -59.5c0 9.33301 1.16699 20.5 3.5 33.5s5.83301 25.5 10.5 37.5h51v-762h-96v279zM184.999 64.9961
c23.333 0 43.167 6.83203 59.5 20.499s28.833 31.167 37.5 52.5v276c-9.33301 21.333 -21.333 37.333 -36 48s-30.334 16 -47.001 16c-18 0 -32.167 -3.66699 -42.5 -11s-18.166 -19 -23.499 -35s-8.83301 -37.167 -10.5 -63.5s-2.5 -58.5 -2.5 -96.5
c0 -39.333 0.5 -72.166 1.5 -98.499s3.66699 -47.5 8 -63.5s10.833 -27.5 19.5 -34.5s20.667 -10.5 36 -10.5z" />
    <glyph glyph-name="r" unicode="r" horiz-adv-x="280" 
d="M114 543c5.33301 -28.667 7.99902 -58.333 7.99902 -89c13.333 28 33.333 49.833 60 65.5s57.667 23.5 93 23.5l-8 -94c-23.333 0 -42.666 -2.33301 -57.999 -7s-28.166 -11.5 -38.499 -20.5s-18.333 -20.5 -24 -34.5s-9.83398 -30 -12.501 -48v-339h-94v543h74z" />
    <glyph glyph-name="s" unicode="s" horiz-adv-x="357" 
d="M181 552c28 0 50.499 -2.00293 67.499 -6.00293s30.5 -10.833 40.5 -20.5s17.333 -22.5 22 -38.5s9 -35.667 13 -59l-74 -14c-3.33301 22.667 -8.5 38.834 -15.5 48.501s-21.833 14.5 -44.5 14.5c-19.333 0 -34.666 -4.16699 -45.999 -12.5s-17 -23.5 -17 -45.5
c0 -20 3.83301 -37 11.5 -51s22.167 -27 43.5 -39l60.5 -32.5c18.333 -9.66699 34 -20.667 47 -33s23.167 -27.5 30.5 -45.5s11 -41.333 11 -70c0 -52 -12.5 -91.833 -37.5 -119.5s-65.833 -41.5 -122.5 -41.5c-50.667 0 -88.334 13 -113.001 39s-37 69.333 -37 130l81 12
c0 -14.667 1 -28.5 3 -41.5s5.5 -24.5 10.5 -34.5s11.833 -17.833 20.5 -23.5s20 -8.5 34 -8.5c32 0 53 7 63 21s15 33.333 15 58c0 30 -7.5 52.667 -22.5 68s-35.833 29.333 -62.5 42c-20 9.33301 -37.667 19 -53 29s-28.166 21.333 -38.499 34s-18.333 27.334 -24 44.001
s-8.5 36.667 -8.5 60c0 20.667 2.16699 39.334 6.5 56.001s12 31 23 43s25.5 21.167 43.5 27.5s41 9.5 69 9.5z" />
    <glyph glyph-name="t" unicode="t" horiz-adv-x="274" 
d="M134 543h136.001l-8 -67h-128v-337c0 -20.667 4.66699 -36.834 14 -48.501s19.333 -17.5 30 -17.5c14.667 0 26.167 3.83301 34.5 11.5s16.166 19.167 23.499 34.5l39 -58c-8.66699 -17.333 -23 -32.666 -43 -45.999s-46 -20 -78 -20c-36 0 -64 10.5 -84 31.5
s-30 54.5 -30 100.5v349h-41l7 67h34v137l94 16v-153z" />
    <glyph glyph-name="u" unicode="u" horiz-adv-x="412" 
d="M304 0c-1.33301 3.33301 -2.5 8.5 -3.5 15.5l-3 22c-1 7.66699 -1.66699 15.167 -2 22.5s-0.5 13.333 -0.5 18c-14 -28 -31.5 -49.5 -52.5 -64.5s-48.833 -22.5 -83.5 -22.5c-24 0 -43.667 4 -59 12s-27.5 18.833 -36.5 32.5s-15.167 29.167 -18.5 46.5s-5 35.333 -5 54
v407h93v-413c0 -20 5 -35.667 15 -47s25 -17 45 -17c23.333 0 42 6.66699 56 20s27 35 39 65v392h95v-543h-79v0z" />
    <glyph glyph-name="v" unicode="v" horiz-adv-x="371" 
d="M194 147l80 396h88l-133 -543h-80l-140 543h104z" />
    <glyph glyph-name="w" unicode="w" horiz-adv-x="525" 
d="M226 543h84l62 -389l58 389h86l-108 -543h-74l-66 399l-68 -399h-86l-105 543h97l57 -389z" />
    <glyph glyph-name="x" unicode="x" horiz-adv-x="342" 
d="M91 0h-82l117 290l-102 253h85l64 -162l59 162h78l-98 -246l121 -297h-88l-80 205z" />
    <glyph glyph-name="y" unicode="y" horiz-adv-x="370" 
d="M196 148l75.999 395h89l-141 -583c-6 -25.333 -12.667 -48.833 -20 -70.5s-16.833 -40.5 -28.5 -56.5s-26.167 -28.667 -43.5 -38s-38.666 -14 -63.999 -14c-14 0 -26.5 1.16699 -37.5 3.5s-21.833 6.83301 -32.5 13.5l40 79c4.66699 -3.33301 9.5 -6 14.5 -8
s10.167 -3 15.5 -3c14 0 28.833 10 44.5 30s29.167 56 40.5 108l-141 539h104z" />
    <glyph glyph-name="z" unicode="z" horiz-adv-x="324" 
d="M41 543h251v-58l-184 -416h204v-69h-299v58l180 415h-152v70z" />
    <glyph glyph-name="braceleft" unicode="{" horiz-adv-x="339" 
d="M258 761c-12 0 -22.835 -1.66797 -32.502 -5.00098s-17.667 -9.83301 -24 -19.5s-11.166 -23.5 -14.499 -41.5s-5 -41.667 -5 -71v-146c0 -37.333 -7.16699 -66.166 -21.5 -86.499s-36.166 -35.5 -65.499 -45.5c32 -14 54.5 -32 67.5 -54s19.5 -52.333 19.5 -91v-150
c0 -32 1.66699 -57.5 5 -76.5s8.33301 -33.167 15 -42.5s14.834 -15.333 24.501 -18s20.5 -4 32.5 -4h50v-63h-56c-17.333 0 -34.5 2.33301 -51.5 7s-32.333 13 -46 25s-24.834 28 -33.501 48s-13 45.667 -13 77v168c0 50 -4.5 85.333 -13.5 106s-25.167 31 -48.5 31h-37v72
h37c25.333 0 42 10.5 50 31.5s12 53.167 12 96.5v174c0 26.667 4.16699 49 12.5 67s19.166 32.333 32.499 43s28.333 18.167 45 22.5s33.334 6.5 50.001 6.5h60v-61h-51z" />
    <glyph glyph-name="bar" unicode="|" horiz-adv-x="130" 
d="M30 819h71v-1003h-71v1003z" />
    <glyph glyph-name="braceright" unicode="}" horiz-adv-x="341" 
d="M30 761l0.00195312 61h60c16.667 0 33.334 -2.16699 50.001 -6.5s31.667 -11.833 45 -22.5s24.166 -25 32.499 -43s12.5 -40.333 12.5 -67v-176c0 -42 4 -73.5 12 -94.5s24.333 -31.5 49 -31.5h38v-72h-38c-22 0 -37.667 -10 -47 -30s-14 -54 -14 -102v-173
c0 -31.333 -4.33301 -57 -13 -77s-19.834 -36 -33.501 -48s-28.834 -20.333 -45.501 -25s-33.334 -7 -50.001 -7h-58v63h49c12.667 0 23.667 1.33301 33 4s17.333 8.66699 24 18s11.667 23.5 15 42.5s5 44.5 5 76.5v150c0 38 7.16699 68.333 21.5 91s36.166 40 65.499 52
c-28 10 -49.5 26.5 -64.5 49.5s-22.5 53.5 -22.5 91.5v139c0 30.667 -1.66699 55 -5 73s-8.16602 31.667 -14.499 41s-14.166 15.5 -23.499 18.5s-20.333 4.5 -33 4.5h-50z" />
    <glyph glyph-name="asciitilde" unicode="~" horiz-adv-x="562" 
d="M30 328c13.333 17.333 30.668 32.667 52.001 46s47 20 77 20c23.333 0 45.333 -3 66 -9s40.5 -12.833 59.5 -20.5s37.5 -14.5 55.5 -20.5s36.333 -9 55 -9s39 7.16699 61 21.5s47.333 37.833 76 70.5v-92c-19.333 -21.333 -40 -37.5 -62 -48.5s-48.333 -16.5 -79 -16.5
c-20.667 0 -40.667 3 -60 9s-38.333 12.833 -57 20.5s-37.334 14.5 -56.001 20.5s-37.334 9 -56.001 9c-17.333 0 -37.166 -7.66699 -59.499 -23s-46.5 -39 -72.5 -71v93z" />
    <glyph glyph-name="exclamdown" unicode="&#xa1;" horiz-adv-x="176" 
d="M29 -219l19 549h80l19 -549h-118zM41 563h94v-130h-94v130z" />
    <glyph glyph-name="cent" unicode="&#xa2;" horiz-adv-x="385" 
d="M175 0l-0.000976562 99.9961c-35.333 3.33301 -62.833 13 -82.5 29s-34.167 36.667 -43.5 62s-14.833 54.333 -16.5 87s-2.5 67 -2.5 103c0 35.333 0.833008 69 2.5 101s7.16699 60.5 16.5 85.5s23.666 45.5 42.999 61.5s47 26 83 30v86h65v-86
c21.333 -2 39.333 -6.83301 54 -14.5s26.5 -18.5 35.5 -32.5s15.833 -31.667 20.5 -53s7.66699 -46.666 9 -75.999l-77 -11c-1.33301 22 -3.5 40 -6.5 54s-7.33301 25.333 -13 34s-13.167 14.667 -22.5 18s-21 5 -35 5c-19.333 0 -34.5 -4.66699 -45.5 -14
s-19.167 -22.666 -24.5 -39.999s-8.66602 -38.5 -9.99902 -63.5s-2 -53.167 -2 -84.5c0 -32 0.5 -60.833 1.5 -86.5s4 -47.5 9 -65.5s12.833 -31.833 23.5 -41.5s25.667 -14.5 45 -14.5c16.667 0 30.167 2.83301 40.5 8.5s18.333 14 24 25s9.83398 24.667 12.501 41
s4.66699 34.833 6 55.5l77 -10c-1.33301 -21.333 -3.5 -42.666 -6.5 -63.999s-8.83301 -40.666 -17.5 -57.999s-20.667 -32.333 -36 -45s-36 -21 -62 -25v-101h-65z" />
    <glyph glyph-name="sterling" unicode="&#xa3;" horiz-adv-x="469" 
d="M264 306c4.66699 -14 7.8291 -29.168 9.49609 -45.501s2.5 -32.166 2.5 -47.499c0 -23.333 -2.5 -47.333 -7.5 -72s-12.5 -47.667 -22.5 -69c11.333 -9.33301 22.5 -16.333 33.5 -21s22.5 -7 34.5 -7c29.333 0 50.833 9.16699 64.5 27.5s21.167 42.166 22.5 71.499
l51 -14c2 -11.333 3 -22 3 -32c0 -19.333 -3.66699 -36.666 -11 -51.999s-16.833 -28.5 -28.5 -39.5s-25 -19.333 -40 -25s-29.833 -8.5 -44.5 -8.5c-25.333 0 -47 5.83301 -65 17.5s-35.667 25.167 -53 40.5c-13.333 -14.667 -29.333 -26.167 -48 -34.5
s-41 -12.5 -67 -12.5c-18 0 -32.5 2.16699 -43.5 6.5s-19.667 10.333 -26 18s-10.5 16.334 -12.5 26.001s-3 20.167 -3 31.5c0 10 1.33301 19.667 4 29s7.33398 17.833 14.001 25.5s15.334 13.834 26.001 18.501s24 7 40 7c18.667 0 35.834 -4.16699 51.501 -12.5
s30.167 -17.5 43.5 -27.5c4 11.333 6.83301 23.666 8.5 36.999s2.5 26.333 2.5 39c0 23.333 -2.16699 45.166 -6.5 65.499s-9.16602 40.166 -14.499 59.499h-108l8 64h80l-36.5 104.5c-11.667 35 -17.5 73.5 -17.5 115.5c0 30 2.5 56 7.5 78s13.5 40 25.5 54
s27.667 24.5 47 31.5s43.333 10.5 72 10.5c36 0 63.833 -4.33301 83.5 -13s34.5 -22.167 44.5 -40.5s16.5 -41.5 19.5 -69.5s5.5 -61.333 7.5 -100l-80 -11c-1.33301 22.667 -2.83301 43.834 -4.5 63.501s-5 36.667 -10 51s-12.167 25.5 -21.5 33.5s-22.333 12 -39 12
c-28 0 -46.333 -7.83301 -55 -23.5s-13 -41.5 -13 -77.5c0 -20.667 1.83301 -40.334 5.5 -59.001s8.5 -37 14.5 -55s12.333 -35.667 19 -53s13 -34.666 19 -51.999h139l-8 -64h-117zM104.995 99.999c-14 0 -24.332 -3.49902 -30.999 -10.499s-10 -15.5 -10 -25.5
c0 -8.66699 3.16699 -16.834 9.5 -24.501s16.166 -11.5 29.499 -11.5c16.667 0 30.5 3.33301 41.5 10s20.5 15 28.5 25c-9.33301 8 -20 16.167 -32 24.5s-24 12.5 -36 12.5z" />
    <glyph glyph-name="currency" unicode="&#xa4;" horiz-adv-x="607" 
d="M501 115l-35.5 36.5l-34.5 36.5c-18 -13.333 -37.833 -23.833 -59.5 -31.5s-44.167 -11.5 -67.5 -11.5c-24 0 -46.833 3.83301 -68.5 11.5s-41.167 18.167 -58.5 31.5l-71 -73l-45 47l72 70c-28.667 36 -43 78.667 -43 128c0 48.667 14.333 91.334 43 128.001l-36.5 34
l-34.5 34l45 47l69 -72c35.333 29.333 78 44 128 44c24 0 46.833 -3.83301 68.5 -11.5s41.5 -18.5 59.5 -32.5l68 72l45 -47l-70 -68c14 -18 24.833 -37.833 32.5 -59.5s11.5 -44.5 11.5 -68.5c0 -24.667 -4 -47.834 -12 -69.501s-18.667 -41.167 -32 -58.5l71 -70zM476 360
c0 24 -4.5 46.333 -13.5 67s-21.333 38.834 -37 54.501s-33.834 28 -54.501 37s-43 13.5 -67 13.5s-46.333 -4.5 -67 -13.5s-38.667 -21.333 -54 -37s-27.5 -33.834 -36.5 -54.501s-13.5 -43 -13.5 -67s4.5 -46.333 13.5 -67s21.167 -38.667 36.5 -54s33.333 -27.5 54 -36.5
s43 -13.5 67 -13.5s46.333 4.5 67 13.5s38.834 21.167 54.501 36.5s28 33.333 37 54s13.5 43 13.5 67z" />
    <glyph glyph-name="yen" unicode="&#xa5;" horiz-adv-x="322" 
d="M124 314v84l-112 347h76l79 -258l77 258h69l-112 -347v-84h76v-58h-76v-93h76v-58h-76v-105h-77v105h-75v58h75v93h-75v58h75z" />
    <glyph glyph-name="brokenbar" unicode="&#xa6;" horiz-adv-x="130" 
d="M30 222h71v-406h-71v406zM101 458h-71v361h71v-361z" />
    <glyph glyph-name="section" unicode="&#xa7;" horiz-adv-x="361" 
d="M186 782c28 0 50.5 -2.00391 67.5 -6.00391s30.5 -10.833 40.5 -20.5s17.333 -22.5 22 -38.5s8.66699 -35.667 12 -59l-74 -14c-3.33301 22.667 -8.5 38.834 -15.5 48.501s-21.833 14.5 -44.5 14.5c-19.333 0 -34.5 -4.16699 -45.5 -12.5s-16.5 -23.5 -16.5 -45.5
c0 -20 3.83301 -37.5 11.5 -52.5s24.834 -29.167 51.501 -42.5l58 -28c17.333 -8 32 -17.833 44 -29.5s21.333 -26.667 28 -45s10 -42.833 10 -73.5c0 -36 -6 -66.333 -18 -91s-31.667 -43 -59 -55c11.333 -7.33301 21.5 -15 30.5 -23s16.833 -17.333 23.5 -28
s11.667 -23 15 -37s5 -30.667 5 -50c0 -51.333 -12.5 -91 -37.5 -119s-65.833 -42 -122.5 -42c-50.667 0 -88.334 13 -113.001 39s-37 69.333 -37 130l81 12c0 -13.333 1.16699 -26.333 3.5 -39s6 -24.167 11 -34.5s11.833 -18.666 20.5 -24.999s19.667 -9.5 33 -9.5
c32 0 53 7.16699 63 21.5s15 33.833 15 58.5c0 30 -7.5 53.5 -22.5 70.5s-35.167 31.167 -60.5 42.5c-20 8.66699 -37.667 17.834 -53 27.501s-28.5 20.834 -39.5 33.501s-19.333 27.167 -25 43.5s-8.5 35.833 -8.5 58.5c0 17.333 1.66699 33.5 5 48.5
s8.83301 28.167 16.5 39.5s18 20.666 31 27.999s29.167 12.666 48.5 15.999c-31.333 16.667 -55.5 36.334 -72.5 59.001s-25.5 53.667 -25.5 93c0 20.667 2.16699 39.334 6.5 56.001s12 31 23 43s25.667 21.167 44 27.5s41.5 9.5 69.5 9.5zM190 443.996
c-23.333 0 -40.333 -5.66699 -51 -17s-16 -32 -16 -62c0 -28 4 -49.333 12 -64s25.333 -22 52 -22c27.333 0 45.5 7 54.5 21s13.5 35 13.5 63c0 32 -5.33301 53.5 -16 64.5s-27 16.5 -49 16.5z" />
    <glyph glyph-name="dieresis" unicode="&#xa8;" horiz-adv-x="305" 
d="M112 613h-82v120h82v-120zM275 613h-82v120h82v-120z" />
    <glyph glyph-name="ordfeminine" unicode="&#xaa;" horiz-adv-x="279" 
d="M137 752c22.667 0 40.999 -2.66406 54.999 -7.99707s24.833 -13.166 32.5 -23.499s12.834 -23.333 15.501 -39s4 -33.834 4 -54.501v-158c0 -7.33301 2.16699 -12 6.5 -14s9.83301 -3 16.5 -3l-6 -51h-8c-18.667 0 -32.5 3.33301 -41.5 10s-14.833 16.334 -17.5 29.001
c-6 -12 -15.5 -22.167 -28.5 -30.5s-31.167 -12.5 -54.5 -12.5c-16 0 -29.167 2.83301 -39.5 8.5s-18.5 13.167 -24.5 22.5s-10.333 19.833 -13 31.5s-4 23.5 -4 35.5c0 22.667 1.33301 41.667 4 57s9 27.666 19 36.999s24.833 16.166 44.5 20.499s46.167 6.5 79.5 6.5v18
c0 22 -2.5 37 -7.5 45s-16.167 12 -33.5 12c-15.333 0 -25.5 -4.66699 -30.5 -14s-8.16699 -24 -9.5 -44l-56 5c1.33301 20 3.33301 37.167 6 51.5s7.5 26.166 14.5 35.499s16.5 16.166 28.5 20.499s28 6.5 48 6.5zM125.999 453.003c13.333 0 23.832 3.99902 31.499 11.999
s14.167 21.333 19.5 40v64c-17.333 -0.666992 -31.5 -2.16699 -42.5 -4.5s-19.5 -6.16602 -25.5 -11.499s-10.167 -12.5 -12.5 -21.5s-3.5 -20.167 -3.5 -33.5c0 -14 2.83301 -25 8.5 -33s13.834 -12 24.501 -12z" />
    <glyph glyph-name="guillemotleft" unicode="&#xab;" horiz-adv-x="331" 
d="M298 113l-153 178l153 180l24 -26l-110 -154l110 -153zM164 113l-153 178l153 180l24 -26l-110 -154l110 -153z" />
    <glyph glyph-name="logicalnot" unicode="&#xac;" horiz-adv-x="480" 
d="M366 0v397h-331v82h409v-479h-78z" />
    <glyph glyph-name="macron" unicode="&#xaf;" horiz-adv-x="410" 
d="M381 690v-65h-352v65h352z" />
    <glyph glyph-name="degree" unicode="&#xb0;" horiz-adv-x="257" 
d="M129 756c35.333 0 60.668 -10.167 76.001 -30.5s23 -45.5 23 -75.5c0 -29.333 -7.83301 -54.333 -23.5 -75s-40.834 -31 -75.501 -31c-35.333 0 -60.666 10.333 -75.999 31s-23 45.667 -23 75c0 30 7.66699 55.167 23 75.5s40.666 30.5 75.999 30.5zM129.002 726
c-25.333 0 -43 -7.33301 -53 -22s-15 -32.667 -15 -54c0 -20.667 5 -38.5 15 -53.5s27.667 -22.5 53 -22.5c24 0 41.333 7.5 52 22.5s16 32.833 16 53.5c0 21.333 -5.33301 39.333 -16 54s-28 22 -52 22z" />
    <glyph glyph-name="plusminus" unicode="&#xb1;" horiz-adv-x="530" 
d="M233 340h-203v63h203v204h63v-204h204v-63h-204v-204h-63v204zM30 1v63h470v-63h-470z" />
    <glyph glyph-name="twosuperior" unicode="&#xb2;" horiz-adv-x="287" 
d="M140 816c-17.333 0 -28.667 -8.16895 -34 -24.502s-9.33301 -45.5 -12 -87.5l-64 9c1.33301 26.667 3 50.334 5 71.001s6.66699 37.667 14 51s18.5 23.5 33.5 30.5s35.833 10.5 62.5 10.5c20 0 36.667 -2.5 50 -7.5s24 -13 32 -24s13.5 -25 16.5 -42
s4.5 -37.833 4.5 -62.5c0 -27.333 -4 -54 -12 -80s-18.167 -51 -30.5 -75s-25.833 -46.167 -40.5 -66.5s-29 -38.5 -43 -54.5h135l-3 -60h-221v56c18 16.667 35.833 35.834 53.5 57.501s33.5 44.5 47.5 68.5s25.333 49.167 34 75.5s13 52.5 13 78.5
c0 28 -3.33301 47.667 -10 59s-17 17 -31 17z" />
    <glyph glyph-name="threesuperior" unicode="&#xb3;" horiz-adv-x="293" 
d="M145 876c24.667 0 44.001 -3.16309 58.001 -9.49609s24.5 -15.333 31.5 -27s11.5 -25.5 13.5 -41.5s3 -33.667 3 -53c0 -30 -3.66699 -51.667 -11 -65s-18.333 -24 -33 -32c20 -5.33301 34.333 -16 43 -32s13 -40.667 13 -74c0 -20 -0.833008 -38.833 -2.5 -56.5
s-6.5 -33.167 -14.5 -46.5s-20 -23.833 -36 -31.5s-38 -11.5 -66 -11.5c-22 0 -39.833 2.5 -53.5 7.5s-24.834 12.167 -33.501 21.5s-14.834 20.666 -18.501 33.999s-6.5 28.666 -8.5 45.999l61 19c3.33301 -22 8.33301 -38.667 15 -50s19 -17 37 -17
c22.667 0 37.167 7.33301 43.5 22s9.5 37 9.5 67c0 23.333 -3.16699 40.666 -9.5 51.999s-21.166 17 -44.499 17h-40l6 59h34c16 0 27.5 4.5 34.5 13.5s10.5 26.167 10.5 51.5c0 30.667 -3.33301 51.167 -10 61.5s-17.334 15.5 -32.001 15.5s-24.667 -4.83301 -30 -14.5
s-9.33301 -28.167 -12 -55.5l-64 7c1.33301 22.667 3.83301 42 7.5 58s9.33398 28.667 17.001 38s18 16.166 31 20.499s29.833 6.5 50.5 6.5z" />
    <glyph glyph-name="acute" unicode="&#xb4;" horiz-adv-x="271" 
d="M262 697l-178 -105l-34 38l162 126z" />
    <glyph glyph-name="mu" unicode="&#xb5;" horiz-adv-x="375" 
d="M40 -219l0.00195312 762.001h73v-436c3.33301 -18.667 11.166 -31.5 23.499 -38.5s27.166 -10.5 44.499 -10.5c22 0 38.833 8.66699 50.5 26s21.167 38.666 28.5 63.999v395h75v-543h-56c-3.33301 10 -5.5 18.833 -6.5 26.5s-1.5 18.167 -1.5 31.5
c-10 -21.333 -22.667 -38 -38 -50s-33.333 -18 -54 -18c-17.333 0 -30.5 2.33301 -39.5 7s-17.833 11 -26.5 19v-235h-73z" />
    <glyph glyph-name="paragraph" unicode="&#xb6;" horiz-adv-x="467" 
d="M169 524c-47.333 3.33301 -81.665 15 -102.998 35s-32 44.333 -32 73c0 15.333 3 29.833 9 43.5s15.5 25.667 28.5 36s29.167 18.5 48.5 24.5s42.666 9 69.999 9h265l-46 -88v-800h-75v665h-89v-520c0 -29.333 -4 -53.5 -12 -72.5s-18.833 -34.167 -32.5 -45.5
s-29.334 -19.333 -47.001 -24s-36.5 -7 -56.5 -7c-18.667 0 -35.334 2.66699 -50.001 8s-26 11.333 -34 18l15 55c8.66699 -6 18.334 -10.833 29.001 -14.5s22 -5.5 34 -5.5s22.667 1.16699 32 3.5s17.5 7 24.5 14s12.333 16.5 16 28.5s5.5 28 5.5 48v516z" />
    <glyph glyph-name="periodcentered" unicode="&#xb7;" horiz-adv-x="153" 
d="M124 307h-94v130h94v-130z" />
    <glyph glyph-name="cedilla" unicode="&#xb8;" horiz-adv-x="231" 
d="M91 5l35.001 0.000976562l-3 -48c29.333 0 49.666 -7.16699 60.999 -21.5s17 -33.166 17 -56.499s-9.33301 -41.5 -28 -54.5s-41.667 -19.5 -69 -19.5c-25.333 0 -50 5.33301 -74 16l12 30c18 -7.33301 34.667 -11 50 -11c16 0 29.667 4 41 12s17 20.333 17 37
c0 17.333 -5.83301 29.166 -17.5 35.499s-29.5 10.166 -53.5 11.499z" />
    <glyph glyph-name="onesuperior" unicode="&#xb9;" horiz-adv-x="199" 
d="M30 811c22.667 3.33301 40.832 10.5 54.499 21.5s25.834 25.5 36.501 43.5h48v-472h-72v371c-7.33301 -6 -16 -11.167 -26 -15.5s-21 -6.5 -33 -6.5z" />
    <glyph glyph-name="ordmasculine" unicode="&#xba;" horiz-adv-x="298" 
d="M149 752c29.333 0 52 -4.83301 68 -14.5s27.833 -22.667 35.5 -39s12.167 -35.166 13.5 -56.499s2 -43.666 2 -66.999s-0.666992 -45.833 -2 -67.5s-5.83301 -40.667 -13.5 -57s-19.5 -29.333 -35.5 -39s-38.667 -14.5 -68 -14.5s-52.166 4.83301 -68.499 14.5
s-28.166 22.667 -35.499 39s-11.666 35.333 -12.999 57s-2 44.167 -2 67.5s0.666992 45.666 2 66.999s5.66602 40.166 12.999 56.499s19.166 29.333 35.499 39s39.166 14.5 68.499 14.5zM149 694c-24 0 -38.667 -9.66699 -44 -29s-8 -49.333 -8 -90
c0 -41.333 2.66699 -71.666 8 -90.999s20 -29 44 -29c23.333 0 37.666 9.66699 42.999 29s8 49.666 8 90.999c0 40.667 -2.66699 70.667 -8 90s-19.666 29 -42.999 29z" />
    <glyph glyph-name="guillemotright" unicode="&#xbb;" horiz-adv-x="331" 
d="M11 138l110 153l-110 154l24 26l153 -180l-153 -178zM145 138l110 153l-110 154l24 26l153 -180l-153 -178z" />
    <glyph glyph-name="onequarter" unicode="&#xbc;" horiz-adv-x="714" 
d="M145 -100l286 882h70l-288 -882h-68zM43 728c22.667 3.33301 40.832 10.5 54.499 21.5s25.834 25.5 36.501 43.5h48v-472h-72v371c-7.33301 -6 -16 -11.167 -26 -15.5s-21 -6.5 -33 -6.5zM422.998 57l128 324h81v-312h26l-6 -61h-20v-91h-72v91h-137v49zM559.998 69v181
l-73 -181h73z" />
    <glyph glyph-name="onehalf" unicode="&#xbd;" horiz-adv-x="716" 
d="M145 -100l286 882h70l-288 -882h-68zM43 728c22.667 3.33301 40.832 10.5 54.499 21.5s25.834 25.5 36.501 43.5h48v-472h-72v371c-7.33301 -6 -16 -11.167 -26 -15.5s-21 -6.5 -33 -6.5zM560.998 329c-17.333 0 -28.667 -8.16895 -34 -24.502s-9.33301 -45.5 -12 -87.5
l-64 9c1.33301 26.667 3 50.334 5 71.001s6.66699 37.667 14 51s18.5 23.5 33.5 30.5s35.833 10.5 62.5 10.5c20 0 36.667 -2.5 50 -7.5s24 -13 32 -24s13.5 -25 16.5 -42s4.5 -37.833 4.5 -62.5c0 -27.333 -4 -54 -12 -80s-18.167 -51 -30.5 -75
s-25.833 -46.167 -40.5 -66.5s-29 -38.5 -43 -54.5h135l-3 -60h-221v56c18 16.667 35.833 35.834 53.5 57.501s33.5 44.5 47.5 68.5s25.333 49.167 34 75.5s13 52.5 13 78.5c0 28 -3.33301 47.667 -10 59s-17 17 -31 17z" />
    <glyph glyph-name="threequarters" unicode="&#xbe;" horiz-adv-x="714" 
d="M186 -100l286 882h70l-288 -882h-68zM423 57l128 324h81v-312h26l-6 -61h-20v-91h-72v91h-137v49zM560 69v181l-73 -181h73zM158 793c24.667 0 44.001 -3.16309 58.001 -9.49609s24.5 -15.333 31.5 -27s11.5 -25.5 13.5 -41.5s3 -33.667 3 -53
c0 -30 -3.66699 -51.667 -11 -65s-18.333 -24 -33 -32c20 -5.33301 34.333 -16 43 -32s13 -40.667 13 -74c0 -20 -0.833008 -38.833 -2.5 -56.5s-6.5 -33.167 -14.5 -46.5s-20 -23.833 -36 -31.5s-38 -11.5 -66 -11.5c-22 0 -39.833 2.5 -53.5 7.5
s-24.834 12.167 -33.501 21.5s-14.834 20.666 -18.501 33.999s-6.5 28.666 -8.5 45.999l61 19c3.33301 -22 8.33301 -38.667 15 -50s19 -17 37 -17c22.667 0 37.167 7.33301 43.5 22s9.5 37 9.5 67c0 23.333 -3.16699 40.666 -9.5 51.999s-21.166 17 -44.499 17h-40l6 59h34
c16 0 27.5 4.5 34.5 13.5s10.5 26.167 10.5 51.5c0 30.667 -3.33301 51.167 -10 61.5s-17.334 15.5 -32.001 15.5s-24.667 -4.83301 -30 -14.5s-9.33301 -28.167 -12 -55.5l-64 7c1.33301 22.667 3.83301 42 7.5 58s9.33398 28.667 17.001 38s18 16.166 31 20.499
s29.833 6.5 50.5 6.5z" />
    <glyph glyph-name="questiondown" unicode="&#xbf;" horiz-adv-x="375" 
d="M115 -33c0 -37.333 4.33301 -64.666 13 -81.999s27.667 -26 57 -26c16.667 0 30.167 3.33301 40.5 10s18.333 17 24 31s9.66699 31.333 12 52s4.16602 45 5.49902 73l89 -12c-2 -40.667 -5.16699 -75.5 -9.5 -104.5s-12.666 -53 -24.999 -72s-29.666 -33 -51.999 -42
s-52.166 -13.5 -89.499 -13.5c-33.333 0 -60.5 3.5 -81.5 10.5s-37.5 17.833 -49.5 32.5s-20.333 33.667 -25 57s-7 51.666 -7 84.999c0 28 3.83301 52.667 11.5 74s17.167 40.666 28.5 57.999s23.666 33.333 36.999 48s25.666 29.667 36.999 45s20.833 31.5 28.5 48.5
s11.5 36.5 11.5 58.5c0 18.667 -3 37 -9 55h78c5.33301 -9.33301 9 -19.333 11 -30s3 -22 3 -34c0 -24 -3.5 -45.667 -10.5 -65s-15.5 -37.333 -25.5 -54s-21.167 -32.667 -33.5 -48s-23.5 -31 -33.5 -47s-18.5 -32.667 -25.5 -50s-10.5 -36.666 -10.5 -57.999zM152 579h94
v-130h-94v130z" />
    <glyph glyph-name="Agrave" unicode="&#xc0;" horiz-adv-x="421" 
d="M273 179h-139l-31 -179h-94l148 745h105l150 -745h-109zM141 258h123l-60 326zM130 972l162 -127l-33 -37l-179 106z" />
    <glyph glyph-name="Aacute" unicode="&#xc1;" horiz-adv-x="421" 
d="M273 179h-139l-31 -179h-94l148 745h105l150 -745h-109zM141 258h123l-60 326zM338 899l-178 -105l-34 38l162 126z" />
    <glyph glyph-name="Acircumflex" unicode="&#xc2;" horiz-adv-x="421" 
d="M273 179h-139l-31 -179h-94l148 745h105l150 -745h-109zM141 258h123l-60 326zM101 846l76 127h64l78 -128l-52 -25l-59 104l-59 -106z" />
    <glyph glyph-name="Atilde" unicode="&#xc3;" horiz-adv-x="421" 
d="M273 179h-139l-31 -179h-94l148 745h105l150 -745h-109zM141 258h123l-60 326zM48 859c7.33301 30 18.8311 51.3311 34.498 63.998s33.5 19 53.5 19c13.333 0 26.333 -2.5 39 -7.5s24.667 -10.5 36 -16.5l32.5 -16.5c10.333 -5 20.166 -7.5 29.499 -7.5
c18.667 0 31.334 18.333 38.001 55l59 -19c-8 -32 -20.333 -54.833 -37 -68.5s-35 -20.5 -55 -20.5c-13.333 0 -26 2.33301 -38 7s-23.833 9.83398 -35.5 15.501l-33 15.5c-10.333 4.66699 -20.166 7 -29.499 7c-8 0 -15.167 -4.66699 -21.5 -14
s-12.166 -22.666 -17.499 -39.999z" />
    <glyph glyph-name="Adieresis" unicode="&#xc4;" horiz-adv-x="421" 
d="M273 179h-139l-31 -179h-94l148 745h105l150 -745h-109zM141 258h123l-60 326zM169 815h-82v120h82v-120zM332 815h-82v120h82v-120z" />
    <glyph glyph-name="Aring" unicode="&#xc5;" horiz-adv-x="421" 
d="M273 179h-139l-31 -179h-94l148 745h105l150 -745h-109zM141 258h123l-60 326zM309 845c0 -57.333 -33 -86 -99 -86c-66.667 0 -100 28.667 -100 86c0 56.667 33.333 85 100 85c66 0 99 -28.333 99 -85zM270 845c0 34 -20 51 -60 51s-60 -17 -60 -51s20 -51 60 -51
s60 17 60 51z" />
    <glyph glyph-name="AE" unicode="&#xc6;" horiz-adv-x="538" 
d="M143 189l-27 -189h-102l131 745h375v-78h-174v-235h143l-7 -79h-136v-277h175v-76h-268v189h-110zM154 269h99v398h-42z" />
    <glyph glyph-name="Ccedilla" unicode="&#xc7;" horiz-adv-x="444" 
d="M196 -11c-40 3.33301 -71.165 13.834 -93.498 31.501s-38.833 42.5 -49.5 74.5s-17.167 71.167 -19.5 117.5s-3.5 99.5 -3.5 159.5c0 63.333 1.33301 119 4 167s10.334 88.333 23.001 121s32.334 57.167 59.001 73.5s64 24.5 112 24.5c44.667 0 79.5 -4.5 104.5 -13.5
s43.667 -23.833 56 -44.5s20.166 -47.5 23.499 -80.5s5.66602 -73.5 6.99902 -121.5l-97 -13c-1.33301 41.333 -2.83301 74.666 -4.5 99.999s-5.5 45 -11.5 59s-15 23.5 -27 28.5s-29 7.5 -51 7.5s-39.333 -5.83301 -52 -17.5s-22 -29.834 -28 -54.501
s-9.83301 -56.5 -11.5 -95.5s-2.5 -85.833 -2.5 -140.5c0 -55.333 0.833008 -102.333 2.5 -141s5.5 -70.334 11.5 -95.001s15.333 -42.5 28 -53.5s30 -16.5 52 -16.5s39 3.33301 51 10s20.833 17.5 26.5 32.5s9.16699 34.833 10.5 59.5s2.66602 55.334 3.99902 92.001l99 -8
c-3.33301 -44.667 -6.83301 -83.5 -10.5 -116.5s-11.5 -60.5 -23.5 -82.5s-30 -38.333 -54 -49s-57.333 -16.334 -100 -17.001l-2 -30c30 0 50.5 -7.16699 61.5 -21.5s16.5 -33.166 16.5 -56.499s-9.33301 -41.5 -28 -54.5s-41.667 -19.5 -69 -19.5
c-11.333 0 -23.333 1.33301 -36 4s-25.334 6.66699 -38.001 12l13 30c18 -7.33301 34.667 -11 50 -11c16 0 29.667 4 41 12s17 20.333 17 37s-5.66699 28.334 -17 35.001s-29.333 10.667 -54 12z" />
    <glyph glyph-name="Egrave" unicode="&#xc8;" horiz-adv-x="353" 
d="M326 745v-78h-187v-235h157l-7 -79h-150v-277h192v-76h-291v745h286zM96 972l162 -127l-33 -37l-179 106z" />
    <glyph glyph-name="Eacute" unicode="&#xc9;" horiz-adv-x="353" 
d="M326 745v-78h-187v-235h157l-7 -79h-150v-277h192v-76h-291v745h286zM304 899l-178 -105l-34 38l162 126z" />
    <glyph glyph-name="Ecircumflex" unicode="&#xca;" horiz-adv-x="353" 
d="M326 745v-78h-187v-235h157l-7 -79h-150v-277h192v-76h-291v745h286zM67 846l76 127h64l78 -128l-52 -25l-59 104l-59 -106z" />
    <glyph glyph-name="Edieresis" unicode="&#xcb;" horiz-adv-x="353" 
d="M326 745v-78h-187v-235h157l-7 -79h-150v-277h192v-76h-291v745h286zM135 815h-82v120h82v-120zM298 815h-82v120h82v-120z" />
    <glyph glyph-name="Igrave" unicode="&#xcc;" horiz-adv-x="179" 
d="M139 745v-745h-99v745h99zM12 972l162 -127l-33 -37l-179 106z" />
    <glyph glyph-name="Iacute" unicode="&#xcd;" horiz-adv-x="179" 
d="M139 745v-745h-99v745h99zM220 899l-178 -105l-34 38l162 126z" />
    <glyph glyph-name="Icircumflex" unicode="&#xce;" horiz-adv-x="179" 
d="M139 745v-745h-99v745h99zM-17 846l76 127h64l78 -128l-52 -25l-59 104l-59 -106z" />
    <glyph glyph-name="Idieresis" unicode="&#xcf;" horiz-adv-x="179" 
d="M139 745v-745h-99v745h99zM51 815h-82v120h82v-120zM214 815h-82v120h82v-120z" />
    <glyph glyph-name="Eth" unicode="&#xd0;" 
d="M4 433l36 -0.00195312v312h167c54 0 96.5 -7.83301 127.5 -23.5s54.333 -39 70 -70s25.5 -69.833 29.5 -116.5s6 -101 6 -163c0 -68 -1.83301 -125.667 -5.5 -173s-13 -85.666 -28 -114.999s-37.667 -50.666 -68 -63.999s-71.833 -20 -124.5 -20h-174v354h-36v79z
M138 668.998l0.00292969 -236.001h121l-8 -79h-113v-272h78c28 0 50.167 5.33301 66.5 16s28.666 27.667 36.999 51s13.666 53.333 15.999 90s3.5 81 3.5 133c0 54.667 -1 100.834 -3 138.501s-7.16699 68.167 -15.5 91.5s-21.333 40.333 -39 51s-41.834 16 -72.501 16h-71z
" />
    <glyph glyph-name="Ntilde" unicode="&#xd1;" horiz-adv-x="445" 
d="M38 745h103l181 -516v516h85v-745h-102l-182 515v-515h-85v745zM61 859c7.33301 30 18.8311 51.3311 34.498 63.998s33.5 19 53.5 19c13.333 0 26.333 -2.5 39 -7.5s24.667 -10.5 36 -16.5l32.5 -16.5c10.333 -5 20.166 -7.5 29.499 -7.5
c18.667 0 31.334 18.333 38.001 55l59 -19c-8 -32 -20.333 -54.833 -37 -68.5s-35 -20.5 -55 -20.5c-13.333 0 -26 2.33301 -38 7s-23.833 9.83398 -35.5 15.501l-33 15.5c-10.333 4.66699 -20.166 7 -29.499 7c-8 0 -15.167 -4.66699 -21.5 -14
s-12.166 -22.666 -17.499 -39.999z" />
    <glyph glyph-name="Ograve" unicode="&#xd2;" 
d="M238 758c49.333 0 87.5 -8 114.5 -24s47 -40 60 -72s20.833 -72.167 23.5 -120.5s4 -104.833 4 -169.5c0 -65.333 -1.33301 -122 -4 -170s-10.5 -88 -23.5 -120s-33 -55.833 -60 -71.5s-65.167 -23.5 -114.5 -23.5s-87.833 8.16699 -115.5 24.5
s-48.334 40.5 -62.001 72.5s-22.167 72 -25.5 120s-5 104 -5 168c0 63.333 1.66699 119 5 167s11.833 88.333 25.5 121s34.334 57.167 62.001 73.5s66.167 24.5 115.5 24.5zM238 680c-24 0 -42.833 -5.83203 -56.5 -17.499s-24 -29.834 -31 -54.501s-11.5 -56.5 -13.5 -95.5
s-3 -85.833 -3 -140.5c0 -55.333 1 -102.333 3 -141s6.5 -70.334 13.5 -95.001s17.333 -42.5 31 -53.5s32.5 -16.5 56.5 -16.5c23.333 0 41.5 5.5 54.5 16.5s22.667 28.833 29 53.5s10.166 56.334 11.499 95.001s2 85.667 2 141c0 54.667 -0.666992 101.5 -2 140.5
s-5.16602 71 -11.499 96s-16 43.167 -29 54.5s-31.167 17 -54.5 17zM155 972.001l162 -127l-33 -37l-179 106z" />
    <glyph glyph-name="Oacute" unicode="&#xd3;" 
d="M238 758c49.333 0 87.5 -8 114.5 -24s47 -40 60 -72s20.833 -72.167 23.5 -120.5s4 -104.833 4 -169.5c0 -65.333 -1.33301 -122 -4 -170s-10.5 -88 -23.5 -120s-33 -55.833 -60 -71.5s-65.167 -23.5 -114.5 -23.5s-87.833 8.16699 -115.5 24.5
s-48.334 40.5 -62.001 72.5s-22.167 72 -25.5 120s-5 104 -5 168c0 63.333 1.66699 119 5 167s11.833 88.333 25.5 121s34.334 57.167 62.001 73.5s66.167 24.5 115.5 24.5zM238 680c-24 0 -42.833 -5.83203 -56.5 -17.499s-24 -29.834 -31 -54.501s-11.5 -56.5 -13.5 -95.5
s-3 -85.833 -3 -140.5c0 -55.333 1 -102.333 3 -141s6.5 -70.334 13.5 -95.001s17.333 -42.5 31 -53.5s32.5 -16.5 56.5 -16.5c23.333 0 41.5 5.5 54.5 16.5s22.667 28.833 29 53.5s10.166 56.334 11.499 95.001s2 85.667 2 141c0 54.667 -0.666992 101.5 -2 140.5
s-5.16602 71 -11.499 96s-16 43.167 -29 54.5s-31.167 17 -54.5 17zM363 899.001l-178 -105l-34 38l162 126z" />
    <glyph glyph-name="Ocircumflex" unicode="&#xd4;" 
d="M238 758c49.333 0 87.5 -8 114.5 -24s47 -40 60 -72s20.833 -72.167 23.5 -120.5s4 -104.833 4 -169.5c0 -65.333 -1.33301 -122 -4 -170s-10.5 -88 -23.5 -120s-33 -55.833 -60 -71.5s-65.167 -23.5 -114.5 -23.5s-87.833 8.16699 -115.5 24.5
s-48.334 40.5 -62.001 72.5s-22.167 72 -25.5 120s-5 104 -5 168c0 63.333 1.66699 119 5 167s11.833 88.333 25.5 121s34.334 57.167 62.001 73.5s66.167 24.5 115.5 24.5zM238 680c-24 0 -42.833 -5.83203 -56.5 -17.499s-24 -29.834 -31 -54.501s-11.5 -56.5 -13.5 -95.5
s-3 -85.833 -3 -140.5c0 -55.333 1 -102.333 3 -141s6.5 -70.334 13.5 -95.001s17.333 -42.5 31 -53.5s32.5 -16.5 56.5 -16.5c23.333 0 41.5 5.5 54.5 16.5s22.667 28.833 29 53.5s10.166 56.334 11.499 95.001s2 85.667 2 141c0 54.667 -0.666992 101.5 -2 140.5
s-5.16602 71 -11.499 96s-16 43.167 -29 54.5s-31.167 17 -54.5 17zM126 846.001l76 127h64l78 -128l-52 -25l-59 104l-59 -106z" />
    <glyph glyph-name="Otilde" unicode="&#xd5;" 
d="M238 758c49.333 0 87.5 -8 114.5 -24s47 -40 60 -72s20.833 -72.167 23.5 -120.5s4 -104.833 4 -169.5c0 -65.333 -1.33301 -122 -4 -170s-10.5 -88 -23.5 -120s-33 -55.833 -60 -71.5s-65.167 -23.5 -114.5 -23.5s-87.833 8.16699 -115.5 24.5
s-48.334 40.5 -62.001 72.5s-22.167 72 -25.5 120s-5 104 -5 168c0 63.333 1.66699 119 5 167s11.833 88.333 25.5 121s34.334 57.167 62.001 73.5s66.167 24.5 115.5 24.5zM238 680c-24 0 -42.833 -5.83203 -56.5 -17.499s-24 -29.834 -31 -54.501s-11.5 -56.5 -13.5 -95.5
s-3 -85.833 -3 -140.5c0 -55.333 1 -102.333 3 -141s6.5 -70.334 13.5 -95.001s17.333 -42.5 31 -53.5s32.5 -16.5 56.5 -16.5c23.333 0 41.5 5.5 54.5 16.5s22.667 28.833 29 53.5s10.166 56.334 11.499 95.001s2 85.667 2 141c0 54.667 -0.666992 101.5 -2 140.5
s-5.16602 71 -11.499 96s-16 43.167 -29 54.5s-31.167 17 -54.5 17zM73 859.001c7.33301 30 18.8311 51.3311 34.498 63.998s33.5 19 53.5 19c13.333 0 26.333 -2.5 39 -7.5s24.667 -10.5 36 -16.5l32.5 -16.5c10.333 -5 20.166 -7.5 29.499 -7.5
c18.667 0 31.334 18.333 38.001 55l59 -19c-8 -32 -20.333 -54.833 -37 -68.5s-35 -20.5 -55 -20.5c-13.333 0 -26 2.33301 -38 7s-23.833 9.83398 -35.5 15.501l-33 15.5c-10.333 4.66699 -20.166 7 -29.499 7c-8 0 -15.167 -4.66699 -21.5 -14
s-12.166 -22.666 -17.499 -39.999z" />
    <glyph glyph-name="Odieresis" unicode="&#xd6;" 
d="M238 758c49.333 0 87.5 -8 114.5 -24s47 -40 60 -72s20.833 -72.167 23.5 -120.5s4 -104.833 4 -169.5c0 -65.333 -1.33301 -122 -4 -170s-10.5 -88 -23.5 -120s-33 -55.833 -60 -71.5s-65.167 -23.5 -114.5 -23.5s-87.833 8.16699 -115.5 24.5
s-48.334 40.5 -62.001 72.5s-22.167 72 -25.5 120s-5 104 -5 168c0 63.333 1.66699 119 5 167s11.833 88.333 25.5 121s34.334 57.167 62.001 73.5s66.167 24.5 115.5 24.5zM238 680c-24 0 -42.833 -5.83203 -56.5 -17.499s-24 -29.834 -31 -54.501s-11.5 -56.5 -13.5 -95.5
s-3 -85.833 -3 -140.5c0 -55.333 1 -102.333 3 -141s6.5 -70.334 13.5 -95.001s17.333 -42.5 31 -53.5s32.5 -16.5 56.5 -16.5c23.333 0 41.5 5.5 54.5 16.5s22.667 28.833 29 53.5s10.166 56.334 11.499 95.001s2 85.667 2 141c0 54.667 -0.666992 101.5 -2 140.5
s-5.16602 71 -11.499 96s-16 43.167 -29 54.5s-31.167 17 -54.5 17zM194 815.001h-82v120h82v-120zM357 815.001h-82v120h82v-120z" />
    <glyph glyph-name="multiply" unicode="&#xd7;" horiz-adv-x="437" 
d="M174 371l-144 145l44 44l144 -145l145 145l44 -44l-144 -145l144 -144l-44 -45l-145 145l-144 -145l-44 45z" />
    <glyph glyph-name="Oslash" unicode="&#xd8;" 
d="M238 758c44 0 79.667 -7.00098 107 -21.001l15 41l47 -21l-19 -53c12.667 -15.333 22.5 -33.666 29.5 -54.999s12.167 -45.833 15.5 -73.5s5.33301 -58.5 6 -92.5s1 -71 1 -111c0 -65.333 -1.33301 -122 -4 -170s-10.5 -88 -23.5 -120s-33 -55.833 -60 -71.5
s-65.167 -23.5 -114.5 -23.5c-42.667 0 -77.334 6 -104.001 18l-16 -43l-46 19l19 54c-14 14.667 -25.167 32.667 -33.5 54s-14.5 46 -18.5 74s-6.5 59.5 -7.5 94.5s-1.5 73.167 -1.5 114.5c0 63.333 1.66699 119 5 167s11.833 88.333 25.5 121s34.334 57.167 62.001 73.5
s66.167 24.5 115.5 24.5zM238 679.999c-24 0 -42.833 -5.83105 -56.5 -17.498s-24 -29.834 -31 -54.501s-11.5 -56.5 -13.5 -95.5s-3 -85.833 -3 -140.5c0 -42.667 0.5 -80.334 1.5 -113.001s3.16699 -60.667 6.5 -84l168 465c-14.667 26.667 -38.667 40 -72 40z
M335 372.001c0 36 -0.166016 68.499 -0.499023 97.499s-1.5 54.833 -3.5 77.5l-164 -449c15.333 -21.333 39 -32 71 -32c23.333 0 41.5 5.5 54.5 16.5s22.667 28.833 29 53.5s10.166 56.334 11.499 95.001s2 85.667 2 141z" />
    <glyph glyph-name="Ugrave" unicode="&#xd9;" horiz-adv-x="434" 
d="M137 745l0.00195312 -448.999c0 -40.667 0.666992 -75.5 2 -104.5s4.66602 -52.833 9.99902 -71.5s13.333 -32.334 24 -41.001s25.334 -13 44.001 -13c18 0 32.333 4.33301 43 13s18.667 22.334 24 41.001s8.66602 42.5 9.99902 71.5s2 63.833 2 104.5v449h100v-530
c0 -36 -2 -68 -6 -96s-12.167 -51.833 -24.5 -71.5s-30.333 -34.667 -54 -45s-55.167 -15.5 -94.5 -15.5c-38 0 -68.833 5 -92.5 15s-41.834 24.667 -54.501 44s-21.167 43.166 -25.5 71.499s-6.5 60.833 -6.5 97.5v530h99zM137.002 972.001l162 -127l-33 -37l-179 106z" />
    <glyph glyph-name="Uacute" unicode="&#xda;" horiz-adv-x="434" 
d="M137 745l0.00195312 -448.999c0 -40.667 0.666992 -75.5 2 -104.5s4.66602 -52.833 9.99902 -71.5s13.333 -32.334 24 -41.001s25.334 -13 44.001 -13c18 0 32.333 4.33301 43 13s18.667 22.334 24 41.001s8.66602 42.5 9.99902 71.5s2 63.833 2 104.5v449h100v-530
c0 -36 -2 -68 -6 -96s-12.167 -51.833 -24.5 -71.5s-30.333 -34.667 -54 -45s-55.167 -15.5 -94.5 -15.5c-38 0 -68.833 5 -92.5 15s-41.834 24.667 -54.501 44s-21.167 43.166 -25.5 71.499s-6.5 60.833 -6.5 97.5v530h99zM345.002 899.001l-178 -105l-34 38l162 126z" />
    <glyph glyph-name="Ucircumflex" unicode="&#xdb;" horiz-adv-x="434" 
d="M137 745l0.00195312 -448.999c0 -40.667 0.666992 -75.5 2 -104.5s4.66602 -52.833 9.99902 -71.5s13.333 -32.334 24 -41.001s25.334 -13 44.001 -13c18 0 32.333 4.33301 43 13s18.667 22.334 24 41.001s8.66602 42.5 9.99902 71.5s2 63.833 2 104.5v449h100v-530
c0 -36 -2 -68 -6 -96s-12.167 -51.833 -24.5 -71.5s-30.333 -34.667 -54 -45s-55.167 -15.5 -94.5 -15.5c-38 0 -68.833 5 -92.5 15s-41.834 24.667 -54.501 44s-21.167 43.166 -25.5 71.499s-6.5 60.833 -6.5 97.5v530h99zM107.002 846.001l76 127h64l78 -128l-52 -25
l-59 104l-59 -106z" />
    <glyph glyph-name="Udieresis" unicode="&#xdc;" horiz-adv-x="434" 
d="M137 745l0.00195312 -448.999c0 -40.667 0.666992 -75.5 2 -104.5s4.66602 -52.833 9.99902 -71.5s13.333 -32.334 24 -41.001s25.334 -13 44.001 -13c18 0 32.333 4.33301 43 13s18.667 22.334 24 41.001s8.66602 42.5 9.99902 71.5s2 63.833 2 104.5v449h100v-530
c0 -36 -2 -68 -6 -96s-12.167 -51.833 -24.5 -71.5s-30.333 -34.667 -54 -45s-55.167 -15.5 -94.5 -15.5c-38 0 -68.833 5 -92.5 15s-41.834 24.667 -54.501 44s-21.167 43.166 -25.5 71.499s-6.5 60.833 -6.5 97.5v530h99zM176.002 815.001h-82v120h82v-120z
M339.002 815.001h-82v120h82v-120z" />
    <glyph glyph-name="Yacute" unicode="&#xdd;" horiz-adv-x="382" 
d="M195 417l94 328h83l-131 -431v-314h-98v314l-134 431h97zM318 899l-178 -105l-34 38l162 126z" />
    <glyph glyph-name="Thorn" unicode="&#xde;" horiz-adv-x="415" 
d="M139 599l-1.99902 0.000976562c53.333 0 97 -1.83301 131 -5.5s60.833 -12.334 80.5 -26.001s33.167 -34 40.5 -61s11 -63.5 11 -109.5c0 -44 -3.33301 -81 -10 -111s-18.334 -54.333 -35.001 -73s-39.5 -32 -68.5 -40s-65.833 -12 -110.5 -12h-37v-161h-99v745h99v-146z
M138.001 518.001l0.000976562 -280h50c43.333 0 73.166 12.5 89.499 37.5s24.5 63.5 24.5 115.5c0 46.667 -8 79.5 -24 98.5s-45 28.5 -87 28.5h-53z" />
    <glyph glyph-name="germandbls" unicode="&#xdf;" horiz-adv-x="445" 
d="M207 805c40 0 72.1689 -5.33789 96.502 -16.0049s42.833 -25 55.5 -43s21 -39.167 25 -63.5s6 -50.166 6 -77.499c0 -29.333 -1.66699 -54.166 -5 -74.499s-8.5 -37.333 -15.5 -51s-16.5 -24.667 -28.5 -33s-26.333 -14.833 -43 -19.5
c22 -3.33301 40.833 -8.66602 56.5 -15.999s28.5 -18.333 38.5 -33s17.167 -33.667 21.5 -57s6.5 -53 6.5 -89c0 -44 -1.33301 -81.5 -4 -112.5s-11 -56.333 -25 -76s-35.667 -34 -65 -43s-70.666 -13.5 -123.999 -13.5v77c26.667 0 47.834 2.33301 63.501 7
s27.667 13.5 36 26.5s13.666 30.5 15.999 52.5s3.5 50.667 3.5 86c0 22 -1.16699 41.833 -3.5 59.5s-7.33301 32.834 -15 45.501s-18.334 22.5 -32.001 29.5s-31.5 10.833 -53.5 11.5l-2 74c17.333 0 31.166 2.83301 41.499 8.5s18.333 14 24 25s9.33398 25 11.001 42
s2.5 37.167 2.5 60.5c0 24.667 -1 45.834 -3 63.501s-6 32 -12 43s-14.667 19 -26 24s-26 7.5 -44 7.5c-16 0 -28.833 -2.83301 -38.5 -8.5s-17.334 -15.834 -23.001 -30.501s-9.5 -34.667 -11.5 -60s-3 -57.666 -3 -96.999v-534h-94v594c0 37.333 2.83301 69.333 8.5 96
s15 48.5 28 65.5s30.167 29.5 51.5 37.5s47.666 12 78.999 12z" />
    <glyph glyph-name="agrave" unicode="&#xe0;" horiz-adv-x="395" 
d="M191 552c34.667 0 62.665 -4.00391 83.998 -12.0039s38 -20.167 50 -36.5s20 -36.666 24 -60.999s6 -52.5 6 -84.5v-253c0 -19.333 3.83301 -31.333 11.5 -36s16.167 -7 25.5 -7l-8 -62c-34 0 -58.667 5.83301 -74 17.5s-24.666 25.834 -27.999 42.501
c-12.667 -22 -29 -39.333 -49 -52s-48.667 -19 -86 -19c-24 0 -43.667 4.16699 -59 12.5s-27.666 19.5 -36.999 33.5s-15.833 29.833 -19.5 47.5s-5.5 35.834 -5.5 54.501c0 35.333 2.66699 65.166 8 89.499s16.333 44 33 59s40.667 25.667 72 32s73 9.5 125 9.5v41
c0 18.667 -0.666992 34.834 -2 48.501s-4.5 25 -9.5 34s-12.167 15.5 -21.5 19.5s-22 6 -38 6c-27.333 0 -45.5 -7.33301 -54.5 -22s-14.833 -39 -17.5 -73l-79 7c2 28 5.16699 52.333 9.5 73s11.666 37.834 21.999 51.501s24.833 23.667 43.5 30s43.334 9.5 74.001 9.5z
M263.998 271.996c-32 -2 -57.667 -4.83398 -77 -8.50098s-34 -10 -44 -19s-16.667 -21.5 -20 -37.5s-5 -37.333 -5 -64c0 -27.333 3.66699 -48.166 11 -62.499s21.333 -21.5 42 -21.5c26 0 46.5 8.33301 61.5 25s25.5 40.667 31.5 72v116zM116.998 769.995l162 -127l-33 -37
l-179 106z" />
    <glyph glyph-name="aacute" unicode="&#xe1;" horiz-adv-x="395" 
d="M191 552c34.667 0 62.665 -4.00391 83.998 -12.0039s38 -20.167 50 -36.5s20 -36.666 24 -60.999s6 -52.5 6 -84.5v-253c0 -19.333 3.83301 -31.333 11.5 -36s16.167 -7 25.5 -7l-8 -62c-34 0 -58.667 5.83301 -74 17.5s-24.666 25.834 -27.999 42.501
c-12.667 -22 -29 -39.333 -49 -52s-48.667 -19 -86 -19c-24 0 -43.667 4.16699 -59 12.5s-27.666 19.5 -36.999 33.5s-15.833 29.833 -19.5 47.5s-5.5 35.834 -5.5 54.501c0 35.333 2.66699 65.166 8 89.499s16.333 44 33 59s40.667 25.667 72 32s73 9.5 125 9.5v41
c0 18.667 -0.666992 34.834 -2 48.501s-4.5 25 -9.5 34s-12.167 15.5 -21.5 19.5s-22 6 -38 6c-27.333 0 -45.5 -7.33301 -54.5 -22s-14.833 -39 -17.5 -73l-79 7c2 28 5.16699 52.333 9.5 73s11.666 37.834 21.999 51.501s24.833 23.667 43.5 30s43.334 9.5 74.001 9.5z
M263.998 271.996c-32 -2 -57.667 -4.83398 -77 -8.50098s-34 -10 -44 -19s-16.667 -21.5 -20 -37.5s-5 -37.333 -5 -64c0 -27.333 3.66699 -48.166 11 -62.499s21.333 -21.5 42 -21.5c26 0 46.5 8.33301 61.5 25s25.5 40.667 31.5 72v116zM325.998 696.995l-178 -105l-34 38
l162 126z" />
    <glyph glyph-name="acircumflex" unicode="&#xe2;" horiz-adv-x="395" 
d="M191 552c34.667 0 62.665 -4.00391 83.998 -12.0039s38 -20.167 50 -36.5s20 -36.666 24 -60.999s6 -52.5 6 -84.5v-253c0 -19.333 3.83301 -31.333 11.5 -36s16.167 -7 25.5 -7l-8 -62c-34 0 -58.667 5.83301 -74 17.5s-24.666 25.834 -27.999 42.501
c-12.667 -22 -29 -39.333 -49 -52s-48.667 -19 -86 -19c-24 0 -43.667 4.16699 -59 12.5s-27.666 19.5 -36.999 33.5s-15.833 29.833 -19.5 47.5s-5.5 35.834 -5.5 54.501c0 35.333 2.66699 65.166 8 89.499s16.333 44 33 59s40.667 25.667 72 32s73 9.5 125 9.5v41
c0 18.667 -0.666992 34.834 -2 48.501s-4.5 25 -9.5 34s-12.167 15.5 -21.5 19.5s-22 6 -38 6c-27.333 0 -45.5 -7.33301 -54.5 -22s-14.833 -39 -17.5 -73l-79 7c2 28 5.16699 52.333 9.5 73s11.666 37.834 21.999 51.501s24.833 23.667 43.5 30s43.334 9.5 74.001 9.5z
M263.998 271.996c-32 -2 -57.667 -4.83398 -77 -8.50098s-34 -10 -44 -19s-16.667 -21.5 -20 -37.5s-5 -37.333 -5 -64c0 -27.333 3.66699 -48.166 11 -62.499s21.333 -21.5 42 -21.5c26 0 46.5 8.33301 61.5 25s25.5 40.667 31.5 72v116zM87.998 643.995l76 127h64l78 -128
l-52 -25l-59 104l-59 -106z" />
    <glyph glyph-name="atilde" unicode="&#xe3;" horiz-adv-x="395" 
d="M191 552c34.667 0 62.665 -4.00391 83.998 -12.0039s38 -20.167 50 -36.5s20 -36.666 24 -60.999s6 -52.5 6 -84.5v-253c0 -19.333 3.83301 -31.333 11.5 -36s16.167 -7 25.5 -7l-8 -62c-34 0 -58.667 5.83301 -74 17.5s-24.666 25.834 -27.999 42.501
c-12.667 -22 -29 -39.333 -49 -52s-48.667 -19 -86 -19c-24 0 -43.667 4.16699 -59 12.5s-27.666 19.5 -36.999 33.5s-15.833 29.833 -19.5 47.5s-5.5 35.834 -5.5 54.501c0 35.333 2.66699 65.166 8 89.499s16.333 44 33 59s40.667 25.667 72 32s73 9.5 125 9.5v41
c0 18.667 -0.666992 34.834 -2 48.501s-4.5 25 -9.5 34s-12.167 15.5 -21.5 19.5s-22 6 -38 6c-27.333 0 -45.5 -7.33301 -54.5 -22s-14.833 -39 -17.5 -73l-79 7c2 28 5.16699 52.333 9.5 73s11.666 37.834 21.999 51.501s24.833 23.667 43.5 30s43.334 9.5 74.001 9.5z
M263.998 271.996c-32 -2 -57.667 -4.83398 -77 -8.50098s-34 -10 -44 -19s-16.667 -21.5 -20 -37.5s-5 -37.333 -5 -64c0 -27.333 3.66699 -48.166 11 -62.499s21.333 -21.5 42 -21.5c26 0 46.5 8.33301 61.5 25s25.5 40.667 31.5 72v116zM34.998 656.995
c7.33301 30 18.8311 51.3311 34.498 63.998s33.5 19 53.5 19c13.333 0 26.333 -2.5 39 -7.5s24.667 -10.5 36 -16.5l32.5 -16.5c10.333 -5 20.166 -7.5 29.499 -7.5c18.667 0 31.334 18.333 38.001 55l59 -19c-8 -32 -20.333 -54.833 -37 -68.5s-35 -20.5 -55 -20.5
c-13.333 0 -26 2.33301 -38 7s-23.833 9.83398 -35.5 15.501l-33 15.5c-10.333 4.66699 -20.166 7 -29.499 7c-8 0 -15.167 -4.66699 -21.5 -14s-12.166 -22.666 -17.499 -39.999z" />
    <glyph glyph-name="adieresis" unicode="&#xe4;" horiz-adv-x="395" 
d="M191 552c34.667 0 62.665 -4.00391 83.998 -12.0039s38 -20.167 50 -36.5s20 -36.666 24 -60.999s6 -52.5 6 -84.5v-253c0 -19.333 3.83301 -31.333 11.5 -36s16.167 -7 25.5 -7l-8 -62c-34 0 -58.667 5.83301 -74 17.5s-24.666 25.834 -27.999 42.501
c-12.667 -22 -29 -39.333 -49 -52s-48.667 -19 -86 -19c-24 0 -43.667 4.16699 -59 12.5s-27.666 19.5 -36.999 33.5s-15.833 29.833 -19.5 47.5s-5.5 35.834 -5.5 54.501c0 35.333 2.66699 65.166 8 89.499s16.333 44 33 59s40.667 25.667 72 32s73 9.5 125 9.5v41
c0 18.667 -0.666992 34.834 -2 48.501s-4.5 25 -9.5 34s-12.167 15.5 -21.5 19.5s-22 6 -38 6c-27.333 0 -45.5 -7.33301 -54.5 -22s-14.833 -39 -17.5 -73l-79 7c2 28 5.16699 52.333 9.5 73s11.666 37.834 21.999 51.501s24.833 23.667 43.5 30s43.334 9.5 74.001 9.5z
M263.998 271.996c-32 -2 -57.667 -4.83398 -77 -8.50098s-34 -10 -44 -19s-16.667 -21.5 -20 -37.5s-5 -37.333 -5 -64c0 -27.333 3.66699 -48.166 11 -62.499s21.333 -21.5 42 -21.5c26 0 46.5 8.33301 61.5 25s25.5 40.667 31.5 72v116zM156.998 612.995h-82v120h82v-120z
M319.998 612.995h-82v120h82v-120z" />
    <glyph glyph-name="aring" unicode="&#xe5;" horiz-adv-x="395" 
d="M191 552c34.667 0 62.665 -4.00391 83.998 -12.0039s38 -20.167 50 -36.5s20 -36.666 24 -60.999s6 -52.5 6 -84.5v-253c0 -19.333 3.83301 -31.333 11.5 -36s16.167 -7 25.5 -7l-8 -62c-34 0 -58.667 5.83301 -74 17.5s-24.666 25.834 -27.999 42.501
c-12.667 -22 -29 -39.333 -49 -52s-48.667 -19 -86 -19c-24 0 -43.667 4.16699 -59 12.5s-27.666 19.5 -36.999 33.5s-15.833 29.833 -19.5 47.5s-5.5 35.834 -5.5 54.501c0 35.333 2.66699 65.166 8 89.499s16.333 44 33 59s40.667 25.667 72 32s73 9.5 125 9.5v41
c0 18.667 -0.666992 34.834 -2 48.501s-4.5 25 -9.5 34s-12.167 15.5 -21.5 19.5s-22 6 -38 6c-27.333 0 -45.5 -7.33301 -54.5 -22s-14.833 -39 -17.5 -73l-79 7c2 28 5.16699 52.333 9.5 73s11.666 37.834 21.999 51.501s24.833 23.667 43.5 30s43.334 9.5 74.001 9.5z
M263.998 271.996c-32 -2 -57.667 -4.83398 -77 -8.50098s-34 -10 -44 -19s-16.667 -21.5 -20 -37.5s-5 -37.333 -5 -64c0 -27.333 3.66699 -48.166 11 -62.499s21.333 -21.5 42 -21.5c26 0 46.5 8.33301 61.5 25s25.5 40.667 31.5 72v116zM296.998 667.995
c0 -57.333 -33 -86 -99 -86c-66.667 0 -100 28.667 -100 86c0 56.667 33.333 85 100 85c66 0 99 -28.333 99 -85zM257.998 667.995c0 34 -20 51 -60 51s-60 -17 -60 -51s20 -51 60 -51s60 17 60 51z" />
    <glyph glyph-name="ae" unicode="&#xe6;" horiz-adv-x="650" 
d="M445 552c42.667 0 75.8311 -7.50391 99.498 -22.5039s41 -34.167 52 -57.5s17.667 -49.333 20 -78s3.5 -56.667 3.5 -84v-42h-262c0 -27.333 0.833008 -53.333 2.5 -78s5.5 -46.5 11.5 -65.5s15.5 -34 28.5 -45s31.167 -16.5 54.5 -16.5
c33.333 0 55.666 9.16699 66.999 27.5s18.666 45.166 21.999 80.499l76 -11c-3.33301 -28 -8.66602 -52.667 -15.999 -74s-17.5 -39.166 -30.5 -53.499s-29.667 -25.166 -50 -32.499s-45.166 -11 -74.499 -11c-22 0 -40.667 2.16699 -56 6.5s-28.333 10.5 -39 18.5
s-19.334 17.5 -26.001 28.5s-12.334 23.5 -17.001 37.5c-5.33301 -13.333 -11.833 -25.666 -19.5 -36.999s-17.667 -21 -30 -29s-27.5 -14.167 -45.5 -18.5s-39.667 -6.5 -65 -6.5c-24 0 -43.667 4.33301 -59 13s-27.666 20 -36.999 34s-15.833 29.833 -19.5 47.5
s-5.5 35.5 -5.5 53.5c0 35.333 2.66699 65 8 89s16.333 43.5 33 58.5s40.667 25.833 72 32.5s73 10 125 10v41c0 18.667 -0.666992 34.834 -2 48.501s-4.5 25 -9.5 34s-12.167 15.5 -21.5 19.5s-22 6 -38 6c-14 0 -25.333 -1.83301 -34 -5.5s-15.667 -9.5 -21 -17.5
s-9.16602 -18 -11.499 -30s-4.16602 -26 -5.49902 -42l-79 7c2 28 5.16699 52.333 9.5 73s11.666 37.834 21.999 51.501s24.833 23.667 43.5 30s43.334 9.5 74.001 9.5c36 0 63.667 -6.16699 83 -18.5s32.333 -29.166 39 -50.499
c8.66699 21.333 23.834 38.166 45.501 50.499s49.167 18.5 82.5 18.5zM267.997 271.996c-32 -2 -57.668 -4.83398 -77.001 -8.50098s-34 -10 -44 -19s-16.5 -21.5 -19.5 -37.5s-4.5 -37.333 -4.5 -64c0 -27.333 3.5 -48.166 10.5 -62.499s20.833 -21.5 41.5 -21.5
c26.667 0 47.334 8.33301 62.001 25s25 40.667 31 72v116zM446.996 484.995c-20 0 -35.666 -4.00195 -46.999 -12.002s-20 -19 -26 -33s-9.83301 -30.833 -11.5 -50.5s-2.83398 -41.5 -3.50098 -65.5h174c0 20.667 -0.333008 40.834 -1 60.501s-3.66699 36.834 -9 51.501
s-13.833 26.5 -25.5 35.5s-28.5 13.5 -50.5 13.5z" />
    <glyph glyph-name="ccedilla" unicode="&#xe7;" horiz-adv-x="387" 
d="M174 -9c-35.333 2.66699 -62.6641 12.167 -81.9971 28.5s-33.666 37 -42.999 62s-14.833 53.833 -16.5 86.5s-2.5 67 -2.5 103c0 38.667 1 75 3 109s8.83301 63.667 20.5 89s29.667 45.5 54 60.5s58.5 22.5 102.5 22.5c28 0 51.167 -3.16699 69.5 -9.5
s33.166 -16.5 44.499 -30.5s19.666 -32.333 24.999 -55s8.66602 -50.334 9.99902 -83.001l-77 -12c-2.66699 41.333 -8.5 70.833 -17.5 88.5s-27.167 26.5 -54.5 26.5c-21.333 0 -37.833 -4.66699 -49.5 -14s-20.334 -23 -26.001 -41s-9 -39.667 -10 -65s-1.5 -54 -1.5 -86
s0.5 -60.833 1.5 -86.5s4 -47.5 9 -65.5s12.833 -31.833 23.5 -41.5s25.667 -14.5 45 -14.5c16.667 0 30.167 3 40.5 9s18.333 14.5 24 25.5s9.83398 24.5 12.501 40.5s4.66699 34 6 54l77 -8c-1.33301 -24 -3.83301 -47.5 -7.5 -70.5s-10.834 -43.5 -21.501 -61.5
s-25.667 -32.833 -45 -44.5s-45.333 -17.834 -78 -18.501l-2 -32c30 0 50.667 -7.16699 62 -21.5s17 -33.166 17 -56.499s-9.5 -41.5 -28.5 -54.5s-41.833 -19.5 -68.5 -19.5c-12 0 -24.333 1.33301 -37 4s-25.334 6.66699 -38.001 12l13 30
c16.667 -7.33301 33.334 -11 50.001 -11c15.333 0 28.833 4 40.5 12s17.5 20.333 17.5 37s-5.66699 28.334 -17 35.001s-29.333 10.667 -54 12z" />
    <glyph glyph-name="egrave" unicode="&#xe8;" horiz-adv-x="411" 
d="M207 552c42.667 0 75.8281 -7.33496 99.4951 -22.002s41.167 -33.667 52.5 -57s18 -49.333 20 -78s3 -57 3 -85v-42h-263c0 -27.333 0.833008 -53.333 2.5 -78s5.66699 -46.5 12 -65.5s16 -34 29 -45s31.167 -16.5 54.5 -16.5c32.667 0 54.834 9.66699 66.501 29
s19.167 45.666 22.5 78.999l76 -11c-3.33301 -28 -8.66602 -52.667 -15.999 -74s-17.5 -39.166 -30.5 -53.499s-29.667 -25.166 -50 -32.499s-45.166 -11 -74.499 -11c-43.333 0 -77 7.83301 -101 23.5s-42 36.5 -54 62.5s-19.333 55.833 -22 89.5s-4 68.5 -4 104.5
c0 38.667 1.33301 75.334 4 110.001s9.83398 64.667 21.501 90s29.334 45.5 53.001 60.5s56.5 22.5 98.5 22.5zM207.994 484.998c-20 0 -35.499 -4.00098 -46.499 -12.001s-19.5 -19 -25.5 -33s-9.83301 -30.833 -11.5 -50.5s-2.83398 -41.5 -3.50098 -65.5h173v40
c0 16.667 -1.16699 32.334 -3.5 47.001s-6.5 27.5 -12.5 38.5s-14.667 19.667 -26 26s-26 9.5 -44 9.5zM124.995 769.997l162 -127l-33 -37l-179 106z" />
    <glyph glyph-name="eacute" unicode="&#xe9;" horiz-adv-x="411" 
d="M207 552c42.667 0 75.8281 -7.33496 99.4951 -22.002s41.167 -33.667 52.5 -57s18 -49.333 20 -78s3 -57 3 -85v-42h-263c0 -27.333 0.833008 -53.333 2.5 -78s5.66699 -46.5 12 -65.5s16 -34 29 -45s31.167 -16.5 54.5 -16.5c32.667 0 54.834 9.66699 66.501 29
s19.167 45.666 22.5 78.999l76 -11c-3.33301 -28 -8.66602 -52.667 -15.999 -74s-17.5 -39.166 -30.5 -53.499s-29.667 -25.166 -50 -32.499s-45.166 -11 -74.499 -11c-43.333 0 -77 7.83301 -101 23.5s-42 36.5 -54 62.5s-19.333 55.833 -22 89.5s-4 68.5 -4 104.5
c0 38.667 1.33301 75.334 4 110.001s9.83398 64.667 21.501 90s29.334 45.5 53.001 60.5s56.5 22.5 98.5 22.5zM207.994 484.998c-20 0 -35.499 -4.00098 -46.499 -12.001s-19.5 -19 -25.5 -33s-9.83301 -30.833 -11.5 -50.5s-2.83398 -41.5 -3.50098 -65.5h173v40
c0 16.667 -1.16699 32.334 -3.5 47.001s-6.5 27.5 -12.5 38.5s-14.667 19.667 -26 26s-26 9.5 -44 9.5zM333.995 696.997l-178 -105l-34 38l162 126z" />
    <glyph glyph-name="ecircumflex" unicode="&#xea;" horiz-adv-x="411" 
d="M207 552c42.667 0 75.8281 -7.33496 99.4951 -22.002s41.167 -33.667 52.5 -57s18 -49.333 20 -78s3 -57 3 -85v-42h-263c0 -27.333 0.833008 -53.333 2.5 -78s5.66699 -46.5 12 -65.5s16 -34 29 -45s31.167 -16.5 54.5 -16.5c32.667 0 54.834 9.66699 66.501 29
s19.167 45.666 22.5 78.999l76 -11c-3.33301 -28 -8.66602 -52.667 -15.999 -74s-17.5 -39.166 -30.5 -53.499s-29.667 -25.166 -50 -32.499s-45.166 -11 -74.499 -11c-43.333 0 -77 7.83301 -101 23.5s-42 36.5 -54 62.5s-19.333 55.833 -22 89.5s-4 68.5 -4 104.5
c0 38.667 1.33301 75.334 4 110.001s9.83398 64.667 21.501 90s29.334 45.5 53.001 60.5s56.5 22.5 98.5 22.5zM207.994 484.998c-20 0 -35.499 -4.00098 -46.499 -12.001s-19.5 -19 -25.5 -33s-9.83301 -30.833 -11.5 -50.5s-2.83398 -41.5 -3.50098 -65.5h173v40
c0 16.667 -1.16699 32.334 -3.5 47.001s-6.5 27.5 -12.5 38.5s-14.667 19.667 -26 26s-26 9.5 -44 9.5zM95.9951 643.997l76 127h64l78 -128l-52 -25l-59 104l-59 -106z" />
    <glyph glyph-name="edieresis" unicode="&#xeb;" horiz-adv-x="411" 
d="M207 552c42.667 0 75.8281 -7.33496 99.4951 -22.002s41.167 -33.667 52.5 -57s18 -49.333 20 -78s3 -57 3 -85v-42h-263c0 -27.333 0.833008 -53.333 2.5 -78s5.66699 -46.5 12 -65.5s16 -34 29 -45s31.167 -16.5 54.5 -16.5c32.667 0 54.834 9.66699 66.501 29
s19.167 45.666 22.5 78.999l76 -11c-3.33301 -28 -8.66602 -52.667 -15.999 -74s-17.5 -39.166 -30.5 -53.499s-29.667 -25.166 -50 -32.499s-45.166 -11 -74.499 -11c-43.333 0 -77 7.83301 -101 23.5s-42 36.5 -54 62.5s-19.333 55.833 -22 89.5s-4 68.5 -4 104.5
c0 38.667 1.33301 75.334 4 110.001s9.83398 64.667 21.501 90s29.334 45.5 53.001 60.5s56.5 22.5 98.5 22.5zM207.994 484.998c-20 0 -35.499 -4.00098 -46.499 -12.001s-19.5 -19 -25.5 -33s-9.83301 -30.833 -11.5 -50.5s-2.83398 -41.5 -3.50098 -65.5h173v40
c0 16.667 -1.16699 32.334 -3.5 47.001s-6.5 27.5 -12.5 38.5s-14.667 19.667 -26 26s-26 9.5 -44 9.5zM164.995 612.997h-82v120h82v-120zM327.995 612.997h-82v120h82v-120z" />
    <glyph glyph-name="igrave" unicode="&#xec;" horiz-adv-x="205" 
d="M40 770l162 -127l-33 -37l-179 106zM165 0h-95v543h95v-543z" />
    <glyph glyph-name="iacute" unicode="&#xed;" horiz-adv-x="205" 
d="M218 697l-178 -105l-34 38l162 126zM135 0h-95v543h95v-543z" />
    <glyph glyph-name="icircumflex" unicode="&#xee;" horiz-adv-x="225" 
d="M160 0h-95v543h95v-543zM5 644l76 127h64l78 -128l-52 -25l-59 104l-59 -106z" />
    <glyph glyph-name="idieresis" unicode="&#xef;" horiz-adv-x="225" 
d="M74 613h-82v120h82v-120zM237 613h-82v120h82v-120zM160 0h-95v543h95v-543z" />
    <glyph glyph-name="eth" unicode="&#xf0;" horiz-adv-x="449" 
d="M368 680c14.667 -42 23.5029 -94.9971 26.5029 -158.997s4.5 -137.667 4.5 -221c0 -48.667 -1 -92.334 -3 -131.001s-8.83301 -71.334 -20.5 -98.001s-30 -47 -55 -61s-60.5 -21 -106.5 -21s-81.333 6.83301 -106 20.5s-42.834 32.334 -54.501 56.001
s-18.5 51.667 -20.5 84s-3 67.166 -3 104.499s0.833008 72.166 2.5 104.499s7.16699 60.5 16.5 84.5s24 42.833 44 56.5s48 20.5 84 20.5c37.333 0 66.666 -3.33301 87.999 -10s38 -13.667 50 -21c-0.666992 25.333 -2.5 51.5 -5.5 78.5s-9.16699 50.167 -18.5 69.5l-86 -46
l-13 41l79 43c-10 14.667 -22.5 26 -37.5 34s-33.833 12.333 -56.5 13l17 72c36 -2 67.667 -8.66699 95 -20s48.666 -30 63.999 -56l52 29l14 -41zM204.003 444.003c-19.333 0 -34.5 -3.83398 -45.5 -11.501s-19 -19.167 -24 -34.5s-8 -35 -9 -59s-1.5 -52.333 -1.5 -85
c0 -33.333 0.5 -62 1.5 -86s4.5 -43.667 10.5 -59s15 -26.833 27 -34.5s29 -11.5 51 -11.5s39 3.83301 51 11.5s21 19.167 27 34.5s9.5 35 10.5 59s1.5 52.667 1.5 86c0 38.667 -1 70.334 -3 95.001s-6.5 44 -13.5 58s-17 23.667 -30 29s-30.833 8 -53.5 8z" />
    <glyph glyph-name="ntilde" unicode="&#xf1;" horiz-adv-x="431" 
d="M119 543c0.666992 -4 1.49902 -9.33301 2.49902 -16s2 -14 3 -22s1.83301 -15.667 2.5 -23s1 -13.333 1 -18c16 28 35.333 49.667 58 65s51.334 23 86.001 23c24 0 43.667 -4 59 -12s27.5 -18.833 36.5 -32.5s15.167 -29.167 18.5 -46.5s5 -35.333 5 -54v-407h-94v412
c0 20 -5.33301 35.667 -16 47s-26.334 17 -47.001 17c-23.333 0 -42.166 -6.66699 -56.499 -20s-28.833 -35 -43.5 -65v-391h-94v543h79v0zM53.999 657c7.33301 30 18.8311 51.3311 34.498 63.998s33.5 19 53.5 19c13.333 0 26.333 -2.5 39 -7.5s24.667 -10.5 36 -16.5
l32.5 -16.5c10.333 -5 20.166 -7.5 29.499 -7.5c18.667 0 31.334 18.333 38.001 55l59 -19c-8 -32 -20.333 -54.833 -37 -68.5s-35 -20.5 -55 -20.5c-13.333 0 -26 2.33301 -38 7s-23.833 9.83398 -35.5 15.501l-33 15.5c-10.333 4.66699 -20.166 7 -29.499 7
c-8 0 -15.167 -4.66699 -21.5 -14s-12.166 -22.666 -17.499 -39.999z" />
    <glyph glyph-name="ograve" unicode="&#xf2;" horiz-adv-x="429" 
d="M214 552c46 0 81.501 -7.66699 106.501 -23s43.333 -36 55 -62s18.5 -56.167 20.5 -90.5s3 -70.166 3 -107.499s-1 -72.833 -3 -106.5s-8.83301 -63.334 -20.5 -89.001s-30 -46.167 -55 -61.5s-60.5 -23 -106.5 -23s-81.333 7.66699 -106 23s-42.834 35.833 -54.501 61.5
s-18.5 55.334 -20.5 89.001s-3 69.167 -3 106.5s1 73.166 3 107.499s8.83301 64.5 20.5 90.5s30 46.667 55 62s60.167 23 105.5 23zM214.001 476c-22 0 -39 -4 -51 -12s-21 -20.5 -27 -37.5s-9.5 -38.5 -10.5 -64.5s-1.5 -57 -1.5 -93s0.5 -66.833 1.5 -92.5
s4.5 -47 10.5 -64s15 -29.5 27 -37.5s29 -12 51 -12s39 4 51 12s21 20.5 27 37.5s9.5 38.333 10.5 64s1.5 56.5 1.5 92.5s-0.5 67 -1.5 93s-4.5 47.5 -10.5 64.5s-15 29.5 -27 37.5s-29 12 -51 12zM134.001 770l162 -127l-33 -37l-179 106z" />
    <glyph glyph-name="oacute" unicode="&#xf3;" horiz-adv-x="429" 
d="M214 552c46 0 81.501 -7.66699 106.501 -23s43.333 -36 55 -62s18.5 -56.167 20.5 -90.5s3 -70.166 3 -107.499s-1 -72.833 -3 -106.5s-8.83301 -63.334 -20.5 -89.001s-30 -46.167 -55 -61.5s-60.5 -23 -106.5 -23s-81.333 7.66699 -106 23s-42.834 35.833 -54.501 61.5
s-18.5 55.334 -20.5 89.001s-3 69.167 -3 106.5s1 73.166 3 107.499s8.83301 64.5 20.5 90.5s30 46.667 55 62s60.167 23 105.5 23zM214.001 476c-22 0 -39 -4 -51 -12s-21 -20.5 -27 -37.5s-9.5 -38.5 -10.5 -64.5s-1.5 -57 -1.5 -93s0.5 -66.833 1.5 -92.5
s4.5 -47 10.5 -64s15 -29.5 27 -37.5s29 -12 51 -12s39 4 51 12s21 20.5 27 37.5s9.5 38.333 10.5 64s1.5 56.5 1.5 92.5s-0.5 67 -1.5 93s-4.5 47.5 -10.5 64.5s-15 29.5 -27 37.5s-29 12 -51 12zM342.001 697l-178 -105l-34 38l162 126z" />
    <glyph glyph-name="ocircumflex" unicode="&#xf4;" horiz-adv-x="429" 
d="M214 552c46 0 81.501 -7.66699 106.501 -23s43.333 -36 55 -62s18.5 -56.167 20.5 -90.5s3 -70.166 3 -107.499s-1 -72.833 -3 -106.5s-8.83301 -63.334 -20.5 -89.001s-30 -46.167 -55 -61.5s-60.5 -23 -106.5 -23s-81.333 7.66699 -106 23s-42.834 35.833 -54.501 61.5
s-18.5 55.334 -20.5 89.001s-3 69.167 -3 106.5s1 73.166 3 107.499s8.83301 64.5 20.5 90.5s30 46.667 55 62s60.167 23 105.5 23zM214.001 476c-22 0 -39 -4 -51 -12s-21 -20.5 -27 -37.5s-9.5 -38.5 -10.5 -64.5s-1.5 -57 -1.5 -93s0.5 -66.833 1.5 -92.5
s4.5 -47 10.5 -64s15 -29.5 27 -37.5s29 -12 51 -12s39 4 51 12s21 20.5 27 37.5s9.5 38.333 10.5 64s1.5 56.5 1.5 92.5s-0.5 67 -1.5 93s-4.5 47.5 -10.5 64.5s-15 29.5 -27 37.5s-29 12 -51 12zM105.001 644l76 127h64l78 -128l-52 -25l-59 104l-59 -106z" />
    <glyph glyph-name="otilde" unicode="&#xf5;" horiz-adv-x="429" 
d="M214 552c46 0 81.501 -7.66699 106.501 -23s43.333 -36 55 -62s18.5 -56.167 20.5 -90.5s3 -70.166 3 -107.499s-1 -72.833 -3 -106.5s-8.83301 -63.334 -20.5 -89.001s-30 -46.167 -55 -61.5s-60.5 -23 -106.5 -23s-81.333 7.66699 -106 23s-42.834 35.833 -54.501 61.5
s-18.5 55.334 -20.5 89.001s-3 69.167 -3 106.5s1 73.166 3 107.499s8.83301 64.5 20.5 90.5s30 46.667 55 62s60.167 23 105.5 23zM214.001 476c-22 0 -39 -4 -51 -12s-21 -20.5 -27 -37.5s-9.5 -38.5 -10.5 -64.5s-1.5 -57 -1.5 -93s0.5 -66.833 1.5 -92.5
s4.5 -47 10.5 -64s15 -29.5 27 -37.5s29 -12 51 -12s39 4 51 12s21 20.5 27 37.5s9.5 38.333 10.5 64s1.5 56.5 1.5 92.5s-0.5 67 -1.5 93s-4.5 47.5 -10.5 64.5s-15 29.5 -27 37.5s-29 12 -51 12zM53.001 657c7.33301 30 18.8311 51.3311 34.498 63.998s33.5 19 53.5 19
c13.333 0 26.333 -2.5 39 -7.5s24.667 -10.5 36 -16.5l32.5 -16.5c10.333 -5 20.166 -7.5 29.499 -7.5c18.667 0 31.334 18.333 38.001 55l59 -19c-8 -32 -20.333 -54.833 -37 -68.5s-35 -20.5 -55 -20.5c-13.333 0 -26 2.33301 -38 7s-23.833 9.83398 -35.5 15.501
l-33 15.5c-10.333 4.66699 -20.166 7 -29.499 7c-8 0 -15.167 -4.66699 -21.5 -14s-12.166 -22.666 -17.499 -39.999z" />
    <glyph glyph-name="odieresis" unicode="&#xf6;" horiz-adv-x="429" 
d="M214 552c46 0 81.501 -7.66699 106.501 -23s43.333 -36 55 -62s18.5 -56.167 20.5 -90.5s3 -70.166 3 -107.499s-1 -72.833 -3 -106.5s-8.83301 -63.334 -20.5 -89.001s-30 -46.167 -55 -61.5s-60.5 -23 -106.5 -23s-81.333 7.66699 -106 23s-42.834 35.833 -54.501 61.5
s-18.5 55.334 -20.5 89.001s-3 69.167 -3 106.5s1 73.166 3 107.499s8.83301 64.5 20.5 90.5s30 46.667 55 62s60.167 23 105.5 23zM214.001 476c-22 0 -39 -4 -51 -12s-21 -20.5 -27 -37.5s-9.5 -38.5 -10.5 -64.5s-1.5 -57 -1.5 -93s0.5 -66.833 1.5 -92.5
s4.5 -47 10.5 -64s15 -29.5 27 -37.5s29 -12 51 -12s39 4 51 12s21 20.5 27 37.5s9.5 38.333 10.5 64s1.5 56.5 1.5 92.5s-0.5 67 -1.5 93s-4.5 47.5 -10.5 64.5s-15 29.5 -27 37.5s-29 12 -51 12zM174.001 613h-82v120h82v-120zM337.001 613h-82v120h82v-120z" />
    <glyph glyph-name="divide" unicode="&#xf7;" horiz-adv-x="530" 
d="M30 340v63h470v-63h-470zM312 99h-94v130h94v-130zM312 512h-94v130h94v-130z" />
    <glyph glyph-name="oslash" unicode="&#xf8;" horiz-adv-x="429" 
d="M214 552c28 0 52 -2.99805 72 -8.99805l16 43l47 -22l-16 -44c16 -12 28.5 -26.833 37.5 -44.5s15.667 -37.334 20 -59.001s6.83301 -45 7.5 -70s1 -50.833 1 -77.5c0 -37.333 -1 -72.833 -3 -106.5s-8.83301 -63.334 -20.5 -89.001s-30 -46.167 -55 -61.5
s-60.5 -23 -106.5 -23c-26.667 0 -50 3 -70 9l-13 -36l-46 19l13 37c-17.333 12 -30.5 26.833 -39.5 44.5s-15.667 37.334 -20 59.001s-6.83301 45 -7.5 70s-1 50.833 -1 77.5c0 37.333 1 73.166 3 107.499s8.83301 64.5 20.5 90.5s30 46.667 55 62s60.167 23 105.5 23z
M214 476.002c-22 0 -39 -4 -51 -12s-21 -20.5 -27 -37.5s-9.5 -38.5 -10.5 -64.5s-1.5 -57 -1.5 -93c0 -34 0.333008 -63.5 1 -88.5s3.66699 -45.833 9 -62.5l125 349c-12 6 -27 9 -45 9zM304 269.002c0 32 -0.500977 60.167 -1.50098 84.5s-3.5 44.833 -7.5 61.5l-125 -344
c10.667 -5.33301 25.334 -8 44.001 -8c22 0 39 4 51 12s21 20.5 27 37.5s9.5 38.333 10.5 64s1.5 56.5 1.5 92.5z" />
    <glyph glyph-name="ugrave" unicode="&#xf9;" horiz-adv-x="412" 
d="M304 0c-1.33301 3.33301 -2.5 8.5 -3.5 15.5l-3 22c-1 7.66699 -1.66699 15.167 -2 22.5s-0.5 13.333 -0.5 18c-14 -28 -31.5 -49.5 -52.5 -64.5s-48.833 -22.5 -83.5 -22.5c-24 0 -43.667 4 -59 12s-27.5 18.833 -36.5 32.5s-15.167 29.167 -18.5 46.5s-5 35.333 -5 54
v407h93v-413c0 -20 5 -35.667 15 -47s25 -17 45 -17c23.333 0 42 6.66699 56 20s27 35 39 65v392h95v-543h-79v0zM126 770l162 -127l-33 -37l-179 106z" />
    <glyph glyph-name="uacute" unicode="&#xfa;" horiz-adv-x="412" 
d="M304 0c-1.33301 3.33301 -2.5 8.5 -3.5 15.5l-3 22c-1 7.66699 -1.66699 15.167 -2 22.5s-0.5 13.333 -0.5 18c-14 -28 -31.5 -49.5 -52.5 -64.5s-48.833 -22.5 -83.5 -22.5c-24 0 -43.667 4 -59 12s-27.5 18.833 -36.5 32.5s-15.167 29.167 -18.5 46.5s-5 35.333 -5 54
v407h93v-413c0 -20 5 -35.667 15 -47s25 -17 45 -17c23.333 0 42 6.66699 56 20s27 35 39 65v392h95v-543h-79v0zM334 697l-178 -105l-34 38l162 126z" />
    <glyph glyph-name="ucircumflex" unicode="&#xfb;" horiz-adv-x="412" 
d="M304 0c-1.33301 3.33301 -2.5 8.5 -3.5 15.5l-3 22c-1 7.66699 -1.66699 15.167 -2 22.5s-0.5 13.333 -0.5 18c-14 -28 -31.5 -49.5 -52.5 -64.5s-48.833 -22.5 -83.5 -22.5c-24 0 -43.667 4 -59 12s-27.5 18.833 -36.5 32.5s-15.167 29.167 -18.5 46.5s-5 35.333 -5 54
v407h93v-413c0 -20 5 -35.667 15 -47s25 -17 45 -17c23.333 0 42 6.66699 56 20s27 35 39 65v392h95v-543h-79v0zM97 644l76 127h64l78 -128l-52 -25l-59 104l-59 -106z" />
    <glyph glyph-name="udieresis" unicode="&#xfc;" horiz-adv-x="412" 
d="M304 0c-1.33301 3.33301 -2.5 8.5 -3.5 15.5l-3 22c-1 7.66699 -1.66699 15.167 -2 22.5s-0.5 13.333 -0.5 18c-14 -28 -31.5 -49.5 -52.5 -64.5s-48.833 -22.5 -83.5 -22.5c-24 0 -43.667 4 -59 12s-27.5 18.833 -36.5 32.5s-15.167 29.167 -18.5 46.5s-5 35.333 -5 54
v407h93v-413c0 -20 5 -35.667 15 -47s25 -17 45 -17c23.333 0 42 6.66699 56 20s27 35 39 65v392h95v-543h-79v0zM165 613h-82v120h82v-120zM328 613h-82v120h82v-120z" />
    <glyph glyph-name="yacute" unicode="&#xfd;" horiz-adv-x="370" 
d="M196 148l75.999 395h89l-141 -583c-6 -25.333 -12.667 -48.833 -20 -70.5s-16.833 -40.5 -28.5 -56.5s-26.167 -28.667 -43.5 -38s-38.666 -14 -63.999 -14c-14 0 -26.5 1.16699 -37.5 3.5s-21.833 6.83301 -32.5 13.5l40 79c4.66699 -3.33301 9.5 -6 14.5 -8
s10.167 -3 15.5 -3c14 0 28.833 10 44.5 30s29.167 56 40.5 108l-141 539h104zM312.999 697l-178 -105l-34 38l162 126z" />
    <glyph glyph-name="thorn" unicode="&#xfe;" horiz-adv-x="407" 
d="M384 295c0 -42 -0.834961 -81.499 -2.50195 -118.499s-7.16699 -69.333 -16.5 -97s-24 -49.334 -44 -65.001s-48.333 -23.5 -85 -23.5c-26 0 -47.5 5.66699 -64.5 17s-30.167 27 -39.5 47v-274h-92v1007l96 17v-324c4.66699 8 10.834 16.333 18.501 25
s16.834 16.334 27.501 23.001s23.167 12.167 37.5 16.5s30.833 6.5 49.5 6.5c28 0 49.667 -6.33301 65 -19s26.833 -30.334 34.5 -53.001s12.167 -49.667 13.5 -81s2 -66 2 -104zM212.998 65.001c16.667 0 30.165 3.66797 40.498 11.001s18.333 19.833 24 37.5
s9.33398 41.167 11.001 70.5s2.5 66 2.5 110c0 36 -0.833008 65.833 -2.5 89.5s-4.83398 42.5 -9.50098 56.5s-11.167 23.667 -19.5 29s-19.166 8 -32.499 8c-24 0 -44.167 -7 -60.5 -21s-28.166 -31.667 -35.499 -53v-275c1.33301 -5.33301 4.5 -11.5 9.5 -18.5
s11.333 -13.833 19 -20.5s16 -12.334 25 -17.001s18.5 -7 28.5 -7z" />
    <glyph glyph-name="ydieresis" unicode="&#xff;" horiz-adv-x="370" 
d="M196 148l75.999 395h89l-141 -583c-6 -25.333 -12.667 -48.833 -20 -70.5s-16.833 -40.5 -28.5 -56.5s-26.167 -28.667 -43.5 -38s-38.666 -14 -63.999 -14c-14 0 -26.5 1.16699 -37.5 3.5s-21.833 6.83301 -32.5 13.5l40 79c4.66699 -3.33301 9.5 -6 14.5 -8
s10.167 -3 15.5 -3c14 0 28.833 10 44.5 30s29.167 56 40.5 108l-141 539h104zM143.999 613h-82v120h82v-120zM306.999 613h-82v120h82v-120z" />
    <glyph glyph-name="Amacron" unicode="&#x100;" horiz-adv-x="421" 
d="M273 179h-139l-31 -179h-94l148 745h105l150 -745h-109zM141 258h123l-60 326zM386 892v-65h-352v65h352z" />
    <glyph glyph-name="amacron" unicode="&#x101;" horiz-adv-x="395" 
d="M191 552c34.667 0 62.665 -4.00391 83.998 -12.0039s38 -20.167 50 -36.5s20 -36.666 24 -60.999s6 -52.5 6 -84.5v-253c0 -19.333 3.83301 -31.333 11.5 -36s16.167 -7 25.5 -7l-8 -62c-34 0 -58.667 5.83301 -74 17.5s-24.666 25.834 -27.999 42.501
c-12.667 -22 -29 -39.333 -49 -52s-48.667 -19 -86 -19c-24 0 -43.667 4.16699 -59 12.5s-27.666 19.5 -36.999 33.5s-15.833 29.833 -19.5 47.5s-5.5 35.834 -5.5 54.501c0 35.333 2.66699 65.166 8 89.499s16.333 44 33 59s40.667 25.667 72 32s73 9.5 125 9.5v41
c0 18.667 -0.666992 34.834 -2 48.501s-4.5 25 -9.5 34s-12.167 15.5 -21.5 19.5s-22 6 -38 6c-27.333 0 -45.5 -7.33301 -54.5 -22s-14.833 -39 -17.5 -73l-79 7c2 28 5.16699 52.333 9.5 73s11.666 37.834 21.999 51.501s24.833 23.667 43.5 30s43.334 9.5 74.001 9.5z
M263.998 271.996c-32 -2 -57.667 -4.83398 -77 -8.50098s-34 -10 -44 -19s-16.667 -21.5 -20 -37.5s-5 -37.333 -5 -64c0 -27.333 3.66699 -48.166 11 -62.499s21.333 -21.5 42 -21.5c26 0 46.5 8.33301 61.5 25s25.5 40.667 31.5 72v116zM374.998 689.995v-65h-352v65h352z
" />
    <glyph glyph-name="Abreve" unicode="&#x102;" horiz-adv-x="421" 
d="M273 179h-139l-31 -179h-94l148 745h105l150 -745h-109zM141 258h123l-60 326zM360 939c-9.33301 -39.333 -26.502 -70.5 -51.502 -93.5s-56.833 -34.5 -95.5 -34.5s-71.834 11.5 -99.501 34.5s-45.167 54.5 -52.5 94.5l49 17
c2.66699 -12.667 6.83398 -24.834 12.501 -36.501s12.834 -22 21.501 -31s18.834 -16.167 30.501 -21.5s24.5 -8 38.5 -8c28 0 51 9.83301 69 29.5s29.667 42.834 35 69.501z" />
    <glyph glyph-name="abreve" unicode="&#x103;" horiz-adv-x="395" 
d="M191 552c34.667 0 62.665 -4.00391 83.998 -12.0039s38 -20.167 50 -36.5s20 -36.666 24 -60.999s6 -52.5 6 -84.5v-253c0 -19.333 3.83301 -31.333 11.5 -36s16.167 -7 25.5 -7l-8 -62c-34 0 -58.667 5.83301 -74 17.5s-24.666 25.834 -27.999 42.501
c-12.667 -22 -29 -39.333 -49 -52s-48.667 -19 -86 -19c-24 0 -43.667 4.16699 -59 12.5s-27.666 19.5 -36.999 33.5s-15.833 29.833 -19.5 47.5s-5.5 35.834 -5.5 54.501c0 35.333 2.66699 65.166 8 89.499s16.333 44 33 59s40.667 25.667 72 32s73 9.5 125 9.5v41
c0 18.667 -0.666992 34.834 -2 48.501s-4.5 25 -9.5 34s-12.167 15.5 -21.5 19.5s-22 6 -38 6c-27.333 0 -45.5 -7.33301 -54.5 -22s-14.833 -39 -17.5 -73l-79 7c2 28 5.16699 52.333 9.5 73s11.666 37.834 21.999 51.501s24.833 23.667 43.5 30s43.334 9.5 74.001 9.5z
M263.998 271.996c-32 -2 -57.667 -4.83398 -77 -8.50098s-34 -10 -44 -19s-16.667 -21.5 -20 -37.5s-5 -37.333 -5 -64c0 -27.333 3.66699 -48.166 11 -62.499s21.333 -21.5 42 -21.5c26 0 46.5 8.33301 61.5 25s25.5 40.667 31.5 72v116zM346.998 736.995
c-9.33301 -39.333 -26.502 -70.5 -51.502 -93.5s-56.833 -34.5 -95.5 -34.5s-71.834 11.5 -99.501 34.5s-45.167 54.5 -52.5 94.5l49 17c2.66699 -12.667 6.83398 -24.834 12.501 -36.501s12.834 -22 21.501 -31s18.834 -16.167 30.501 -21.5s24.5 -8 38.5 -8
c28 0 51 9.83301 69 29.5s29.667 42.834 35 69.501z" />
    <glyph glyph-name="Aogonek" unicode="&#x104;" horiz-adv-x="421" 
d="M273 179l-139.002 -0.00292969l-31 -179h-94l148 745h105l150 -745c-8 -10.667 -15.5 -21.667 -22.5 -33s-13.167 -22 -18.5 -32s-9.66602 -19.167 -12.999 -27.5s-5 -14.833 -5 -19.5c0 -10.667 4 -18.167 12 -22.5s18 -6.5 30 -6.5c12.667 0 26.334 2 41.001 6
s28.667 9.66699 42 17l-29 -73c-37.333 -18.667 -70.333 -28 -99 -28c-16.667 0 -30.167 3.83301 -40.5 11.5s-15.5 19.834 -15.5 36.501c0 6.66699 1.16699 14.334 3.5 23.001s6.5 19.5 12.5 32.5s14.333 28.833 25 47.5s24.667 41.334 42 68.001h-74zM140.998 257.997h123
l-60 326z" />
    <glyph glyph-name="aogonek" unicode="&#x105;" horiz-adv-x="395" 
d="M191 552c34.667 0 62.665 -4.00391 83.998 -12.0039s38 -20.167 50 -36.5s20 -36.666 24 -60.999s6 -52.5 6 -84.5v-253c0 -19.333 3.83301 -31.333 11.5 -36s16.167 -7 25.5 -7l-8 -62c-15.333 -22.667 -29 -44 -41 -64s-18 -36 -18 -48c0 -10.667 4 -18.167 12 -22.5
s18 -6.5 30 -6.5s25.5 2 40.5 6s29.167 9.66699 42.5 17l-29 -73c-37.333 -18.667 -70.333 -28 -99 -28c-16.667 0 -30.167 3.83301 -40.5 11.5s-15.5 19.834 -15.5 36.501c0 6.66699 1.16699 14.334 3.5 23.001s6.5 19.5 12.5 32.5s14.333 28.833 25 47.5
s24.667 41.334 42 68.001c-21.333 2 -37.166 9.5 -47.499 22.5s-16.833 25.5 -19.5 37.5c-12.667 -22 -29 -39.333 -49 -52s-48.667 -19 -86 -19c-24 0 -43.667 4.16699 -59 12.5s-27.666 19.5 -36.999 33.5s-15.833 29.833 -19.5 47.5s-5.5 35.834 -5.5 54.501
c0 35.333 2.66699 65.166 8 89.499s16.333 44 33 59s40.667 25.667 72 32s73 9.5 125 9.5v41c0 39.333 -4.66699 67.166 -14 83.499s-28.333 24.5 -57 24.5c-27.333 0 -45.5 -7.33301 -54.5 -22s-14.833 -39 -17.5 -73l-79 7c2 28 5.16699 52.333 9.5 73
s11.666 37.834 21.999 51.501s24.833 23.667 43.5 30s43.334 9.5 74.001 9.5zM263.998 271.996c-32 -2 -57.667 -4.83398 -77 -8.50098s-34 -10 -44 -19s-16.667 -21.5 -20 -37.5s-5 -37.333 -5 -64c0 -27.333 3.66699 -48.166 11 -62.499s21.333 -21.5 42 -21.5
c26 0 46.5 8.33301 61.5 25s25.5 40.667 31.5 72v116z" />
    <glyph glyph-name="Cacute" unicode="&#x106;" horiz-adv-x="444" 
d="M228 680c-22 0 -39.3301 -5.83105 -51.9971 -17.498s-22 -29.834 -28 -54.501s-9.83301 -56.5 -11.5 -95.5s-2.5 -85.833 -2.5 -140.5c0 -55.333 0.833008 -102.333 2.5 -141s5.5 -70.334 11.5 -95.001s15.333 -42.5 28 -53.5s30 -16.5 52 -16.5s39 3.33301 51 10
s20.833 17.5 26.5 32.5s9.16699 34.833 10.5 59.5s2.66602 55.334 3.99902 92.001l99 -8c-3.33301 -45.333 -6.83301 -84.5 -10.5 -117.5s-11.667 -60.5 -24 -82.5s-30.5 -38.333 -54.5 -49s-58 -16 -102 -16c-48 0 -85.333 8.16699 -112 24.5s-46.334 40.5 -59.001 72.5
s-20.334 72 -23.001 120s-4 104 -4 168c0 63.333 1.33301 119 4 167s10.334 88.333 23.001 121s32.334 57.167 59.001 73.5s64 24.5 112 24.5c44.667 0 79.5 -4.5 104.5 -13.5s43.667 -23.833 56 -44.5s20.166 -47.5 23.499 -80.5s5.66602 -73.5 6.99902 -121.5l-97 -13
c-1.33301 41.333 -2.83301 74.666 -4.5 99.999s-5.5 45 -11.5 59s-15 23.5 -27 28.5s-29 7.5 -51 7.5zM358.003 899.002l-178 -105l-34 38l162 126z" />
    <glyph glyph-name="cacute" unicode="&#x107;" horiz-adv-x="387" 
d="M210 552c28 0 51.1709 -3.16797 69.5039 -9.50098s33.166 -16.5 44.499 -30.5s19.666 -32.333 24.999 -55s8.66602 -50.334 9.99902 -83.001l-77 -12c-2.66699 41.333 -8.5 70.833 -17.5 88.5s-27.167 26.5 -54.5 26.5c-21.333 0 -37.833 -4.66699 -49.5 -14
s-20.334 -23 -26.001 -41s-9 -39.667 -10 -65s-1.5 -54 -1.5 -86s0.5 -60.833 1.5 -86.5s4 -47.5 9 -65.5s12.833 -31.833 23.5 -41.5s25.667 -14.5 45 -14.5c16.667 0 30.167 3 40.5 9s18.333 14.5 24 25.5s9.83398 24.5 12.501 40.5s4.66699 34 6 54l77 -8
c-1.33301 -24 -3.83301 -47.667 -7.5 -71s-11 -44.166 -22 -62.499s-26.833 -33.166 -47.5 -44.499s-48.334 -17 -83.001 -17c-42 0 -74.667 7.5 -98 22.5s-40.5 35.5 -51.5 61.5s-17.5 56 -19.5 90s-3 70 -3 108c0 38.667 1 75 3 109s8.83301 63.667 20.5 89
s29.667 45.5 54 60.5s58.5 22.5 102.5 22.5zM329.004 696.999l-178 -105l-34 38l162 126z" />
    <glyph glyph-name="Ccircumflex" unicode="&#x108;" horiz-adv-x="444" 
d="M228 680c-22 0 -39.3301 -5.83105 -51.9971 -17.498s-22 -29.834 -28 -54.501s-9.83301 -56.5 -11.5 -95.5s-2.5 -85.833 -2.5 -140.5c0 -55.333 0.833008 -102.333 2.5 -141s5.5 -70.334 11.5 -95.001s15.333 -42.5 28 -53.5s30 -16.5 52 -16.5s39 3.33301 51 10
s20.833 17.5 26.5 32.5s9.16699 34.833 10.5 59.5s2.66602 55.334 3.99902 92.001l99 -8c-3.33301 -45.333 -6.83301 -84.5 -10.5 -117.5s-11.667 -60.5 -24 -82.5s-30.5 -38.333 -54.5 -49s-58 -16 -102 -16c-48 0 -85.333 8.16699 -112 24.5s-46.334 40.5 -59.001 72.5
s-20.334 72 -23.001 120s-4 104 -4 168c0 63.333 1.33301 119 4 167s10.334 88.333 23.001 121s32.334 57.167 59.001 73.5s64 24.5 112 24.5c44.667 0 79.5 -4.5 104.5 -13.5s43.667 -23.833 56 -44.5s20.166 -47.5 23.499 -80.5s5.66602 -73.5 6.99902 -121.5l-97 -13
c-1.33301 41.333 -2.83301 74.666 -4.5 99.999s-5.5 45 -11.5 59s-15 23.5 -27 28.5s-29 7.5 -51 7.5zM112.003 846.002l76 127h64l78 -128l-52 -25l-59 104l-59 -106z" />
    <glyph glyph-name="ccircumflex" unicode="&#x109;" horiz-adv-x="387" 
d="M210 552c28 0 51.1709 -3.16797 69.5039 -9.50098s33.166 -16.5 44.499 -30.5s19.666 -32.333 24.999 -55s8.66602 -50.334 9.99902 -83.001l-77 -12c-2.66699 41.333 -8.5 70.833 -17.5 88.5s-27.167 26.5 -54.5 26.5c-21.333 0 -37.833 -4.66699 -49.5 -14
s-20.334 -23 -26.001 -41s-9 -39.667 -10 -65s-1.5 -54 -1.5 -86s0.5 -60.833 1.5 -86.5s4 -47.5 9 -65.5s12.833 -31.833 23.5 -41.5s25.667 -14.5 45 -14.5c16.667 0 30.167 3 40.5 9s18.333 14.5 24 25.5s9.83398 24.5 12.501 40.5s4.66699 34 6 54l77 -8
c-1.33301 -24 -3.83301 -47.667 -7.5 -71s-11 -44.166 -22 -62.499s-26.833 -33.166 -47.5 -44.499s-48.334 -17 -83.001 -17c-42 0 -74.667 7.5 -98 22.5s-40.5 35.5 -51.5 61.5s-17.5 56 -19.5 90s-3 70 -3 108c0 38.667 1 75 3 109s8.83301 63.667 20.5 89
s29.667 45.5 54 60.5s58.5 22.5 102.5 22.5zM84.0039 643.999l76 127h64l78 -128l-52 -25l-59 104l-59 -106z" />
    <glyph glyph-name="Cdotaccent" unicode="&#x10a;" horiz-adv-x="444" 
d="M228 680c-22 0 -39.3301 -5.83105 -51.9971 -17.498s-22 -29.834 -28 -54.501s-9.83301 -56.5 -11.5 -95.5s-2.5 -85.833 -2.5 -140.5c0 -55.333 0.833008 -102.333 2.5 -141s5.5 -70.334 11.5 -95.001s15.333 -42.5 28 -53.5s30 -16.5 52 -16.5s39 3.33301 51 10
s20.833 17.5 26.5 32.5s9.16699 34.833 10.5 59.5s2.66602 55.334 3.99902 92.001l99 -8c-3.33301 -45.333 -6.83301 -84.5 -10.5 -117.5s-11.667 -60.5 -24 -82.5s-30.5 -38.333 -54.5 -49s-58 -16 -102 -16c-48 0 -85.333 8.16699 -112 24.5s-46.334 40.5 -59.001 72.5
s-20.334 72 -23.001 120s-4 104 -4 168c0 63.333 1.33301 119 4 167s10.334 88.333 23.001 121s32.334 57.167 59.001 73.5s64 24.5 112 24.5c44.667 0 79.5 -4.5 104.5 -13.5s43.667 -23.833 56 -44.5s20.166 -47.5 23.499 -80.5s5.66602 -73.5 6.99902 -121.5l-97 -13
c-1.33301 41.333 -2.83301 74.666 -4.5 99.999s-5.5 45 -11.5 59s-15 23.5 -27 28.5s-29 7.5 -51 7.5zM263.003 815.002h-82v120h82v-120z" />
    <glyph glyph-name="cdotaccent" unicode="&#x10b;" horiz-adv-x="387" 
d="M210 552c28 0 51.1709 -3.16797 69.5039 -9.50098s33.166 -16.5 44.499 -30.5s19.666 -32.333 24.999 -55s8.66602 -50.334 9.99902 -83.001l-77 -12c-2.66699 41.333 -8.5 70.833 -17.5 88.5s-27.167 26.5 -54.5 26.5c-21.333 0 -37.833 -4.66699 -49.5 -14
s-20.334 -23 -26.001 -41s-9 -39.667 -10 -65s-1.5 -54 -1.5 -86s0.5 -60.833 1.5 -86.5s4 -47.5 9 -65.5s12.833 -31.833 23.5 -41.5s25.667 -14.5 45 -14.5c16.667 0 30.167 3 40.5 9s18.333 14.5 24 25.5s9.83398 24.5 12.501 40.5s4.66699 34 6 54l77 -8
c-1.33301 -24 -3.83301 -47.667 -7.5 -71s-11 -44.166 -22 -62.499s-26.833 -33.166 -47.5 -44.499s-48.334 -17 -83.001 -17c-42 0 -74.667 7.5 -98 22.5s-40.5 35.5 -51.5 61.5s-17.5 56 -19.5 90s-3 70 -3 108c0 38.667 1 75 3 109s8.83301 63.667 20.5 89
s29.667 45.5 54 60.5s58.5 22.5 102.5 22.5zM234.004 612.999h-82v120h82v-120z" />
    <glyph glyph-name="Ccaron" unicode="&#x10c;" horiz-adv-x="444" 
d="M228 680c-22 0 -39.3301 -5.83105 -51.9971 -17.498s-22 -29.834 -28 -54.501s-9.83301 -56.5 -11.5 -95.5s-2.5 -85.833 -2.5 -140.5c0 -55.333 0.833008 -102.333 2.5 -141s5.5 -70.334 11.5 -95.001s15.333 -42.5 28 -53.5s30 -16.5 52 -16.5s39 3.33301 51 10
s20.833 17.5 26.5 32.5s9.16699 34.833 10.5 59.5s2.66602 55.334 3.99902 92.001l99 -8c-3.33301 -45.333 -6.83301 -84.5 -10.5 -117.5s-11.667 -60.5 -24 -82.5s-30.5 -38.333 -54.5 -49s-58 -16 -102 -16c-48 0 -85.333 8.16699 -112 24.5s-46.334 40.5 -59.001 72.5
s-20.334 72 -23.001 120s-4 104 -4 168c0 63.333 1.33301 119 4 167s10.334 88.333 23.001 121s32.334 57.167 59.001 73.5s64 24.5 112 24.5c44.667 0 79.5 -4.5 104.5 -13.5s43.667 -23.833 56 -44.5s20.166 -47.5 23.499 -80.5s5.66602 -73.5 6.99902 -121.5l-97 -13
c-1.33301 41.333 -2.83301 74.666 -4.5 99.999s-5.5 45 -11.5 59s-15 23.5 -27 28.5s-29 7.5 -51 7.5zM330.003 937.002l-76 -126h-64l-78 127l52 25l58 -104l60 106z" />
    <glyph glyph-name="ccaron" unicode="&#x10d;" horiz-adv-x="387" 
d="M210 552c28 0 51.1709 -3.16797 69.5039 -9.50098s33.166 -16.5 44.499 -30.5s19.666 -32.333 24.999 -55s8.66602 -50.334 9.99902 -83.001l-77 -12c-2.66699 41.333 -8.5 70.833 -17.5 88.5s-27.167 26.5 -54.5 26.5c-21.333 0 -37.833 -4.66699 -49.5 -14
s-20.334 -23 -26.001 -41s-9 -39.667 -10 -65s-1.5 -54 -1.5 -86s0.5 -60.833 1.5 -86.5s4 -47.5 9 -65.5s12.833 -31.833 23.5 -41.5s25.667 -14.5 45 -14.5c16.667 0 30.167 3 40.5 9s18.333 14.5 24 25.5s9.83398 24.5 12.501 40.5s4.66699 34 6 54l77 -8
c-1.33301 -24 -3.83301 -47.667 -7.5 -71s-11 -44.166 -22 -62.499s-26.833 -33.166 -47.5 -44.499s-48.334 -17 -83.001 -17c-42 0 -74.667 7.5 -98 22.5s-40.5 35.5 -51.5 61.5s-17.5 56 -19.5 90s-3 70 -3 108c0 38.667 1 75 3 109s8.83301 63.667 20.5 89
s29.667 45.5 54 60.5s58.5 22.5 102.5 22.5zM302.004 734.999l-76 -126h-64l-78 127l52 25l58 -104l60 106z" />
    <glyph glyph-name="Dcaron" unicode="&#x10e;" 
d="M207 745c54 0 96.5 -7.83496 127.5 -23.502s54.333 -39 70 -70s25.5 -69.833 29.5 -116.5s6 -101 6 -163c0 -68 -1.83301 -125.667 -5.5 -173s-13 -85.666 -28 -114.999s-37.667 -50.666 -68 -63.999s-71.833 -20 -124.5 -20h-174v745h167zM138 668.998
l0.00292969 -587.001h78c28 0 50.167 5.33301 66.5 16s28.666 27.667 36.999 51s13.666 53.333 15.999 90s3.5 81 3.5 133c0 54.667 -1 100.834 -3 138.501s-7.16699 68.167 -15.5 91.5s-21.333 40.333 -39 51s-41.834 16 -72.501 16h-71zM321.003 936.997l-76 -126h-64
l-78 127l52 25l58 -104l60 106z" />
    <glyph glyph-name="dcaron" unicode="&#x10f;" horiz-adv-x="536" 
d="M387 0l-78.998 -0.00390625c-1.33301 4 -2.33301 9.33301 -3 16s-1.33398 13.834 -2.00098 21.501s-1.16699 15 -1.5 22s-0.5 12.833 -0.5 17.5c-10.667 -25.333 -25.834 -46.166 -45.501 -62.499s-46.5 -24.5 -80.5 -24.5c-34.667 0 -61.667 7 -81 21
s-33.833 33 -43.5 57s-15.5 52 -17.5 84s-3 66.333 -3 103c0 44.667 1.16699 85.334 3.5 122.001s8.5 68 18.5 94s25.167 46 45.5 60s48.5 21 84.5 21c29.333 0 53.333 -6.66699 72 -20s32 -28.666 40 -45.999v302l93 17v-805zM204.002 475.996
c-18.667 0 -33.168 -4.16699 -43.501 -12.5s-18.166 -21.166 -23.499 -38.499s-8.66602 -39.833 -9.99902 -67.5s-2 -60.834 -2 -99.501c0 -33.333 0.5 -62.166 1.5 -86.499s3.66699 -44.5 8 -60.5s11.166 -28 20.499 -36s22.333 -12 39 -12c16 0 29.5 2.66699 40.5 8
s20.333 12.5 28 21.5s14 19.667 19 32s9.16699 25.5 12.5 39.5v249c-8.66699 19.333 -21 34.666 -37 45.999s-33.667 17 -53 17zM532.001 722.996c0 -17.333 -5.16797 -35 -15.501 -53s-23.166 -33.667 -38.499 -47l-24 16c9.33301 9.33301 17 19.833 23 31.5
s9 24.167 9 37.5h-43v97h89v-82z" />
    <glyph glyph-name="Dcroat" unicode="&#x110;" 
d="M4 433l36 -0.00195312v312h167c54 0 96.5 -7.83301 127.5 -23.5s54.333 -39 70 -70s25.5 -69.833 29.5 -116.5s6 -101 6 -163c0 -68 -1.83301 -125.667 -5.5 -173s-13 -85.666 -28 -114.999s-37.667 -50.666 -68 -63.999s-71.833 -20 -124.5 -20h-174v354h-36v79z
M138 668.998l0.00292969 -236.001h121l-8 -79h-113v-272h78c28 0 50.167 5.33301 66.5 16s28.666 27.667 36.999 51s13.666 53.333 15.999 90s3.5 81 3.5 133c0 54.667 -1 100.834 -3 138.501s-7.16699 68.167 -15.5 91.5s-21.333 40.333 -39 51s-41.834 16 -72.501 16h-71z
" />
    <glyph glyph-name="dcroat" unicode="&#x111;" horiz-adv-x="427" 
d="M387 713l32.002 -0.00390625l-8 -63h-24v-650h-79c-1.33301 4 -2.33301 9.33301 -3 16s-1.33398 13.834 -2.00098 21.501s-1.16699 15 -1.5 22s-0.5 12.833 -0.5 17.5c-10.667 -25.333 -25.834 -46.166 -45.501 -62.499s-46.5 -24.5 -80.5 -24.5
c-34.667 0 -61.667 7 -81 21s-33.833 33 -43.5 57s-15.5 52 -17.5 84s-3 66.333 -3 103c0 44.667 1.16699 85.334 3.5 122.001s8.5 68 18.5 94s25.167 46 45.5 60s48.5 21 84.5 21c29.333 0 53.333 -6.66699 72 -20s32 -28.666 40 -45.999v164h-96l8 63h88v75l93 17v-92z
M204.002 475.996c-18.667 0 -33.168 -4.16699 -43.501 -12.5s-18.166 -21.166 -23.499 -38.499s-8.66602 -39.833 -9.99902 -67.5s-2 -60.834 -2 -99.501c0 -33.333 0.5 -62.166 1.5 -86.499s3.66699 -44.5 8 -60.5s11.166 -28 20.499 -36s22.333 -12 39 -12
c16 0 29.5 2.66699 40.5 8s20.333 12.5 28 21.5s14 19.667 19 32s9.16699 25.5 12.5 39.5v249c-8.66699 19.333 -21 34.666 -37 45.999s-33.667 17 -53 17z" />
    <glyph glyph-name="Emacron" unicode="&#x112;" horiz-adv-x="353" 
d="M326 745v-78h-187v-235h157l-7 -79h-150v-277h192v-76h-291v745h286zM354 892v-65h-352v65h352z" />
    <glyph glyph-name="emacron" unicode="&#x113;" horiz-adv-x="411" 
d="M207 552c42.667 0 75.8281 -7.33496 99.4951 -22.002s41.167 -33.667 52.5 -57s18 -49.333 20 -78s3 -57 3 -85v-42h-263c0 -27.333 0.833008 -53.333 2.5 -78s5.66699 -46.5 12 -65.5s16 -34 29 -45s31.167 -16.5 54.5 -16.5c32.667 0 54.834 9.66699 66.501 29
s19.167 45.666 22.5 78.999l76 -11c-3.33301 -28 -8.66602 -52.667 -15.999 -74s-17.5 -39.166 -30.5 -53.499s-29.667 -25.166 -50 -32.499s-45.166 -11 -74.499 -11c-43.333 0 -77 7.83301 -101 23.5s-42 36.5 -54 62.5s-19.333 55.833 -22 89.5s-4 68.5 -4 104.5
c0 38.667 1.33301 75.334 4 110.001s9.83398 64.667 21.501 90s29.334 45.5 53.001 60.5s56.5 22.5 98.5 22.5zM207.994 484.998c-20 0 -35.499 -4.00098 -46.499 -12.001s-19.5 -19 -25.5 -33s-9.83301 -30.833 -11.5 -50.5s-2.83398 -41.5 -3.50098 -65.5h173v40
c0 16.667 -1.16699 32.334 -3.5 47.001s-6.5 27.5 -12.5 38.5s-14.667 19.667 -26 26s-26 9.5 -44 9.5zM380.995 689.997v-65h-352v65h352z" />
    <glyph glyph-name="Ebreve" unicode="&#x114;" horiz-adv-x="353" 
d="M326 745v-78h-187v-235h157l-7 -79h-150v-277h192v-76h-291v745h286zM326 939c-9.33301 -39.333 -26.502 -70.5 -51.502 -93.5s-56.833 -34.5 -95.5 -34.5s-71.834 11.5 -99.501 34.5s-45.167 54.5 -52.5 94.5l49 17c2.66699 -12.667 6.83398 -24.834 12.501 -36.501
s12.834 -22 21.501 -31s18.834 -16.167 30.501 -21.5s24.5 -8 38.5 -8c28 0 51 9.83301 69 29.5s29.667 42.834 35 69.501z" />
    <glyph glyph-name="ebreve" unicode="&#x115;" horiz-adv-x="411" 
d="M207 552c42.667 0 75.8281 -7.33496 99.4951 -22.002s41.167 -33.667 52.5 -57s18 -49.333 20 -78s3 -57 3 -85v-42h-263c0 -27.333 0.833008 -53.333 2.5 -78s5.66699 -46.5 12 -65.5s16 -34 29 -45s31.167 -16.5 54.5 -16.5c32.667 0 54.834 9.66699 66.501 29
s19.167 45.666 22.5 78.999l76 -11c-3.33301 -28 -8.66602 -52.667 -15.999 -74s-17.5 -39.166 -30.5 -53.499s-29.667 -25.166 -50 -32.499s-45.166 -11 -74.499 -11c-43.333 0 -77 7.83301 -101 23.5s-42 36.5 -54 62.5s-19.333 55.833 -22 89.5s-4 68.5 -4 104.5
c0 38.667 1.33301 75.334 4 110.001s9.83398 64.667 21.501 90s29.334 45.5 53.001 60.5s56.5 22.5 98.5 22.5zM207.994 484.998c-20 0 -35.499 -4.00098 -46.499 -12.001s-19.5 -19 -25.5 -33s-9.83301 -30.833 -11.5 -50.5s-2.83398 -41.5 -3.50098 -65.5h173v40
c0 16.667 -1.16699 32.334 -3.5 47.001s-6.5 27.5 -12.5 38.5s-14.667 19.667 -26 26s-26 9.5 -44 9.5zM354.995 736.997c-9.33301 -39.333 -26.502 -70.5 -51.502 -93.5s-56.833 -34.5 -95.5 -34.5s-71.834 11.5 -99.501 34.5s-45.167 54.5 -52.5 94.5l49 17
c2.66699 -12.667 6.83398 -24.834 12.501 -36.501s12.834 -22 21.501 -31s18.834 -16.167 30.501 -21.5s24.5 -8 38.5 -8c28 0 51 9.83301 69 29.5s29.667 42.834 35 69.501z" />
    <glyph glyph-name="Edotaccent" unicode="&#x116;" horiz-adv-x="353" 
d="M326 745v-78h-187v-235h157l-7 -79h-150v-277h192v-76h-291v745h286zM217 815h-82v120h82v-120z" />
    <glyph glyph-name="edotaccent" unicode="&#x117;" horiz-adv-x="411" 
d="M207 552c42.667 0 75.8281 -7.33496 99.4951 -22.002s41.167 -33.667 52.5 -57s18 -49.333 20 -78s3 -57 3 -85v-42h-263c0 -27.333 0.833008 -53.333 2.5 -78s5.66699 -46.5 12 -65.5s16 -34 29 -45s31.167 -16.5 54.5 -16.5c32.667 0 54.834 9.66699 66.501 29
s19.167 45.666 22.5 78.999l76 -11c-3.33301 -28 -8.66602 -52.667 -15.999 -74s-17.5 -39.166 -30.5 -53.499s-29.667 -25.166 -50 -32.499s-45.166 -11 -74.499 -11c-43.333 0 -77 7.83301 -101 23.5s-42 36.5 -54 62.5s-19.333 55.833 -22 89.5s-4 68.5 -4 104.5
c0 38.667 1.33301 75.334 4 110.001s9.83398 64.667 21.501 90s29.334 45.5 53.001 60.5s56.5 22.5 98.5 22.5zM207.994 484.998c-20 0 -35.499 -4.00098 -46.499 -12.001s-19.5 -19 -25.5 -33s-9.83301 -30.833 -11.5 -50.5s-2.83398 -41.5 -3.50098 -65.5h173v40
c0 16.667 -1.16699 32.334 -3.5 47.001s-6.5 27.5 -12.5 38.5s-14.667 19.667 -26 26s-26 9.5 -44 9.5zM245.995 612.997h-82v120h82v-120z" />
    <glyph glyph-name="Eogonek" unicode="&#x118;" horiz-adv-x="353" 
d="M326 745l-0.00195312 -78.0029h-187v-235h157l-7 -79h-150v-277h192v-76c-8 -10.667 -15.5 -21.667 -22.5 -33s-13.167 -22 -18.5 -32s-9.66602 -19.167 -12.999 -27.5s-5 -14.833 -5 -19.5c0 -10.667 4 -18.167 12 -22.5s18 -6.5 30 -6.5c12.667 0 26.334 2 41.001 6
s28.667 9.66699 42 17l-29 -73c-37.333 -18.667 -70.333 -28 -99 -28c-16.667 0 -30.167 3.83301 -40.5 11.5s-15.5 19.834 -15.5 36.501c0 6.66699 1.16699 14.334 3.5 23.001s6.5 19.5 12.5 32.5s14.333 28.833 25 47.5s24.667 41.334 42 68.001h-256v745h286z" />
    <glyph glyph-name="eogonek" unicode="&#x119;" horiz-adv-x="411" 
d="M207 552c42.667 0 75.8281 -7.33398 99.4951 -22.001s41.167 -33.667 52.5 -57s18 -49.333 20 -78s3 -57 3 -85v-42h-263c0 -27.333 0.833008 -53.333 2.5 -78s5.66699 -46.5 12 -65.5s16 -34 29 -45s31.167 -16.5 54.5 -16.5c32.667 0 54.834 9.16699 66.501 27.5
s19.167 45.166 22.5 80.499l76 -11c-5.33301 -42 -15.166 -76.5 -29.499 -103.5s-36.833 -45.833 -67.5 -56.5c-15.333 -22 -29 -43.5 -41 -64.5s-18 -36.833 -18 -47.5s4 -18.167 12 -22.5s18 -6.5 30 -6.5c12.667 0 26.334 2 41.001 6s28.667 9.66699 42 17l-29 -73
c-37.333 -18.667 -70.333 -28 -99 -28c-16.667 0 -30.167 3.83301 -40.5 11.5s-15.5 19.834 -15.5 36.501c0 14.667 2.5 29 7.5 43s11.333 27.667 19 41s16 26.5 25 39.5s17.5 26.167 25.5 39.5l-16 -2c-5.33301 -0.666992 -11 -1 -17 -1c-43.333 0 -77 7.83301 -101 23.5
s-42 36.5 -54 62.5s-19.333 55.833 -22 89.5s-4 68.5 -4 104.5c0 38.667 1.33301 75.334 4 110.001s9.83398 64.667 21.501 90s29.334 45.5 53.001 60.5s56.5 22.5 98.5 22.5zM207.994 484.999c-20 0 -35.499 -4.00098 -46.499 -12.001s-19.5 -19 -25.5 -33
s-9.83301 -30.833 -11.5 -50.5s-2.83398 -41.5 -3.50098 -65.5h173v40c0 16.667 -1.16699 32.334 -3.5 47.001s-6.5 27.5 -12.5 38.5s-14.667 19.667 -26 26s-26 9.5 -44 9.5z" />
    <glyph glyph-name="Ecaron" unicode="&#x11a;" horiz-adv-x="353" 
d="M326 745v-78h-187v-235h157l-7 -79h-150v-277h192v-76h-291v745h286zM285 937l-76 -126h-64l-78 127l52 25l58 -104l60 106z" />
    <glyph glyph-name="ecaron" unicode="&#x11b;" horiz-adv-x="411" 
d="M207 552c42.667 0 75.8281 -7.33496 99.4951 -22.002s41.167 -33.667 52.5 -57s18 -49.333 20 -78s3 -57 3 -85v-42h-263c0 -27.333 0.833008 -53.333 2.5 -78s5.66699 -46.5 12 -65.5s16 -34 29 -45s31.167 -16.5 54.5 -16.5c32.667 0 54.834 9.66699 66.501 29
s19.167 45.666 22.5 78.999l76 -11c-3.33301 -28 -8.66602 -52.667 -15.999 -74s-17.5 -39.166 -30.5 -53.499s-29.667 -25.166 -50 -32.499s-45.166 -11 -74.499 -11c-43.333 0 -77 7.83301 -101 23.5s-42 36.5 -54 62.5s-19.333 55.833 -22 89.5s-4 68.5 -4 104.5
c0 38.667 1.33301 75.334 4 110.001s9.83398 64.667 21.501 90s29.334 45.5 53.001 60.5s56.5 22.5 98.5 22.5zM207.994 484.998c-20 0 -35.499 -4.00098 -46.499 -12.001s-19.5 -19 -25.5 -33s-9.83301 -30.833 -11.5 -50.5s-2.83398 -41.5 -3.50098 -65.5h173v40
c0 16.667 -1.16699 32.334 -3.5 47.001s-6.5 27.5 -12.5 38.5s-14.667 19.667 -26 26s-26 9.5 -44 9.5zM313.995 734.997l-76 -126h-64l-78 127l52 25l58 -104l60 106z" />
    <glyph glyph-name="Gcircumflex" unicode="&#x11c;" horiz-adv-x="447" 
d="M414 382l-0.00292969 -381.997h-73l-9 71c-4.66699 -11.333 -10.5 -22 -17.5 -32s-15.833 -18.833 -26.5 -26.5s-23.667 -13.834 -39 -18.501s-33.333 -7 -54 -7c-40 0 -71.167 9.16699 -93.5 27.5s-38.666 44.5 -48.999 78.5s-16.666 75 -18.999 123
s-3.5 101.667 -3.5 161c0 58 1.33301 110.5 4 157.5s10.334 87 23.001 120s32.334 58.5 59.001 76.5s64.334 27 113.001 27c43.333 0 77 -4.33301 101 -13s42 -22.334 54 -41.001s19.5 -42.834 22.5 -72.501s5.5 -65.167 7.5 -106.5l-82 -20c-1.33301 31.333 -3 58 -5 80
s-6.33301 40 -13 54s-16.167 24.167 -28.5 30.5s-29.833 9.5 -52.5 9.5c-24.667 0 -43.834 -6.33301 -57.501 -19s-23.834 -31.5 -30.501 -56.5s-10.834 -56.5 -12.501 -94.5s-2.5 -82 -2.5 -132c0 -46.667 0.666992 -89.167 2 -127.5s5 -71 11 -98s14.833 -48 26.5 -63
s27.834 -22.5 48.501 -22.5c29.333 0 53 9.33301 71 28s28.667 43 32 73v137h-93l13 78h173zM113.997 846.003l76 127h64l78 -128l-52 -25l-59 104l-59 -106z" />
    <glyph glyph-name="gcircumflex" unicode="&#x11d;" horiz-adv-x="376" 
d="M343 378c0 -23.333 -2.33398 -45.6699 -7.00098 -67.0029s-12.334 -40.166 -23.001 -56.499s-24.5 -29.333 -41.5 -39s-37.5 -14.5 -61.5 -14.5h-18c-6 0 -11.667 0.333008 -17 1c-9.33301 -5.33301 -16 -11.5 -20 -18.5s-6 -17.167 -6 -30.5
c0 -11.333 3.66699 -22 11 -32s19.333 -15 36 -15h53c16 0 31.333 -2.83301 46 -8.5s27.834 -14.5 39.501 -26.5s20.834 -27.5 27.501 -46.5s10 -41.833 10 -68.5c0 -63.333 -12.667 -108.333 -38 -135s-65.333 -40 -120 -40h-84c-42.667 0 -74.334 11.667 -95.001 35
s-31 53 -31 89c0 44.667 9 76.834 27 96.501s46 32.5 84 38.5c-10 4 -18.833 8.33301 -26.5 13s-14 10.5 -19 17.5s-8.66699 15.5 -11 25.5s-3.5 22.333 -3.5 37c0 26 5.33301 46.5 16 61.5s26 25.167 46 30.5c-28 14 -48 34 -60 60s-18 57 -18 93
c0 20.667 2 40.834 6 60.501s11.667 37.167 23 52.5s27 27.833 47 37.5s45.667 14.5 77 14.5c11.333 0 21.833 -0.833008 31.5 -2.5s18.5 -3.83398 26.5 -6.50098c6.66699 21.333 14.5 41 23.5 59s19.167 32.333 30.5 43l56 -30
c-13.333 -9.33301 -26.166 -22.666 -38.499 -39.999s-22.5 -35 -30.5 -53c20 -15.333 33.667 -35.333 41 -60s11 -49.667 11 -75zM86.999 -66.0039c0 -18 2.16797 -32.501 6.50098 -43.501s11.166 -19.667 20.499 -26s21.333 -10.666 36 -12.999s32 -3.5 52 -3.5
c36 0 61.167 6.83301 75.5 20.5s21.5 37.167 21.5 70.5c0 32 -7.33301 53.167 -22 63.5s-38 15.5 -70 15.5c-20 0 -37.5 -1 -52.5 -3s-27.5 -6 -37.5 -12s-17.5 -14.5 -22.5 -25.5s-7.5 -25.5 -7.5 -43.5zM192 260.995c24 0 40.501 8.66699 49.501 26s13.5 47 13.5 89
c0 41.333 -4.33301 69.833 -13 85.5s-25.334 23.5 -50.001 23.5s-41.167 -8.16699 -49.5 -24.5s-12.5 -44.5 -12.5 -84.5c0 -40.667 4.16699 -70 12.5 -88s24.833 -27 49.5 -27zM78.001 643.995l76 127h64l78 -128l-52 -25l-59 104l-59 -106z" />
    <glyph glyph-name="Gbreve" unicode="&#x11e;" horiz-adv-x="447" 
d="M414 382l-0.00292969 -381.997h-73l-9 71c-4.66699 -11.333 -10.5 -22 -17.5 -32s-15.833 -18.833 -26.5 -26.5s-23.667 -13.834 -39 -18.501s-33.333 -7 -54 -7c-40 0 -71.167 9.16699 -93.5 27.5s-38.666 44.5 -48.999 78.5s-16.666 75 -18.999 123
s-3.5 101.667 -3.5 161c0 58 1.33301 110.5 4 157.5s10.334 87 23.001 120s32.334 58.5 59.001 76.5s64.334 27 113.001 27c43.333 0 77 -4.33301 101 -13s42 -22.334 54 -41.001s19.5 -42.834 22.5 -72.501s5.5 -65.167 7.5 -106.5l-82 -20c-1.33301 31.333 -3 58 -5 80
s-6.33301 40 -13 54s-16.167 24.167 -28.5 30.5s-29.833 9.5 -52.5 9.5c-24.667 0 -43.834 -6.33301 -57.501 -19s-23.834 -31.5 -30.501 -56.5s-10.834 -56.5 -12.501 -94.5s-2.5 -82 -2.5 -132c0 -46.667 0.666992 -89.167 2 -127.5s5 -71 11 -98s14.833 -48 26.5 -63
s27.834 -22.5 48.501 -22.5c29.333 0 53 9.33301 71 28s28.667 43 32 73v137h-93l13 78h173zM372.997 939.003c-9.33301 -39.333 -26.502 -70.5 -51.502 -93.5s-56.833 -34.5 -95.5 -34.5s-71.834 11.5 -99.501 34.5s-45.167 54.5 -52.5 94.5l49 17
c2.66699 -12.667 6.83398 -24.834 12.501 -36.501s12.834 -22 21.501 -31s18.834 -16.167 30.501 -21.5s24.5 -8 38.5 -8c28 0 51 9.83301 69 29.5s29.667 42.834 35 69.501z" />
    <glyph glyph-name="gbreve" unicode="&#x11f;" horiz-adv-x="376" 
d="M343 378c0 -23.333 -2.33398 -45.6699 -7.00098 -67.0029s-12.334 -40.166 -23.001 -56.499s-24.5 -29.333 -41.5 -39s-37.5 -14.5 -61.5 -14.5h-18c-6 0 -11.667 0.333008 -17 1c-9.33301 -5.33301 -16 -11.5 -20 -18.5s-6 -17.167 -6 -30.5
c0 -11.333 3.66699 -22 11 -32s19.333 -15 36 -15h53c16 0 31.333 -2.83301 46 -8.5s27.834 -14.5 39.501 -26.5s20.834 -27.5 27.501 -46.5s10 -41.833 10 -68.5c0 -63.333 -12.667 -108.333 -38 -135s-65.333 -40 -120 -40h-84c-42.667 0 -74.334 11.667 -95.001 35
s-31 53 -31 89c0 44.667 9 76.834 27 96.501s46 32.5 84 38.5c-10 4 -18.833 8.33301 -26.5 13s-14 10.5 -19 17.5s-8.66699 15.5 -11 25.5s-3.5 22.333 -3.5 37c0 26 5.33301 46.5 16 61.5s26 25.167 46 30.5c-28 14 -48 34 -60 60s-18 57 -18 93
c0 20.667 2 40.834 6 60.501s11.667 37.167 23 52.5s27 27.833 47 37.5s45.667 14.5 77 14.5c11.333 0 21.833 -0.833008 31.5 -2.5s18.5 -3.83398 26.5 -6.50098c6.66699 21.333 14.5 41 23.5 59s19.167 32.333 30.5 43l56 -30
c-13.333 -9.33301 -26.166 -22.666 -38.499 -39.999s-22.5 -35 -30.5 -53c20 -15.333 33.667 -35.333 41 -60s11 -49.667 11 -75zM86.999 -66.0039c0 -18 2.16797 -32.501 6.50098 -43.501s11.166 -19.667 20.499 -26s21.333 -10.666 36 -12.999s32 -3.5 52 -3.5
c36 0 61.167 6.83301 75.5 20.5s21.5 37.167 21.5 70.5c0 32 -7.33301 53.167 -22 63.5s-38 15.5 -70 15.5c-20 0 -37.5 -1 -52.5 -3s-27.5 -6 -37.5 -12s-17.5 -14.5 -22.5 -25.5s-7.5 -25.5 -7.5 -43.5zM192 260.995c24 0 40.501 8.66699 49.501 26s13.5 47 13.5 89
c0 41.333 -4.33301 69.833 -13 85.5s-25.334 23.5 -50.001 23.5s-41.167 -8.16699 -49.5 -24.5s-12.5 -44.5 -12.5 -84.5c0 -40.667 4.16699 -70 12.5 -88s24.833 -27 49.5 -27zM337.001 736.995c-9.33301 -39.333 -26.502 -70.5 -51.502 -93.5s-56.833 -34.5 -95.5 -34.5
s-71.834 11.5 -99.501 34.5s-45.167 54.5 -52.5 94.5l49 17c2.66699 -12.667 6.83398 -24.834 12.501 -36.501s12.834 -22 21.501 -31s18.834 -16.167 30.501 -21.5s24.5 -8 38.5 -8c28 0 51 9.83301 69 29.5s29.667 42.834 35 69.501z" />
    <glyph glyph-name="Gdotaccent" unicode="&#x120;" horiz-adv-x="447" 
d="M414 382l-0.00292969 -381.997h-73l-9 71c-4.66699 -11.333 -10.5 -22 -17.5 -32s-15.833 -18.833 -26.5 -26.5s-23.667 -13.834 -39 -18.501s-33.333 -7 -54 -7c-40 0 -71.167 9.16699 -93.5 27.5s-38.666 44.5 -48.999 78.5s-16.666 75 -18.999 123
s-3.5 101.667 -3.5 161c0 58 1.33301 110.5 4 157.5s10.334 87 23.001 120s32.334 58.5 59.001 76.5s64.334 27 113.001 27c43.333 0 77 -4.33301 101 -13s42 -22.334 54 -41.001s19.5 -42.834 22.5 -72.501s5.5 -65.167 7.5 -106.5l-82 -20c-1.33301 31.333 -3 58 -5 80
s-6.33301 40 -13 54s-16.167 24.167 -28.5 30.5s-29.833 9.5 -52.5 9.5c-24.667 0 -43.834 -6.33301 -57.501 -19s-23.834 -31.5 -30.501 -56.5s-10.834 -56.5 -12.501 -94.5s-2.5 -82 -2.5 -132c0 -46.667 0.666992 -89.167 2 -127.5s5 -71 11 -98s14.833 -48 26.5 -63
s27.834 -22.5 48.501 -22.5c29.333 0 53 9.33301 71 28s28.667 43 32 73v137h-93l13 78h173zM263.997 815.003h-82v120h82v-120z" />
    <glyph glyph-name="gdotaccent" unicode="&#x121;" horiz-adv-x="376" 
d="M343 378c0 -23.333 -2.33398 -45.6699 -7.00098 -67.0029s-12.334 -40.166 -23.001 -56.499s-24.5 -29.333 -41.5 -39s-37.5 -14.5 -61.5 -14.5h-18c-6 0 -11.667 0.333008 -17 1c-9.33301 -5.33301 -16 -11.5 -20 -18.5s-6 -17.167 -6 -30.5
c0 -11.333 3.66699 -22 11 -32s19.333 -15 36 -15h53c16 0 31.333 -2.83301 46 -8.5s27.834 -14.5 39.501 -26.5s20.834 -27.5 27.501 -46.5s10 -41.833 10 -68.5c0 -63.333 -12.667 -108.333 -38 -135s-65.333 -40 -120 -40h-84c-42.667 0 -74.334 11.667 -95.001 35
s-31 53 -31 89c0 44.667 9 76.834 27 96.501s46 32.5 84 38.5c-10 4 -18.833 8.33301 -26.5 13s-14 10.5 -19 17.5s-8.66699 15.5 -11 25.5s-3.5 22.333 -3.5 37c0 26 5.33301 46.5 16 61.5s26 25.167 46 30.5c-28 14 -48 34 -60 60s-18 57 -18 93
c0 20.667 2 40.834 6 60.501s11.667 37.167 23 52.5s27 27.833 47 37.5s45.667 14.5 77 14.5c11.333 0 21.833 -0.833008 31.5 -2.5s18.5 -3.83398 26.5 -6.50098c6.66699 21.333 14.5 41 23.5 59s19.167 32.333 30.5 43l56 -30
c-13.333 -9.33301 -26.166 -22.666 -38.499 -39.999s-22.5 -35 -30.5 -53c20 -15.333 33.667 -35.333 41 -60s11 -49.667 11 -75zM86.999 -66.0039c0 -18 2.16797 -32.501 6.50098 -43.501s11.166 -19.667 20.499 -26s21.333 -10.666 36 -12.999s32 -3.5 52 -3.5
c36 0 61.167 6.83301 75.5 20.5s21.5 37.167 21.5 70.5c0 32 -7.33301 53.167 -22 63.5s-38 15.5 -70 15.5c-20 0 -37.5 -1 -52.5 -3s-27.5 -6 -37.5 -12s-17.5 -14.5 -22.5 -25.5s-7.5 -25.5 -7.5 -43.5zM192 260.995c24 0 40.501 8.66699 49.501 26s13.5 47 13.5 89
c0 41.333 -4.33301 69.833 -13 85.5s-25.334 23.5 -50.001 23.5s-41.167 -8.16699 -49.5 -24.5s-12.5 -44.5 -12.5 -84.5c0 -40.667 4.16699 -70 12.5 -88s24.833 -27 49.5 -27zM229.001 612.995h-82v120h82v-120z" />
    <glyph glyph-name="Gcommaaccent" unicode="&#x122;" horiz-adv-x="447" 
d="M414 382l-0.00292969 -381.997h-73l-9 71c-4.66699 -11.333 -10.5 -22 -17.5 -32s-15.833 -18.833 -26.5 -26.5s-23.667 -13.834 -39 -18.501s-33.333 -7 -54 -7c-40 0 -71.167 9.16699 -93.5 27.5s-38.666 44.5 -48.999 78.5s-16.666 75 -18.999 123
s-3.5 101.667 -3.5 161c0 58 1.33301 110.5 4 157.5s10.334 87 23.001 120s32.334 58.5 59.001 76.5s64.334 27 113.001 27c43.333 0 77 -4.33301 101 -13s42 -22.334 54 -41.001s19.5 -42.834 22.5 -72.501s5.5 -65.167 7.5 -106.5l-82 -20c-1.33301 31.333 -3 58 -5 80
s-6.33301 40 -13 54s-16.167 24.167 -28.5 30.5s-29.833 9.5 -52.5 9.5c-24.667 0 -43.834 -6.33301 -57.501 -19s-23.834 -31.5 -30.501 -56.5s-10.834 -56.5 -12.501 -94.5s-2.5 -82 -2.5 -132c0 -46.667 0.666992 -89.167 2 -127.5s5 -71 11 -98s14.833 -48 26.5 -63
s27.834 -22.5 48.501 -22.5c29.333 0 53 9.33301 71 28s28.667 43 32 73v137h-93l13 78h173zM267.997 -118.997c0 -17.333 -5.16797 -35 -15.501 -53s-23.166 -33.667 -38.499 -47l-24 16c9.33301 9.33301 17 19.833 23 31.5s9 24.167 9 37.5h-43v97h89v-82z" />
    <glyph glyph-name="gcommaaccent" unicode="&#x123;" horiz-adv-x="376" 
d="M343 378c0 -23.333 -2.33398 -45.6699 -7.00098 -67.0029s-12.334 -40.166 -23.001 -56.499s-24.5 -29.333 -41.5 -39s-37.5 -14.5 -61.5 -14.5h-18c-6 0 -11.667 0.333008 -17 1c-9.33301 -5.33301 -16 -11.5 -20 -18.5s-6 -17.167 -6 -30.5
c0 -11.333 3.66699 -22 11 -32s19.333 -15 36 -15h53c16 0 31.333 -2.83301 46 -8.5s27.834 -14.5 39.501 -26.5s20.834 -27.5 27.501 -46.5s10 -41.833 10 -68.5c0 -63.333 -12.667 -108.333 -38 -135s-65.333 -40 -120 -40h-84c-42.667 0 -74.334 11.667 -95.001 35
s-31 53 -31 89c0 44.667 9 76.834 27 96.501s46 32.5 84 38.5c-10 4 -18.833 8.33301 -26.5 13s-14 10.5 -19 17.5s-8.66699 15.5 -11 25.5s-3.5 22.333 -3.5 37c0 26 5.33301 46.5 16 61.5s26 25.167 46 30.5c-28 14 -48 34 -60 60s-18 57 -18 93
c0 20.667 2 40.834 6 60.501s11.667 37.167 23 52.5s27 27.833 47 37.5s45.667 14.5 77 14.5c11.333 0 21.833 -0.833008 31.5 -2.5s18.5 -3.83398 26.5 -6.50098c6.66699 21.333 14.5 41 23.5 59s19.167 32.333 30.5 43l56 -30
c-13.333 -9.33301 -26.166 -22.666 -38.499 -39.999s-22.5 -35 -30.5 -53c20 -15.333 33.667 -35.333 41 -60s11 -49.667 11 -75zM86.999 -66.0039c0 -18 2.16797 -32.501 6.50098 -43.501s11.166 -19.667 20.499 -26s21.333 -10.666 36 -12.999s32 -3.5 52 -3.5
c36 0 61.167 6.83301 75.5 20.5s21.5 37.167 21.5 70.5c0 32 -7.33301 53.167 -22 63.5s-38 15.5 -70 15.5c-20 0 -37.5 -1 -52.5 -3s-27.5 -6 -37.5 -12s-17.5 -14.5 -22.5 -25.5s-7.5 -25.5 -7.5 -43.5zM192 260.995c24 0 40.501 8.66699 49.501 26s13.5 47 13.5 89
c0 41.333 -4.33301 69.833 -13 85.5s-25.334 23.5 -50.001 23.5s-41.167 -8.16699 -49.5 -24.5s-12.5 -44.5 -12.5 -84.5c0 -40.667 4.16699 -70 12.5 -88s24.833 -27 49.5 -27zM148.008 704.988c0 17.332 5.16504 34.9971 15.498 52.9961s23.166 33.665 38.499 46.9971
l23.998 -15.999c-9.33301 -9.33301 -16.999 -19.832 -22.998 -31.498c-6 -11.666 -9 -24.165 -9 -37.4971h42.998v-96.9941h-88.9951v81.9951z" />
    <glyph glyph-name="Hcircumflex" unicode="&#x124;" horiz-adv-x="451" 
d="M140 745v-321h172v321h99v-745h-99v346h-172v-346h-100v745h100zM116 846l76 127h64l78 -128l-52 -25l-59 104l-59 -106z" />
    <glyph glyph-name="hcircumflex" unicode="&#x125;" horiz-adv-x="431" 
d="M297 0v412c0 20 -5.33301 35.667 -16 47s-26.334 17 -47.001 17c-23.333 0 -42.166 -6.66699 -56.499 -20s-28.833 -35 -43.5 -65v-391h-94v788l94 17v-333c15.333 23.333 33.5 42.5 54.5 57.5s48.833 22.5 83.5 22.5c24 0 43.667 -4 59 -12s27.5 -18.833 36.5 -32.5
s15.167 -29.167 18.5 -46.5s5 -35.333 5 -54v-407h-94zM-18 846l76 127h64l78 -128l-52 -25l-59 104l-59 -106z" />
    <glyph glyph-name="Hbar" unicode="&#x126;" horiz-adv-x="451" 
d="M140 745v-132h172v132h99v-745h-99v346h-172v-346h-100v745h100zM312 424v124h-172v-124h172z" />
    <glyph glyph-name="hbar" unicode="&#x127;" horiz-adv-x="431" 
d="M134 650l-0.000976562 -178c15.333 23.333 33.5 42.5 54.5 57.5s48.833 22.5 83.5 22.5c24 0 43.667 -4 59 -12s27.5 -18.833 36.5 -32.5s15.167 -29.167 18.5 -46.5s5 -35.333 5 -54v-407h-94v399c0 26 -4.5 45.333 -13.5 58s-25.5 19 -49.5 19
c-23.333 0 -42.166 -6.66699 -56.499 -20s-28.833 -35 -43.5 -65v-391h-94v650h-34l8 63h26v75l94 17v-92h93l-8 -63h-85z" />
    <glyph glyph-name="Itilde" unicode="&#x128;" horiz-adv-x="179" 
d="M139 745v-745h-99v745h99zM-70 859c7.33301 30 18.8311 51.3311 34.498 63.998s33.5 19 53.5 19c13.333 0 26.333 -2.5 39 -7.5s24.667 -10.5 36 -16.5l32.5 -16.5c10.333 -5 20.166 -7.5 29.499 -7.5c18.667 0 31.334 18.333 38.001 55l59 -19
c-8 -32 -20.333 -54.833 -37 -68.5s-35 -20.5 -55 -20.5c-13.333 0 -26 2.33301 -38 7s-23.833 9.83398 -35.5 15.501l-33 15.5c-10.333 4.66699 -20.166 7 -29.499 7c-8 0 -15.167 -4.66699 -21.5 -14s-12.166 -22.666 -17.499 -39.999z" />
    <glyph glyph-name="itilde" unicode="&#x129;" horiz-adv-x="225" 
d="M-47 657c7.33301 30 18.8311 51.3311 34.498 63.998s33.5 19 53.5 19c13.333 0 26.333 -2.5 39 -7.5s24.667 -10.5 36 -16.5l32.5 -16.5c10.333 -5 20.166 -7.5 29.499 -7.5c18.667 0 31.334 18.333 38.001 55l59 -19c-8 -32 -20.333 -54.833 -37 -68.5
s-35 -20.5 -55 -20.5c-13.333 0 -26 2.33301 -38 7s-23.833 9.83398 -35.5 15.501l-33 15.5c-10.333 4.66699 -20.166 7 -29.499 7c-8 0 -15.167 -4.66699 -21.5 -14s-12.166 -22.666 -17.499 -39.999zM159.998 -0.00195312h-95v543h95v-543z" />
    <glyph glyph-name="uni012A" unicode="&#x12a;" horiz-adv-x="179" 
d="M139 745v-745h-99v745h99zM267 892v-65h-352v65h352z" />
    <glyph glyph-name="imacron" unicode="&#x12b;" horiz-adv-x="225" 
d="M291 690v-65h-352v65h352zM160 0h-95v543h95v-543z" />
    <glyph glyph-name="Ibreve" unicode="&#x12c;" horiz-adv-x="179" 
d="M139 745v-745h-99v745h99zM241 939c-9.33301 -39.333 -26.502 -70.5 -51.502 -93.5s-56.833 -34.5 -95.5 -34.5s-71.834 11.5 -99.501 34.5s-45.167 54.5 -52.5 94.5l49 17c2.66699 -12.667 6.83398 -24.834 12.501 -36.501s12.834 -22 21.501 -31
s18.834 -16.167 30.501 -21.5s24.5 -8 38.5 -8c28 0 51 9.83301 69 29.5s29.667 42.834 35 69.501z" />
    <glyph glyph-name="uni012D" unicode="&#x12d;" horiz-adv-x="225" 
d="M264 737c-9.33301 -39.333 -26.502 -70.5 -51.502 -93.5s-56.833 -34.5 -95.5 -34.5s-71.834 11.5 -99.501 34.5s-45.167 54.5 -52.5 94.5l49 17c2.66699 -12.667 6.83398 -24.834 12.501 -36.501s12.834 -22 21.501 -31s18.834 -16.167 30.501 -21.5s24.5 -8 38.5 -8
c28 0 51 9.83301 69 29.5s29.667 42.834 35 69.501zM159.998 0h-95v543h95v-543z" />
    <glyph glyph-name="Iogonek" unicode="&#x12e;" horiz-adv-x="179" 
d="M139 745l-0.000976562 -745.001c-15.333 -23.333 -29 -45 -41 -65s-18 -35.667 -18 -47c0 -10.667 4 -18.167 12 -22.5s18 -6.5 30 -6.5c12.667 0 26.334 2 41.001 6s28.667 9.66699 42 17l-29 -73c-37.333 -18.667 -70.333 -28 -99 -28c-16.667 0 -30 3.83301 -40 11.5
s-15 19.834 -15 36.501c0 6.66699 1 14.5 3 23.5s6 20 12 33s14.333 28.833 25 47.5s24.667 41 42 67h-64v745h99z" />
    <glyph glyph-name="iogonek" unicode="&#x12f;" horiz-adv-x="174" 
d="M134 0c-8 -10.667 -15.502 -21.6699 -22.502 -33.0029s-13.167 -22 -18.5 -32s-9.66602 -19.167 -12.999 -27.5s-5 -14.833 -5 -19.5c0 -10.667 4 -18.167 12 -22.5s18 -6.5 30 -6.5c12.667 0 26.334 2 41.001 6s28.667 9.66699 42 17l-29 -73
c-37.333 -18.667 -70.333 -28 -99 -28c-16.667 0 -30.167 3.83301 -40.5 11.5s-15.5 19.834 -15.5 36.501c0 6.66699 1.16699 14.334 3.5 23.001s6.5 19.5 12.5 32.5s14.333 28.833 25 47.5s24.667 41.334 42 68.001h-59v543h94v-543zM133.998 652.997h-94v130h94v-130z" />
    <glyph glyph-name="Idotaccent" unicode="&#x130;" horiz-adv-x="179" 
d="M139 745v-745h-99v745h99zM130 815h-82v120h82v-120z" />
    <glyph glyph-name="dotlessi" unicode="&#x131;" horiz-adv-x="175" 
d="M135 0h-95v543h95v-543z" />
    <glyph glyph-name="IJ" unicode="&#x132;" horiz-adv-x="539" 
d="M139 745v-745h-99v745h99zM499 180c0 -30 -1.49902 -56.999 -4.49902 -80.999s-10 -44.333 -21 -61s-27.5 -29.334 -49.5 -38.001s-51.667 -13 -89 -13c-24 0 -44.5 2.33301 -61.5 7s-31.333 11.834 -43 21.501s-21.5 21.5 -29.5 35.5s-15 30.333 -21 49l77 30
c5.33301 -21.333 13.166 -37.333 23.499 -48s27.833 -16 52.5 -16c15.333 0 27.5 2 36.5 6s15.833 10.5 20.5 19.5s7.66699 20.167 9 33.5s2 29.666 2 48.999v571h98v-565z" />
    <glyph glyph-name="ij" unicode="&#x133;" horiz-adv-x="367" 
d="M134 0h-94v543h94v-543zM134 654h-94v130h94v-130zM327 654h-94v130h94v-130zM233 543l93.999 0.000976562v-579c0 -36 -2.33301 -65.833 -7 -89.5s-12 -42.334 -22 -56.001s-23 -23.334 -39 -29.001s-35.667 -8.5 -59 -8.5c-22.667 0 -41 3.16699 -55 9.5
s-24.667 13.833 -32 22.5l18 67c6.66699 -9.33301 14.834 -15.666 24.501 -18.999s19.167 -5 28.5 -5c8.66699 0 16.167 1.5 22.5 4.5s11.5 9.16699 15.5 18.5s6.83301 22.833 8.5 40.5s2.5 41.167 2.5 70.5v553z" />
    <glyph glyph-name="Jcircumflex" unicode="&#x134;" horiz-adv-x="368" 
d="M328 180c0 -30 -1.49902 -56.999 -4.49902 -80.999s-10 -44.333 -21 -61s-27.5 -29.334 -49.5 -38.001s-51.667 -13 -89 -13c-24 0 -44.5 2.33301 -61.5 7s-31.333 11.834 -43 21.501s-21.5 21.5 -29.5 35.5s-15 30.333 -21 49l77 30
c5.33301 -21.333 13.166 -37.333 23.499 -48s27.833 -16 52.5 -16c15.333 0 27.5 2 36.5 6s15.833 10.5 20.5 19.5s7.66699 20.167 9 33.5s2 29.666 2 48.999v571h98v-565zM171.001 846.001l76 127h64l78 -128l-52 -25l-59 104l-59 -106z" />
    <glyph glyph-name="jcircumflex" unicode="&#x135;" horiz-adv-x="187" 
d="M53 543l93.999 0.000976562v-579c0 -36 -2.33301 -65.833 -7 -89.5s-12 -42.334 -22 -56.001s-23 -23.334 -39 -29.001s-35.667 -8.5 -59 -8.5c-22.667 0 -41 3.16699 -55 9.5s-24.667 13.833 -32 22.5l18 67c6.66699 -9.33301 14.834 -15.666 24.501 -18.999
s19.167 -5 28.5 -5c8.66699 0 16.167 1.5 22.5 4.5s11.5 9.16699 15.5 18.5s6.83301 22.833 8.5 40.5s2.5 41.167 2.5 70.5v553zM-7.00098 644.001l76 127h64l78 -128l-52 -25l-59 104l-59 -106z" />
    <glyph glyph-name="Kcommaaccent" unicode="&#x136;" horiz-adv-x="430" 
d="M213 390l-74 -129v-261h-99v745h99v-331l150 331h112l-131 -244l150 -501h-115zM262 -119c0 -17.333 -5.16797 -35 -15.501 -53s-23.166 -33.667 -38.499 -47l-24 16c9.33301 9.33301 17 19.833 23 31.5s9 24.167 9 37.5h-43v97h89v-82z" />
    <glyph glyph-name="kcommaaccent" unicode="&#x137;" horiz-adv-x="394" 
d="M207 298l-73 -98v-200h-94v788l94 17v-495l132 233h110l-109 -156l122 -387h-112zM244 -119c0 -17.333 -5.16797 -35 -15.501 -53s-23.166 -33.667 -38.499 -47l-24 16c9.33301 9.33301 17 19.833 23 31.5s9 24.167 9 37.5h-43v97h89v-82z" />
    <glyph glyph-name="Lacute" unicode="&#x139;" horiz-adv-x="306" 
d="M140 745v-669h153v-76h-253v745h100zM229 899l-178 -105l-34 38l162 126z" />
    <glyph glyph-name="lacute" unicode="&#x13a;" horiz-adv-x="174" 
d="M40 0v788l94 17v-805h-94zM219 899l-178 -105l-34 38l162 126z" />
    <glyph glyph-name="Lcommaaccent" unicode="&#x13b;" horiz-adv-x="306" 
d="M140 745v-669h153v-76h-253v745h100zM200 -119c0 -17.333 -5.16797 -35 -15.501 -53s-23.166 -33.667 -38.499 -47l-24 16c9.33301 9.33301 17 19.833 23 31.5s9 24.167 9 37.5h-43v97h89v-82z" />
    <glyph glyph-name="lcommaaccent" unicode="&#x13c;" horiz-adv-x="174" 
d="M40 0v788l94 17v-805h-94zM134 -119c0 -17.333 -5.16797 -35 -15.501 -53s-23.166 -33.667 -38.499 -47l-24 16c9.33301 9.33301 17 19.833 23 31.5s9 24.167 9 37.5h-43v97h89v-82z" />
    <glyph glyph-name="Lcaron" unicode="&#x13d;" horiz-adv-x="326" 
d="M140 745v-669h153v-76h-253v745h100zM271 723c0 -17.333 -5.16797 -35 -15.501 -53s-23.166 -33.667 -38.499 -47l-24 16c9.33301 9.33301 17 19.833 23 31.5s9 24.167 9 37.5h-43v97h89v-82z" />
    <glyph glyph-name="lcaron" unicode="&#x13e;" horiz-adv-x="283" 
d="M40 0v788l94 17v-805h-94zM279 723c0 -17.333 -5.16797 -35 -15.501 -53s-23.166 -33.667 -38.499 -47l-24 16c9.33301 9.33301 17 19.833 23 31.5s9 24.167 9 37.5h-43v97h89v-82z" />
    <glyph glyph-name="Ldot" unicode="&#x13f;" horiz-adv-x="306" 
d="M140 745v-669h153v-76h-253v745h100zM256.614 300.513h-87.6436v121.748h87.6436v-121.748z" />
    <glyph glyph-name="ldot" unicode="&#x140;" horiz-adv-x="269" 
d="M40 0v788l94 17v-805h-94zM257.614 299.513h-87.6436v121.748h87.6436v-121.748z" />
    <glyph glyph-name="Lslash" unicode="&#x141;" horiz-adv-x="303" 
d="M36 349v396h100v-341l74 42l26 -46l-100 -58v-266h153v-76h-253v287l-22 -13l-27 48z" />
    <glyph glyph-name="lslash" unicode="&#x142;" horiz-adv-x="199" 
d="M5 310l-26 47l72 38v393l97 17v-360l49 27l25 -46l-74 -40v-386h-97v335z" />
    <glyph glyph-name="Nacute" unicode="&#x143;" horiz-adv-x="445" 
d="M38 745h103l181 -516v516h85v-745h-102l-182 515v-515h-85v745zM358 899l-178 -105l-34 38l162 126z" />
    <glyph glyph-name="nacute" unicode="&#x144;" horiz-adv-x="431" 
d="M119 543c0.666992 -4 1.49902 -9.33301 2.49902 -16s2 -14 3 -22s1.83301 -15.667 2.5 -23s1 -13.333 1 -18c16 28 35.333 49.667 58 65s51.334 23 86.001 23c24 0 43.667 -4 59 -12s27.5 -18.833 36.5 -32.5s15.167 -29.167 18.5 -46.5s5 -35.333 5 -54v-407h-94v412
c0 20 -5.33301 35.667 -16 47s-26.334 17 -47.001 17c-23.333 0 -42.166 -6.66699 -56.499 -20s-28.833 -35 -43.5 -65v-391h-94v543h79v0zM350.999 697l-178 -105l-34 38l162 126z" />
    <glyph glyph-name="Ncommaaccent" unicode="&#x145;" horiz-adv-x="445" 
d="M38 745h103l181 -516v516h85v-745h-102l-182 515v-515h-85v745zM264 -119c0 -17.333 -5.16797 -35 -15.501 -53s-23.166 -33.667 -38.499 -47l-24 16c9.33301 9.33301 17 19.833 23 31.5s9 24.167 9 37.5h-43v97h89v-82z" />
    <glyph glyph-name="ncommaaccent" unicode="&#x146;" horiz-adv-x="431" 
d="M119 543c0.666992 -4 1.49902 -9.33301 2.49902 -16s2 -14 3 -22s1.83301 -15.667 2.5 -23s1 -13.333 1 -18c16 28 35.333 49.667 58 65s51.334 23 86.001 23c24 0 43.667 -4 59 -12s27.5 -18.833 36.5 -32.5s15.167 -29.167 18.5 -46.5s5 -35.333 5 -54v-407h-94v412
c0 20 -5.33301 35.667 -16 47s-26.334 17 -47.001 17c-23.333 0 -42.166 -6.66699 -56.499 -20s-28.833 -35 -43.5 -65v-391h-94v543h79v0zM262.999 -119c0 -17.333 -5.16797 -35 -15.501 -53s-23.166 -33.667 -38.499 -47l-24 16c9.33301 9.33301 17 19.833 23 31.5
s9 24.167 9 37.5h-43v97h89v-82z" />
    <glyph glyph-name="Ncaron" unicode="&#x147;" horiz-adv-x="445" 
d="M38 745h103l181 -516v516h85v-745h-102l-182 515v-515h-85v745zM331 937l-76 -126h-64l-78 127l52 25l58 -104l60 106z" />
    <glyph glyph-name="ncaron" unicode="&#x148;" horiz-adv-x="431" 
d="M119 543c0.666992 -4 1.49902 -9.33301 2.49902 -16s2 -14 3 -22s1.83301 -15.667 2.5 -23s1 -13.333 1 -18c16 28 35.333 49.667 58 65s51.334 23 86.001 23c24 0 43.667 -4 59 -12s27.5 -18.833 36.5 -32.5s15.167 -29.167 18.5 -46.5s5 -35.333 5 -54v-407h-94v412
c0 20 -5.33301 35.667 -16 47s-26.334 17 -47.001 17c-23.333 0 -42.166 -6.66699 -56.499 -20s-28.833 -35 -43.5 -65v-391h-94v543h79v0zM323.999 735l-76 -126h-64l-78 127l52 25l58 -104l60 106z" />
    <glyph glyph-name="Eng" unicode="&#x14a;" horiz-adv-x="445" 
d="M38 745l103.001 -0.000976562l181 -516v516h85v-781c0 -63.333 -9.33301 -109.666 -28 -138.999s-51.667 -44 -99 -44c-22.667 0 -41 3.16699 -55 9.5s-24.667 13.833 -32 22.5l8 33.5c2.66699 11 5.66699 22.167 9 33.5c6.66699 -9.33301 14.667 -16 24 -20
s18.666 -6 27.999 -6s17.333 1.33301 24 4s12 8.5 16 17.5s6.83301 21.833 8.5 38.5s2.5 39 2.5 67l-95 267l-95 267v-515h-85v745z" />
    <glyph glyph-name="eng" unicode="&#x14b;" horiz-adv-x="431" 
d="M297 365c0 17.333 -0.504883 32.833 -1.50488 46.5s-3.5 25.334 -7.5 35.001s-10.167 17 -18.5 22s-20.166 7.5 -35.499 7.5c-23.333 0 -42.166 -6.66699 -56.499 -20s-28.833 -35 -43.5 -65v-391h-94v543h79c2 -9.33301 3.83301 -20.833 5.5 -34.5
s2.83398 -28.5 3.50098 -44.5c16 28 35.333 49.667 58 65s51.334 23 86.001 23c24 0 43.667 -4 59 -12s27.5 -18.833 36.5 -32.5s15.167 -29.167 18.5 -46.5s5 -35.333 5 -54v-443c0 -36 -2.33301 -65.833 -7 -89.5s-12 -42.334 -22 -56.001s-23.167 -23.334 -39.5 -29.001
s-35.833 -8.5 -58.5 -8.5s-41 3.16699 -55 9.5s-24.667 13.833 -32 22.5l17 67c6.66699 -9.33301 14.834 -15.666 24.501 -18.999s19.167 -5 28.5 -5c8.66699 0 16.167 1.16699 22.5 3.5s11.5 7.5 15.5 15.5s7 19.833 9 35.5s3 36.5 3 62.5v392z" />
    <glyph glyph-name="Omacron" unicode="&#x14c;" 
d="M238 758c49.333 0 87.5 -8 114.5 -24s47 -40 60 -72s20.833 -72.167 23.5 -120.5s4 -104.833 4 -169.5c0 -65.333 -1.33301 -122 -4 -170s-10.5 -88 -23.5 -120s-33 -55.833 -60 -71.5s-65.167 -23.5 -114.5 -23.5s-87.833 8.16699 -115.5 24.5
s-48.334 40.5 -62.001 72.5s-22.167 72 -25.5 120s-5 104 -5 168c0 63.333 1.66699 119 5 167s11.833 88.333 25.5 121s34.334 57.167 62.001 73.5s66.167 24.5 115.5 24.5zM238 680c-24 0 -42.833 -5.83203 -56.5 -17.499s-24 -29.834 -31 -54.501s-11.5 -56.5 -13.5 -95.5
s-3 -85.833 -3 -140.5c0 -55.333 1 -102.333 3 -141s6.5 -70.334 13.5 -95.001s17.333 -42.5 31 -53.5s32.5 -16.5 56.5 -16.5c23.333 0 41.5 5.5 54.5 16.5s22.667 28.833 29 53.5s10.166 56.334 11.499 95.001s2 85.667 2 141c0 54.667 -0.666992 101.5 -2 140.5
s-5.16602 71 -11.499 96s-16 43.167 -29 54.5s-31.167 17 -54.5 17zM410 892.001v-65h-352v65h352z" />
    <glyph glyph-name="omacron" unicode="&#x14d;" horiz-adv-x="429" 
d="M214 552c46 0 81.501 -7.66699 106.501 -23s43.333 -36 55 -62s18.5 -56.167 20.5 -90.5s3 -70.166 3 -107.499s-1 -72.833 -3 -106.5s-8.83301 -63.334 -20.5 -89.001s-30 -46.167 -55 -61.5s-60.5 -23 -106.5 -23s-81.333 7.66699 -106 23s-42.834 35.833 -54.501 61.5
s-18.5 55.334 -20.5 89.001s-3 69.167 -3 106.5s1 73.166 3 107.499s8.83301 64.5 20.5 90.5s30 46.667 55 62s60.167 23 105.5 23zM214.001 476c-22 0 -39 -4 -51 -12s-21 -20.5 -27 -37.5s-9.5 -38.5 -10.5 -64.5s-1.5 -57 -1.5 -93s0.5 -66.833 1.5 -92.5
s4.5 -47 10.5 -64s15 -29.5 27 -37.5s29 -12 51 -12s39 4 51 12s21 20.5 27 37.5s9.5 38.333 10.5 64s1.5 56.5 1.5 92.5s-0.5 67 -1.5 93s-4.5 47.5 -10.5 64.5s-15 29.5 -27 37.5s-29 12 -51 12zM390.001 690v-65h-352v65h352z" />
    <glyph glyph-name="Obreve" unicode="&#x14e;" 
d="M238 758c49.333 0 87.5 -8 114.5 -24s47 -40 60 -72s20.833 -72.167 23.5 -120.5s4 -104.833 4 -169.5c0 -65.333 -1.33301 -122 -4 -170s-10.5 -88 -23.5 -120s-33 -55.833 -60 -71.5s-65.167 -23.5 -114.5 -23.5s-87.833 8.16699 -115.5 24.5
s-48.334 40.5 -62.001 72.5s-22.167 72 -25.5 120s-5 104 -5 168c0 63.333 1.66699 119 5 167s11.833 88.333 25.5 121s34.334 57.167 62.001 73.5s66.167 24.5 115.5 24.5zM238 680c-24 0 -42.833 -5.83203 -56.5 -17.499s-24 -29.834 -31 -54.501s-11.5 -56.5 -13.5 -95.5
s-3 -85.833 -3 -140.5c0 -55.333 1 -102.333 3 -141s6.5 -70.334 13.5 -95.001s17.333 -42.5 31 -53.5s32.5 -16.5 56.5 -16.5c23.333 0 41.5 5.5 54.5 16.5s22.667 28.833 29 53.5s10.166 56.334 11.499 95.001s2 85.667 2 141c0 54.667 -0.666992 101.5 -2 140.5
s-5.16602 71 -11.499 96s-16 43.167 -29 54.5s-31.167 17 -54.5 17zM384 939.001c-9.33301 -39.333 -26.502 -70.5 -51.502 -93.5s-56.833 -34.5 -95.5 -34.5s-71.834 11.5 -99.501 34.5s-45.167 54.5 -52.5 94.5l49 17c2.66699 -12.667 6.83398 -24.834 12.501 -36.501
s12.834 -22 21.501 -31s18.834 -16.167 30.501 -21.5s24.5 -8 38.5 -8c28 0 51 9.83301 69 29.5s29.667 42.834 35 69.501z" />
    <glyph glyph-name="obreve" unicode="&#x14f;" horiz-adv-x="429" 
d="M214 552c46 0 81.501 -7.66699 106.501 -23s43.333 -36 55 -62s18.5 -56.167 20.5 -90.5s3 -70.166 3 -107.499s-1 -72.833 -3 -106.5s-8.83301 -63.334 -20.5 -89.001s-30 -46.167 -55 -61.5s-60.5 -23 -106.5 -23s-81.333 7.66699 -106 23s-42.834 35.833 -54.501 61.5
s-18.5 55.334 -20.5 89.001s-3 69.167 -3 106.5s1 73.166 3 107.499s8.83301 64.5 20.5 90.5s30 46.667 55 62s60.167 23 105.5 23zM214.001 476c-22 0 -39 -4 -51 -12s-21 -20.5 -27 -37.5s-9.5 -38.5 -10.5 -64.5s-1.5 -57 -1.5 -93s0.5 -66.833 1.5 -92.5
s4.5 -47 10.5 -64s15 -29.5 27 -37.5s29 -12 51 -12s39 4 51 12s21 20.5 27 37.5s9.5 38.333 10.5 64s1.5 56.5 1.5 92.5s-0.5 67 -1.5 93s-4.5 47.5 -10.5 64.5s-15 29.5 -27 37.5s-29 12 -51 12zM364.001 737c-9.33301 -39.333 -26.502 -70.5 -51.502 -93.5
s-56.833 -34.5 -95.5 -34.5s-71.834 11.5 -99.501 34.5s-45.167 54.5 -52.5 94.5l49 17c2.66699 -12.667 6.83398 -24.834 12.501 -36.501s12.834 -22 21.501 -31s18.834 -16.167 30.501 -21.5s24.5 -8 38.5 -8c28 0 51 9.83301 69 29.5s29.667 42.834 35 69.501z" />
    <glyph glyph-name="Ohungarumlaut" unicode="&#x150;" 
d="M238 758c49.333 0 87.5 -8 114.5 -24s47 -40 60 -72s20.833 -72.167 23.5 -120.5s4 -104.833 4 -169.5c0 -65.333 -1.33301 -122 -4 -170s-10.5 -88 -23.5 -120s-33 -55.833 -60 -71.5s-65.167 -23.5 -114.5 -23.5s-87.833 8.16699 -115.5 24.5
s-48.334 40.5 -62.001 72.5s-22.167 72 -25.5 120s-5 104 -5 168c0 63.333 1.66699 119 5 167s11.833 88.333 25.5 121s34.334 57.167 62.001 73.5s66.167 24.5 115.5 24.5zM238 680c-24 0 -42.833 -5.83203 -56.5 -17.499s-24 -29.834 -31 -54.501s-11.5 -56.5 -13.5 -95.5
s-3 -85.833 -3 -140.5c0 -55.333 1 -102.333 3 -141s6.5 -70.334 13.5 -95.001s17.333 -42.5 31 -53.5s32.5 -16.5 56.5 -16.5c23.333 0 41.5 5.5 54.5 16.5s22.667 28.833 29 53.5s10.166 56.334 11.499 95.001s2 85.667 2 141c0 54.667 -0.666992 101.5 -2 140.5
s-5.16602 71 -11.499 96s-16 43.167 -29 54.5s-31.167 17 -54.5 17zM310 899.001l-178 -105l-34 38l162 126zM491 899.001l-178 -105l-34 38l162 126z" />
    <glyph glyph-name="ohungarumlaut" unicode="&#x151;" horiz-adv-x="429" 
d="M214 552c46 0 81.501 -7.66699 106.501 -23s43.333 -36 55 -62s18.5 -56.167 20.5 -90.5s3 -70.166 3 -107.499s-1 -72.833 -3 -106.5s-8.83301 -63.334 -20.5 -89.001s-30 -46.167 -55 -61.5s-60.5 -23 -106.5 -23s-81.333 7.66699 -106 23s-42.834 35.833 -54.501 61.5
s-18.5 55.334 -20.5 89.001s-3 69.167 -3 106.5s1 73.166 3 107.499s8.83301 64.5 20.5 90.5s30 46.667 55 62s60.167 23 105.5 23zM214.001 476c-22 0 -39 -4 -51 -12s-21 -20.5 -27 -37.5s-9.5 -38.5 -10.5 -64.5s-1.5 -57 -1.5 -93s0.5 -66.833 1.5 -92.5
s4.5 -47 10.5 -64s15 -29.5 27 -37.5s29 -12 51 -12s39 4 51 12s21 20.5 27 37.5s9.5 38.333 10.5 64s1.5 56.5 1.5 92.5s-0.5 67 -1.5 93s-4.5 47.5 -10.5 64.5s-15 29.5 -27 37.5s-29 12 -51 12zM283.001 697l-178 -105l-34 38l162 126zM464.001 697l-178 -105l-34 38
l162 126z" />
    <glyph glyph-name="OE" unicode="&#x152;" horiz-adv-x="641" 
d="M236 757c29.333 0 53.166 -4.33301 71.499 -13s33.5 -21 45.5 -37v38h263v-78h-180v-235h151l-8 -79h-143v-277h185v-76h-267v37c-21.333 -32.667 -60.666 -49 -117.999 -49c-48.667 0 -86.834 8.16699 -114.501 24.5s-48.167 40.5 -61.5 72.5s-21.666 72 -24.999 120
s-5 103.667 -5 167c0 62.667 1.66699 118 5 166s11.666 88.167 24.999 120.5s33.833 56.833 61.5 73.5s65.834 25 114.501 25zM238 680c-24 0 -42.833 -5.83203 -56.5 -17.499s-24 -29.834 -31 -54.501s-11.5 -56.5 -13.5 -95.5s-3 -85.833 -3 -140.5
c0 -55.333 1 -102.333 3 -141s6.5 -70.334 13.5 -95.001s17.333 -42.5 31 -53.5s32.5 -16.5 56.5 -16.5c23.333 0 41.5 5.5 54.5 16.5s22.667 28.833 29 53.5s10.166 56.334 11.499 95.001s2 85.667 2 141c0 54.667 -0.666992 101.5 -2 140.5s-5.16602 71 -11.499 96
s-16 43.167 -29 54.5s-31.167 17 -54.5 17z" />
    <glyph glyph-name="oe" unicode="&#x153;" horiz-adv-x="684" 
d="M480 552c42.667 0 75.835 -7.33398 99.502 -22.001s41.167 -33.667 52.5 -57s18 -49.333 20 -78s3 -57 3 -85v-42h-262c0 -27.333 0.666992 -53.333 2 -78s5.16602 -46.5 11.499 -65.5s16 -34 29 -45s31.167 -16.5 54.5 -16.5c33.333 0 55.666 9.16699 66.999 27.5
s18.666 45.166 21.999 80.499l76 -11c-3.33301 -28 -8.66602 -52.667 -15.999 -74s-17.5 -39.166 -30.5 -53.499s-29.667 -25.166 -50 -32.499s-45.166 -11 -74.499 -11c-36 0 -64.833 6.5 -86.5 19.5s-36.834 30.5 -45.501 52.5c-9.33301 -22 -25.166 -39.5 -47.499 -52.5
s-52.5 -19.5 -90.5 -19.5c-46 0 -81.333 7.66699 -106 23s-42.834 35.833 -54.501 61.5s-18.5 55.334 -20.5 89.001s-3 69.167 -3 106.5s1 73.166 3 107.499s8.83301 64.5 20.5 90.5s30 46.667 55 62s60.167 23 105.5 23c38 0 68 -6.5 90 -19.5s37.667 -29.833 47 -50.5
c9.33301 21.333 24.333 38.333 45 51s48.667 19 84 19zM214.001 475.999c-22 0 -39 -4 -51 -12s-21 -20.5 -27 -37.5s-9.5 -38.5 -10.5 -64.5s-1.5 -57 -1.5 -93s0.5 -66.833 1.5 -92.5s4.5 -47 10.5 -64s15 -29.5 27 -37.5s29 -12 51 -12s39 4 51 12s21 20.5 27 37.5
s9.5 38.333 10.5 64s1.5 56.5 1.5 92.5s-0.5 67 -1.5 93s-4.5 47.5 -10.5 64.5s-15 29.5 -27 37.5s-29 12 -51 12zM482.001 484.999c-20 0 -35.666 -4 -46.999 -12s-20 -19 -26 -33s-9.83301 -30.833 -11.5 -50.5s-2.83398 -41.5 -3.50098 -65.5h174
c0 20.667 -0.333008 40.667 -1 60s-3.66699 36.5 -9 51.5s-13.833 27 -25.5 36s-28.5 13.5 -50.5 13.5z" />
    <glyph glyph-name="Racute" unicode="&#x154;" horiz-adv-x="403" 
d="M284 0l-71 334h-74v-334h-99v745h158c41.333 0 74.5 -3.66699 99.5 -11s44.167 -18.833 57.5 -34.5s22.166 -35.5 26.499 -59.5s6.5 -52.667 6.5 -86c0 -28 -1.16699 -53.667 -3.5 -77s-6.66602 -43.833 -12.999 -61.5s-15 -32.5 -26 -44.5s-25.167 -20.333 -42.5 -25
l91 -346h-110zM211 410c18.667 0 33.5 2.33301 44.5 7s19.5 12.5 25.5 23.5s9.83301 25.5 11.5 43.5s2.5 40 2.5 66c0 22.667 -0.833008 41.834 -2.5 57.501s-5.5 28.167 -11.5 37.5s-15.167 16.166 -27.5 20.499s-28.833 6.5 -49.5 6.5h-65v-262h72zM337 899l-178 -105
l-34 38l162 126z" />
    <glyph glyph-name="racute" unicode="&#x155;" horiz-adv-x="280" 
d="M114 543c5.33301 -28.667 7.99902 -58.333 7.99902 -89c13.333 28 33.333 49.833 60 65.5s57.667 23.5 93 23.5l-8 -94c-23.333 0 -42.666 -2.33301 -57.999 -7s-28.166 -11.5 -38.499 -20.5s-18.333 -20.5 -24 -34.5s-9.83398 -30 -12.501 -48v-339h-94v543h74z
M275.999 697.001l-178 -105l-34 38l162 126z" />
    <glyph glyph-name="Rcommaaccent" unicode="&#x156;" horiz-adv-x="403" 
d="M284 0l-71 334h-74v-334h-99v745h158c41.333 0 74.5 -3.66699 99.5 -11s44.167 -18.833 57.5 -34.5s22.166 -35.5 26.499 -59.5s6.5 -52.667 6.5 -86c0 -28 -1.16699 -53.667 -3.5 -77s-6.66602 -43.833 -12.999 -61.5s-15 -32.5 -26 -44.5s-25.167 -20.333 -42.5 -25
l91 -346h-110zM211 410c18.667 0 33.5 2.33301 44.5 7s19.5 12.5 25.5 23.5s9.83301 25.5 11.5 43.5s2.5 40 2.5 66c0 22.667 -0.833008 41.834 -2.5 57.501s-5.5 28.167 -11.5 37.5s-15.167 16.166 -27.5 20.499s-28.833 6.5 -49.5 6.5h-65v-262h72zM242 -119
c0 -17.333 -5.16797 -35 -15.501 -53s-23.166 -33.667 -38.499 -47l-24 16c9.33301 9.33301 17 19.833 23 31.5s9 24.167 9 37.5h-43v97h89v-82z" />
    <glyph glyph-name="rcommaaccent" unicode="&#x157;" horiz-adv-x="280" 
d="M114 543c5.33301 -28.667 7.99902 -58.333 7.99902 -89c13.333 28 33.333 49.833 60 65.5s57.667 23.5 93 23.5l-8 -94c-23.333 0 -42.666 -2.33301 -57.999 -7s-28.166 -11.5 -38.499 -20.5s-18.333 -20.5 -24 -34.5s-9.83398 -30 -12.501 -48v-339h-94v543h74z
M126.999 -118.999c0 -17.333 -5.16797 -35 -15.501 -53s-23.166 -33.667 -38.499 -47l-24 16c9.33301 9.33301 17 19.833 23 31.5s9 24.167 9 37.5h-43v97h89v-82z" />
    <glyph glyph-name="Rcaron" unicode="&#x158;" horiz-adv-x="403" 
d="M284 0l-71 334h-74v-334h-99v745h158c41.333 0 74.5 -3.66699 99.5 -11s44.167 -18.833 57.5 -34.5s22.166 -35.5 26.499 -59.5s6.5 -52.667 6.5 -86c0 -28 -1.16699 -53.667 -3.5 -77s-6.66602 -43.833 -12.999 -61.5s-15 -32.5 -26 -44.5s-25.167 -20.333 -42.5 -25
l91 -346h-110zM211 410c18.667 0 33.5 2.33301 44.5 7s19.5 12.5 25.5 23.5s9.83301 25.5 11.5 43.5s2.5 40 2.5 66c0 22.667 -0.833008 41.834 -2.5 57.501s-5.5 28.167 -11.5 37.5s-15.167 16.166 -27.5 20.499s-28.833 6.5 -49.5 6.5h-65v-262h72zM310 937l-76 -126h-64
l-78 127l52 25l58 -104l60 106z" />
    <glyph glyph-name="rcaron" unicode="&#x159;" horiz-adv-x="280" 
d="M114 543c5.33301 -28.667 7.99902 -58.333 7.99902 -89c13.333 28 33.333 49.833 60 65.5s57.667 23.5 93 23.5l-8 -94c-23.333 0 -42.666 -2.33301 -57.999 -7s-28.166 -11.5 -38.499 -20.5s-18.333 -20.5 -24 -34.5s-9.83398 -30 -12.501 -48v-339h-94v543h74z
M248.999 735.001l-76 -126h-64l-78 127l52 25l58 -104l60 106z" />
    <glyph glyph-name="Sacute" unicode="&#x15a;" horiz-adv-x="399" 
d="M205 758c33.333 0 60.1699 -4.33789 80.5029 -13.0049s36 -20.5 47 -35.5s18.333 -32.833 22 -53.5s6.16699 -42.667 7.5 -66l-79 -11c-1.33301 16 -2.83301 30.333 -4.5 43s-5.16699 23.334 -10.5 32.001s-12.833 15.167 -22.5 19.5s-22.834 6.5 -39.501 6.5
c-17.333 0 -31.166 -2.33301 -41.499 -7s-18.333 -11.167 -24 -19.5s-9.5 -18.666 -11.5 -30.999s-3 -26.166 -3 -41.499c0 -19.333 2.16699 -36.166 6.5 -50.499s10.5 -27 18.5 -38s17.5 -20.667 28.5 -29s23.167 -16.5 36.5 -24.5c20 -11.333 39.5 -23.166 58.5 -35.499
s36 -27.666 51 -45.999s27 -41 36 -68s13.5 -61.167 13.5 -102.5c0 -64 -13.833 -113.333 -41.5 -148s-75.5 -52 -143.5 -52c-33.333 0 -60.5 4.16699 -81.5 12.5s-37.833 21.666 -50.5 39.999s-22 42.166 -28 71.499s-10.333 65 -13 107l85 17
c1.33301 -31.333 3.66602 -57.833 6.99902 -79.5s8.16602 -39.167 14.499 -52.5s14.833 -22.833 25.5 -28.5s24.334 -8.5 41.001 -8.5c18 0 32.5 2.66699 43.5 8s19.5 13.166 25.5 23.499s10.167 23.333 12.5 39s3.5 33.834 3.5 54.501c0 24 -2.33301 44.667 -7 62
s-11.5 32.333 -20.5 45s-20.167 24.167 -33.5 34.5s-28.333 20.5 -45 30.5c-18 10.667 -35.167 22.334 -51.5 35.001s-31 27.667 -44 45s-23.333 37.333 -31 60s-11.5 49.667 -11.5 81c0 26.667 2.83301 50.667 8.5 72s15.167 39.5 28.5 54.5s31.166 26.667 53.499 35
s50.166 12.5 83.499 12.5zM335.004 898.995l-178 -105l-34 38l162 126z" />
    <glyph glyph-name="sacute" unicode="&#x15b;" horiz-adv-x="357" 
d="M181 552c28 0 50.499 -2.00293 67.499 -6.00293s30.5 -10.833 40.5 -20.5s17.333 -22.5 22 -38.5s9 -35.667 13 -59l-74 -14c-3.33301 22.667 -8.5 38.834 -15.5 48.501s-21.833 14.5 -44.5 14.5c-19.333 0 -34.666 -4.16699 -45.999 -12.5s-17 -23.5 -17 -45.5
c0 -20 3.83301 -37 11.5 -51s22.167 -27 43.5 -39l60.5 -32.5c18.333 -9.66699 34 -20.667 47 -33s23.167 -27.5 30.5 -45.5s11 -41.333 11 -70c0 -52 -12.5 -91.833 -37.5 -119.5s-65.833 -41.5 -122.5 -41.5c-50.667 0 -88.334 13 -113.001 39s-37 69.333 -37 130l81 12
c0 -14.667 1 -28.5 3 -41.5s5.5 -24.5 10.5 -34.5s11.833 -17.833 20.5 -23.5s20 -8.5 34 -8.5c32 0 53 7 63 21s15 33.333 15 58c0 30 -7.5 52.667 -22.5 68s-35.833 29.333 -62.5 42c-20 9.33301 -37.667 19 -53 29s-28.166 21.333 -38.499 34s-18.333 27.334 -24 44.001
s-8.5 36.667 -8.5 60c0 20.667 2.16699 39.334 6.5 56.001s12 31 23 43s25.5 21.167 43.5 27.5s41 9.5 69 9.5zM313.999 696.997l-178 -105l-34 38l162 126z" />
    <glyph glyph-name="Scircumflex" unicode="&#x15c;" horiz-adv-x="399" 
d="M205 758c33.333 0 60.1699 -4.33789 80.5029 -13.0049s36 -20.5 47 -35.5s18.333 -32.833 22 -53.5s6.16699 -42.667 7.5 -66l-79 -11c-1.33301 16 -2.83301 30.333 -4.5 43s-5.16699 23.334 -10.5 32.001s-12.833 15.167 -22.5 19.5s-22.834 6.5 -39.501 6.5
c-17.333 0 -31.166 -2.33301 -41.499 -7s-18.333 -11.167 -24 -19.5s-9.5 -18.666 -11.5 -30.999s-3 -26.166 -3 -41.499c0 -19.333 2.16699 -36.166 6.5 -50.499s10.5 -27 18.5 -38s17.5 -20.667 28.5 -29s23.167 -16.5 36.5 -24.5c20 -11.333 39.5 -23.166 58.5 -35.499
s36 -27.666 51 -45.999s27 -41 36 -68s13.5 -61.167 13.5 -102.5c0 -64 -13.833 -113.333 -41.5 -148s-75.5 -52 -143.5 -52c-33.333 0 -60.5 4.16699 -81.5 12.5s-37.833 21.666 -50.5 39.999s-22 42.166 -28 71.499s-10.333 65 -13 107l85 17
c1.33301 -31.333 3.66602 -57.833 6.99902 -79.5s8.16602 -39.167 14.499 -52.5s14.833 -22.833 25.5 -28.5s24.334 -8.5 41.001 -8.5c18 0 32.5 2.66699 43.5 8s19.5 13.166 25.5 23.499s10.167 23.333 12.5 39s3.5 33.834 3.5 54.501c0 24 -2.33301 44.667 -7 62
s-11.5 32.333 -20.5 45s-20.167 24.167 -33.5 34.5s-28.333 20.5 -45 30.5c-18 10.667 -35.167 22.334 -51.5 35.001s-31 27.667 -44 45s-23.333 37.333 -31 60s-11.5 49.667 -11.5 81c0 26.667 2.83301 50.667 8.5 72s15.167 39.5 28.5 54.5s31.166 26.667 53.499 35
s50.166 12.5 83.499 12.5zM90.0039 845.995l76 127h64l78 -128l-52 -25l-59 104l-59 -106z" />
    <glyph glyph-name="scircumflex" unicode="&#x15d;" horiz-adv-x="357" 
d="M181 552c28 0 50.499 -2.00293 67.499 -6.00293s30.5 -10.833 40.5 -20.5s17.333 -22.5 22 -38.5s9 -35.667 13 -59l-74 -14c-3.33301 22.667 -8.5 38.834 -15.5 48.501s-21.833 14.5 -44.5 14.5c-19.333 0 -34.666 -4.16699 -45.999 -12.5s-17 -23.5 -17 -45.5
c0 -20 3.83301 -37 11.5 -51s22.167 -27 43.5 -39l60.5 -32.5c18.333 -9.66699 34 -20.667 47 -33s23.167 -27.5 30.5 -45.5s11 -41.333 11 -70c0 -52 -12.5 -91.833 -37.5 -119.5s-65.833 -41.5 -122.5 -41.5c-50.667 0 -88.334 13 -113.001 39s-37 69.333 -37 130l81 12
c0 -14.667 1 -28.5 3 -41.5s5.5 -24.5 10.5 -34.5s11.833 -17.833 20.5 -23.5s20 -8.5 34 -8.5c32 0 53 7 63 21s15 33.333 15 58c0 30 -7.5 52.667 -22.5 68s-35.833 29.333 -62.5 42c-20 9.33301 -37.667 19 -53 29s-28.166 21.333 -38.499 34s-18.333 27.334 -24 44.001
s-8.5 36.667 -8.5 60c0 20.667 2.16699 39.334 6.5 56.001s12 31 23 43s25.5 21.167 43.5 27.5s41 9.5 69 9.5zM68.999 643.997l76 127h64l78 -128l-52 -25l-59 104l-59 -106z" />
    <glyph glyph-name="Scedilla" unicode="&#x15e;" horiz-adv-x="399" 
d="M173 -12c-29.333 1.33301 -53.6631 6.49316 -72.9961 15.4932s-34.666 22.667 -45.999 41s-19.833 41.833 -25.5 70.5s-9.5 63 -11.5 103l85 17c1.33301 -31.333 3.66602 -57.833 6.99902 -79.5s8.16602 -39.167 14.499 -52.5s14.833 -22.833 25.5 -28.5
s24.334 -8.5 41.001 -8.5c18 0 32.5 2.66699 43.5 8s19.5 13.166 25.5 23.499s10.167 23.333 12.5 39s3.5 33.834 3.5 54.501c0 25.333 -2.5 46.666 -7.5 63.999s-12 32.333 -21 45s-20.167 23.834 -33.5 33.501s-28 19.5 -44 29.5c-18 10.667 -35.167 22.5 -51.5 35.5
s-31 28.333 -44 46s-23.333 37.834 -31 60.501s-11.5 49 -11.5 79c0 26.667 2.83301 50.667 8.5 72s15.167 39.5 28.5 54.5s31.166 26.667 53.499 35s50.166 12.5 83.499 12.5s60.166 -4.33301 80.499 -13s36 -20.5 47 -35.5s18.333 -32.833 22 -53.5
s6.16699 -42.667 7.5 -66l-79 -11c-1.33301 16 -2.83301 30.333 -4.5 43s-5.16699 23.334 -10.5 32.001s-12.833 15.167 -22.5 19.5s-22.834 6.5 -39.501 6.5c-17.333 0 -31.166 -2.33301 -41.499 -7s-18.333 -11.167 -24 -19.5s-9.5 -18.666 -11.5 -30.999
s-3 -26.166 -3 -41.499c0 -19.333 2.16699 -36.166 6.5 -50.499s10.5 -27 18.5 -38s17.5 -20.667 28.5 -29s23.167 -16.5 36.5 -24.5l59.5 -36c19 -12 35.833 -27.167 50.5 -45.5s26.5 -41 35.5 -68s13.5 -61.167 13.5 -102.5c0 -61.333 -12.5 -109 -37.5 -143
s-67.5 -52.667 -127.5 -56l-2 -31c29.333 0 49.666 -7.16699 60.999 -21.5s17 -33.166 17 -56.499s-9.33301 -41.5 -28 -54.5s-41.667 -19.5 -69 -19.5c-25.333 0 -50 5.33301 -74 16l13 30c18 -7.33301 34.667 -11 50 -11c16 0 29.667 4 41 12s17 20.333 17 37
s-5.66699 28.334 -17 35.001s-29.333 10.667 -54 12z" />
    <glyph glyph-name="scedilla" unicode="&#x15f;" horiz-adv-x="357" 
d="M155 -12c-46 2.66699 -79.833 16.8271 -101.5 42.4941s-32.5 67.5 -32.5 125.5l81 12c0 -14.667 1.16699 -28.5 3.5 -41.5s6 -24.5 11 -34.5s11.833 -17.833 20.5 -23.5s19.667 -8.5 33 -8.5c32 0 53 7 63 21s15 33.333 15 58c0 14.667 -2 27.5 -6 38.5
s-9.83301 20.667 -17.5 29s-16.667 16 -27 23s-21.833 13.5 -34.5 19.5c-20 9.33301 -37.667 19 -53 29s-28.166 21.333 -38.499 34s-18.333 27.334 -24 44.001s-8.5 36.667 -8.5 60c0 20.667 2.16699 39.334 6.5 56.001s12 31 23 43s25.5 21.167 43.5 27.5s41 9.5 69 9.5
s50.5 -2 67.5 -6s30.5 -10.833 40.5 -20.5s17.333 -22.5 22 -38.5s9 -35.667 13 -59l-74 -14c-3.33301 22.667 -8.5 38.834 -15.5 48.501s-21.833 14.5 -44.5 14.5c-19.333 0 -34.666 -4.16699 -45.999 -12.5s-17 -23.5 -17 -45.5c0 -20 3.83301 -37 11.5 -51
s22.167 -27 43.5 -39c22 -12.667 42 -23.667 60 -33s33.667 -20.166 47 -32.499s23.666 -27.333 30.999 -45s11 -41.167 11 -70.5c0 -48 -11 -85.833 -33 -113.5s-57.333 -43.167 -106 -46.5l-2 -31c29.333 0 49.666 -7.16699 60.999 -21.5s17 -33.166 17 -56.499
s-9.5 -41.5 -28.5 -54.5s-41.833 -19.5 -68.5 -19.5c-25.333 0 -50 5.33301 -74 16l12 30c18.667 -7.33301 35.667 -11 51 -11s28.833 4 40.5 12s17.5 20.333 17.5 37s-5.83301 28.334 -17.5 35.001s-29.5 10.667 -53.5 12z" />
    <glyph glyph-name="Scaron" unicode="&#x160;" horiz-adv-x="399" 
d="M205 758c33.333 0 60.1699 -4.33789 80.5029 -13.0049s36 -20.5 47 -35.5s18.333 -32.833 22 -53.5s6.16699 -42.667 7.5 -66l-79 -11c-1.33301 16 -2.83301 30.333 -4.5 43s-5.16699 23.334 -10.5 32.001s-12.833 15.167 -22.5 19.5s-22.834 6.5 -39.501 6.5
c-17.333 0 -31.166 -2.33301 -41.499 -7s-18.333 -11.167 -24 -19.5s-9.5 -18.666 -11.5 -30.999s-3 -26.166 -3 -41.499c0 -19.333 2.16699 -36.166 6.5 -50.499s10.5 -27 18.5 -38s17.5 -20.667 28.5 -29s23.167 -16.5 36.5 -24.5c20 -11.333 39.5 -23.166 58.5 -35.499
s36 -27.666 51 -45.999s27 -41 36 -68s13.5 -61.167 13.5 -102.5c0 -64 -13.833 -113.333 -41.5 -148s-75.5 -52 -143.5 -52c-33.333 0 -60.5 4.16699 -81.5 12.5s-37.833 21.666 -50.5 39.999s-22 42.166 -28 71.499s-10.333 65 -13 107l85 17
c1.33301 -31.333 3.66602 -57.833 6.99902 -79.5s8.16602 -39.167 14.499 -52.5s14.833 -22.833 25.5 -28.5s24.334 -8.5 41.001 -8.5c18 0 32.5 2.66699 43.5 8s19.5 13.166 25.5 23.499s10.167 23.333 12.5 39s3.5 33.834 3.5 54.501c0 24 -2.33301 44.667 -7 62
s-11.5 32.333 -20.5 45s-20.167 24.167 -33.5 34.5s-28.333 20.5 -45 30.5c-18 10.667 -35.167 22.334 -51.5 35.001s-31 27.667 -44 45s-23.333 37.333 -31 60s-11.5 49.667 -11.5 81c0 26.667 2.83301 50.667 8.5 72s15.167 39.5 28.5 54.5s31.166 26.667 53.499 35
s50.166 12.5 83.499 12.5zM308.004 936.995l-76 -126h-64l-78 127l52 25l58 -104l60 106z" />
    <glyph glyph-name="scaron" unicode="&#x161;" horiz-adv-x="357" 
d="M181 552c28 0 50.499 -2.00293 67.499 -6.00293s30.5 -10.833 40.5 -20.5s17.333 -22.5 22 -38.5s9 -35.667 13 -59l-74 -14c-3.33301 22.667 -8.5 38.834 -15.5 48.501s-21.833 14.5 -44.5 14.5c-19.333 0 -34.666 -4.16699 -45.999 -12.5s-17 -23.5 -17 -45.5
c0 -20 3.83301 -37 11.5 -51s22.167 -27 43.5 -39l60.5 -32.5c18.333 -9.66699 34 -20.667 47 -33s23.167 -27.5 30.5 -45.5s11 -41.333 11 -70c0 -52 -12.5 -91.833 -37.5 -119.5s-65.833 -41.5 -122.5 -41.5c-50.667 0 -88.334 13 -113.001 39s-37 69.333 -37 130l81 12
c0 -14.667 1 -28.5 3 -41.5s5.5 -24.5 10.5 -34.5s11.833 -17.833 20.5 -23.5s20 -8.5 34 -8.5c32 0 53 7 63 21s15 33.333 15 58c0 30 -7.5 52.667 -22.5 68s-35.833 29.333 -62.5 42c-20 9.33301 -37.667 19 -53 29s-28.166 21.333 -38.499 34s-18.333 27.334 -24 44.001
s-8.5 36.667 -8.5 60c0 20.667 2.16699 39.334 6.5 56.001s12 31 23 43s25.5 21.167 43.5 27.5s41 9.5 69 9.5zM286.999 734.997l-76 -126h-64l-78 127l52 25l58 -104l60 106z" />
    <glyph glyph-name="Tcommaaccent" unicode="&#x162;" horiz-adv-x="361" 
d="M356 745v-78h-127v-667h-99v667h-124v78h350zM224 -119c0 -17.333 -5.16797 -35 -15.501 -53s-23.166 -33.667 -38.499 -47l-24 16c9.33301 9.33301 17 19.833 23 31.5s9 24.167 9 37.5h-43v97h89v-82z" />
    <glyph glyph-name="tcommaaccent" unicode="&#x163;" horiz-adv-x="274" 
d="M134 543h136.001l-8 -67h-128v-337c0 -20.667 4.66699 -36.834 14 -48.501s19.333 -17.5 30 -17.5c14.667 0 26.167 3.83301 34.5 11.5s16.166 19.167 23.499 34.5l39 -58c-8.66699 -17.333 -23 -32.666 -43 -45.999s-46 -20 -78 -20c-36 0 -64 10.5 -84 31.5
s-30 54.5 -30 100.5v349h-41l7 67h34v137l94 16v-153zM184.001 -119c0 -17.333 -5.16797 -35 -15.501 -53s-23.166 -33.667 -38.499 -47l-24 16c9.33301 9.33301 17 19.833 23 31.5s9 24.167 9 37.5h-43v97h89v-82z" />
    <glyph glyph-name="Tcaron" unicode="&#x164;" horiz-adv-x="361" 
d="M356 745v-78h-127v-667h-99v667h-124v78h350zM289 937l-76 -126h-64l-78 127l52 25l58 -104l60 106z" />
    <glyph glyph-name="tcaron" unicode="&#x165;" horiz-adv-x="316" 
d="M134 543h136.001l-8 -67h-128v-337c0 -20.667 4.66699 -36.834 14 -48.501s19.333 -17.5 30 -17.5c14.667 0 26.167 3.83301 34.5 11.5s16.166 19.167 23.499 34.5l39 -58c-8.66699 -17.333 -23 -32.666 -43 -45.999s-46 -20 -78 -20c-36 0 -64 10.5 -84 31.5
s-30 54.5 -30 100.5v349h-41l7 67h34v137l94 16v-153zM312.001 723c0 -17.333 -5.16797 -35 -15.501 -53s-23.166 -33.667 -38.499 -47l-24 16c9.33301 9.33301 17 19.833 23 31.5s9 24.167 9 37.5h-43v97h89v-82z" />
    <glyph glyph-name="Tbar" unicode="&#x166;" horiz-adv-x="361" 
d="M130 546v121h-124v78h350v-78h-127v-121h111v-65h-111v-481h-99v481h-109v65h109z" />
    <glyph glyph-name="tbar" unicode="&#x167;" horiz-adv-x="274" 
d="M134 543h136.001l-8 -67h-128v-92h118l-6 -65h-112v-180c0 -20.667 4.66699 -36.834 14 -48.501s19.333 -17.5 30 -17.5c14.667 0 26.167 3.83301 34.5 11.5s16.166 19.167 23.499 34.5l39 -58c-8.66699 -17.333 -23 -32.666 -43 -45.999s-46 -20 -78 -20
c-36 0 -64 10.5 -84 31.5s-30 54.5 -30 100.5v192h-41l8 65h33v92h-41l7 67h34v137l94 16v-153z" />
    <glyph glyph-name="Utilde" unicode="&#x168;" horiz-adv-x="434" 
d="M137 745l0.00195312 -448.999c0 -40.667 0.666992 -75.5 2 -104.5s4.66602 -52.833 9.99902 -71.5s13.333 -32.334 24 -41.001s25.334 -13 44.001 -13c18 0 32.333 4.33301 43 13s18.667 22.334 24 41.001s8.66602 42.5 9.99902 71.5s2 63.833 2 104.5v449h100v-530
c0 -36 -2 -68 -6 -96s-12.167 -51.833 -24.5 -71.5s-30.333 -34.667 -54 -45s-55.167 -15.5 -94.5 -15.5c-38 0 -68.833 5 -92.5 15s-41.834 24.667 -54.501 44s-21.167 43.166 -25.5 71.499s-6.5 60.833 -6.5 97.5v530h99zM55.002 859.001
c7.33301 30 18.8311 51.3311 34.498 63.998s33.5 19 53.5 19c13.333 0 26.333 -2.5 39 -7.5s24.667 -10.5 36 -16.5l32.5 -16.5c10.333 -5 20.166 -7.5 29.499 -7.5c18.667 0 31.334 18.333 38.001 55l59 -19c-8 -32 -20.333 -54.833 -37 -68.5s-35 -20.5 -55 -20.5
c-13.333 0 -26 2.33301 -38 7s-23.833 9.83398 -35.5 15.501l-33 15.5c-10.333 4.66699 -20.166 7 -29.499 7c-8 0 -15.167 -4.66699 -21.5 -14s-12.166 -22.666 -17.499 -39.999z" />
    <glyph glyph-name="utilde" unicode="&#x169;" horiz-adv-x="412" 
d="M304 0c-1.33301 3.33301 -2.5 8.5 -3.5 15.5l-3 22c-1 7.66699 -1.66699 15.167 -2 22.5s-0.5 13.333 -0.5 18c-14 -28 -31.5 -49.5 -52.5 -64.5s-48.833 -22.5 -83.5 -22.5c-24 0 -43.667 4 -59 12s-27.5 18.833 -36.5 32.5s-15.167 29.167 -18.5 46.5s-5 35.333 -5 54
v407h93v-413c0 -20 5 -35.667 15 -47s25 -17 45 -17c23.333 0 42 6.66699 56 20s27 35 39 65v392h95v-543h-79v0zM44 657c7.33301 30 18.8311 51.3311 34.498 63.998s33.5 19 53.5 19c13.333 0 26.333 -2.5 39 -7.5s24.667 -10.5 36 -16.5l32.5 -16.5
c10.333 -5 20.166 -7.5 29.499 -7.5c18.667 0 31.334 18.333 38.001 55l59 -19c-8 -32 -20.333 -54.833 -37 -68.5s-35 -20.5 -55 -20.5c-13.333 0 -26 2.33301 -38 7s-23.833 9.83398 -35.5 15.501l-33 15.5c-10.333 4.66699 -20.166 7 -29.499 7
c-8 0 -15.167 -4.66699 -21.5 -14s-12.166 -22.666 -17.499 -39.999z" />
    <glyph glyph-name="Umacron" unicode="&#x16a;" horiz-adv-x="434" 
d="M137 745l0.00195312 -448.999c0 -40.667 0.666992 -75.5 2 -104.5s4.66602 -52.833 9.99902 -71.5s13.333 -32.334 24 -41.001s25.334 -13 44.001 -13c18 0 32.333 4.33301 43 13s18.667 22.334 24 41.001s8.66602 42.5 9.99902 71.5s2 63.833 2 104.5v449h100v-530
c0 -36 -2 -68 -6 -96s-12.167 -51.833 -24.5 -71.5s-30.333 -34.667 -54 -45s-55.167 -15.5 -94.5 -15.5c-38 0 -68.833 5 -92.5 15s-41.834 24.667 -54.501 44s-21.167 43.166 -25.5 71.499s-6.5 60.833 -6.5 97.5v530h99zM393.002 892.001v-65h-352v65h352z" />
    <glyph glyph-name="umacron" unicode="&#x16b;" horiz-adv-x="412" 
d="M304 0c-1.33301 3.33301 -2.5 8.5 -3.5 15.5l-3 22c-1 7.66699 -1.66699 15.167 -2 22.5s-0.5 13.333 -0.5 18c-14 -28 -31.5 -49.5 -52.5 -64.5s-48.833 -22.5 -83.5 -22.5c-24 0 -43.667 4 -59 12s-27.5 18.833 -36.5 32.5s-15.167 29.167 -18.5 46.5s-5 35.333 -5 54
v407h93v-413c0 -20 5 -35.667 15 -47s25 -17 45 -17c23.333 0 42 6.66699 56 20s27 35 39 65v392h95v-543h-79v0zM382 690v-65h-352v65h352z" />
    <glyph glyph-name="Ubreve" unicode="&#x16c;" horiz-adv-x="434" 
d="M137 745l0.00195312 -448.999c0 -40.667 0.666992 -75.5 2 -104.5s4.66602 -52.833 9.99902 -71.5s13.333 -32.334 24 -41.001s25.334 -13 44.001 -13c18 0 32.333 4.33301 43 13s18.667 22.334 24 41.001s8.66602 42.5 9.99902 71.5s2 63.833 2 104.5v449h100v-530
c0 -36 -2 -68 -6 -96s-12.167 -51.833 -24.5 -71.5s-30.333 -34.667 -54 -45s-55.167 -15.5 -94.5 -15.5c-38 0 -68.833 5 -92.5 15s-41.834 24.667 -54.501 44s-21.167 43.166 -25.5 71.499s-6.5 60.833 -6.5 97.5v530h99zM366.002 939.001
c-9.33301 -39.333 -26.502 -70.5 -51.502 -93.5s-56.833 -34.5 -95.5 -34.5s-71.834 11.5 -99.501 34.5s-45.167 54.5 -52.5 94.5l49 17c2.66699 -12.667 6.83398 -24.834 12.501 -36.501s12.834 -22 21.501 -31s18.834 -16.167 30.501 -21.5s24.5 -8 38.5 -8
c28 0 51 9.83301 69 29.5s29.667 42.834 35 69.501z" />
    <glyph glyph-name="ubreve" unicode="&#x16d;" horiz-adv-x="412" 
d="M304 0c-1.33301 3.33301 -2.5 8.5 -3.5 15.5l-3 22c-1 7.66699 -1.66699 15.167 -2 22.5s-0.5 13.333 -0.5 18c-14 -28 -31.5 -49.5 -52.5 -64.5s-48.833 -22.5 -83.5 -22.5c-24 0 -43.667 4 -59 12s-27.5 18.833 -36.5 32.5s-15.167 29.167 -18.5 46.5s-5 35.333 -5 54
v407h93v-413c0 -20 5 -35.667 15 -47s25 -17 45 -17c23.333 0 42 6.66699 56 20s27 35 39 65v392h95v-543h-79v0zM355 737c-9.33301 -39.333 -26.502 -70.5 -51.502 -93.5s-56.833 -34.5 -95.5 -34.5s-71.834 11.5 -99.501 34.5s-45.167 54.5 -52.5 94.5l49 17
c2.66699 -12.667 6.83398 -24.834 12.501 -36.501s12.834 -22 21.501 -31s18.834 -16.167 30.501 -21.5s24.5 -8 38.5 -8c28 0 51 9.83301 69 29.5s29.667 42.834 35 69.501z" />
    <glyph glyph-name="Uring" unicode="&#x16e;" horiz-adv-x="434" 
d="M137 745l0.00195312 -448.999c0 -40.667 0.666992 -75.5 2 -104.5s4.66602 -52.833 9.99902 -71.5s13.333 -32.334 24 -41.001s25.334 -13 44.001 -13c18 0 32.333 4.33301 43 13s18.667 22.334 24 41.001s8.66602 42.5 9.99902 71.5s2 63.833 2 104.5v449h100v-530
c0 -36 -2 -68 -6 -96s-12.167 -51.833 -24.5 -71.5s-30.333 -34.667 -54 -45s-55.167 -15.5 -94.5 -15.5c-38 0 -68.833 5 -92.5 15s-41.834 24.667 -54.501 44s-21.167 43.166 -25.5 71.499s-6.5 60.833 -6.5 97.5v530h99zM316.002 845.001c0 -57.333 -33 -86 -99 -86
c-66.667 0 -100 28.667 -100 86c0 56.667 33.333 85 100 85c66 0 99 -28.333 99 -85zM277.002 845.001c0 34 -20 51 -60 51s-60 -17 -60 -51s20 -51 60 -51s60 17 60 51z" />
    <glyph glyph-name="uring" unicode="&#x16f;" horiz-adv-x="412" 
d="M304 0c-1.33301 3.33301 -2.5 8.5 -3.5 15.5l-3 22c-1 7.66699 -1.66699 15.167 -2 22.5s-0.5 13.333 -0.5 18c-14 -28 -31.5 -49.5 -52.5 -64.5s-48.833 -22.5 -83.5 -22.5c-24 0 -43.667 4 -59 12s-27.5 18.833 -36.5 32.5s-15.167 29.167 -18.5 46.5s-5 35.333 -5 54
v407h93v-413c0 -20 5 -35.667 15 -47s25 -17 45 -17c23.333 0 42 6.66699 56 20s27 35 39 65v392h95v-543h-79v0zM305 668c0 -57.333 -33 -86 -99 -86c-66.667 0 -100 28.667 -100 86c0 56.667 33.333 85 100 85c66 0 99 -28.333 99 -85zM266 668c0 34 -20 51 -60 51
s-60 -17 -60 -51s20 -51 60 -51s60 17 60 51z" />
    <glyph glyph-name="Uhungarumlaut" unicode="&#x170;" horiz-adv-x="434" 
d="M137 745l0.00195312 -448.999c0 -40.667 0.666992 -75.5 2 -104.5s4.66602 -52.833 9.99902 -71.5s13.333 -32.334 24 -41.001s25.334 -13 44.001 -13c18 0 32.333 4.33301 43 13s18.667 22.334 24 41.001s8.66602 42.5 9.99902 71.5s2 63.833 2 104.5v449h100v-530
c0 -36 -2 -68 -6 -96s-12.167 -51.833 -24.5 -71.5s-30.333 -34.667 -54 -45s-55.167 -15.5 -94.5 -15.5c-38 0 -68.833 5 -92.5 15s-41.834 24.667 -54.501 44s-21.167 43.166 -25.5 71.499s-6.5 60.833 -6.5 97.5v530h99zM272.002 899.001l-178 -105l-34 38l162 126z
M453.002 899.001l-178 -105l-34 38l162 126z" />
    <glyph glyph-name="uhungarumlaut" unicode="&#x171;" horiz-adv-x="412" 
d="M304 0c-1.33301 3.33301 -2.5 8.5 -3.5 15.5l-3 22c-1 7.66699 -1.66699 15.167 -2 22.5s-0.5 13.333 -0.5 18c-14 -28 -31.5 -49.5 -52.5 -64.5s-48.833 -22.5 -83.5 -22.5c-24 0 -43.667 4 -59 12s-27.5 18.833 -36.5 32.5s-15.167 29.167 -18.5 46.5s-5 35.333 -5 54
v407h93v-413c0 -20 5 -35.667 15 -47s25 -17 45 -17c23.333 0 42 6.66699 56 20s27 35 39 65v392h95v-543h-79v0zM276 697l-178 -105l-34 38l162 126zM457 697l-178 -105l-34 38l162 126z" />
    <glyph glyph-name="Uogonek" unicode="&#x172;" horiz-adv-x="434" 
d="M137 745l0.00390625 -475.001c0 -36 0.666992 -67 2 -93s4.5 -47.167 9.5 -63.5s12.833 -28.333 23.5 -36s25.667 -11.5 45 -11.5c18.667 0 33.167 3.83301 43.5 11.5s18.166 19.667 23.499 36s8.66602 37.5 9.99902 63.5s2 57 2 93v475h100v-530
c0 -28 -1.16699 -53.667 -3.5 -77s-6.83301 -44.166 -13.5 -62.499s-16.167 -33.833 -28.5 -46.5s-28.5 -22.334 -48.5 -29.001c-6 -10.667 -12.5 -21.5 -19.5 -32.5l-19 -31c-5.66699 -9.66699 -10.334 -18.667 -14.001 -27s-5.5 -15.5 -5.5 -21.5
c0 -10.667 4.16699 -18.167 12.5 -22.5s18.5 -6.5 30.5 -6.5s25.5 2 40.5 6s29.167 9.66699 42.5 17l-29 -73c-37.333 -18.667 -70.333 -28 -99 -28c-16.667 0 -30.167 3.83301 -40.5 11.5s-15.5 19.834 -15.5 36.501c0 18 6.16699 39.5 18.5 64.5s31.833 57.5 58.5 97.5
c-7.33301 -1.33301 -14.833 -2.33301 -22.5 -3s-15.5 -1 -23.5 -1c-40 0 -71.667 5 -95 15s-41.333 24.833 -54 44.5s-20.834 43.667 -24.501 72s-5.5 60.5 -5.5 96.5v530h99z" />
    <glyph glyph-name="uogonek" unicode="&#x173;" horiz-adv-x="412" 
d="M304 0c-2.66699 11.333 -4.83496 23.665 -6.50195 36.998s-2.5 27 -2.5 41c-14 -28 -31.5 -49.5 -52.5 -64.5s-48.833 -22.5 -83.5 -22.5c-24 0 -43.667 4 -59 12s-27.5 18.833 -36.5 32.5s-15.167 29.167 -18.5 46.5s-5 35.333 -5 54v407h93v-374
c0 -16 0.5 -30.167 1.5 -42.5s3.33301 -22.666 7 -30.999s9 -14.833 16 -19.5s16.167 -7 27.5 -7c26 0 46.833 6.83301 62.5 20.5s29.167 34.167 40.5 61.5v392h95v-543c-8 -10.667 -15.5 -21.667 -22.5 -33s-13.167 -22 -18.5 -32s-9.66602 -19.167 -12.999 -27.5
s-5 -14.833 -5 -19.5c0 -10.667 4 -18.167 12 -22.5s18 -6.5 30 -6.5c12.667 0 26.334 2 41.001 6s28.667 9.66699 42 17l-29 -73c-37.333 -18.667 -70.333 -28 -99 -28c-16.667 0 -30.167 3.83301 -40.5 11.5s-15.5 19.834 -15.5 36.501c0 19.333 6.66699 42.5 20 69.5
s34 60.833 62 101.5h-43v0z" />
    <glyph glyph-name="Wcircumflex" unicode="&#x174;" horiz-adv-x="648" 
d="M276 745h102l83 -593l74 593h104l-125 -745h-97l-90 599l-87 -599h-107l-124 745h106l76 -595zM214 846l76 127h64l78 -128l-52 -25l-59 104l-59 -106z" />
    <glyph glyph-name="wcircumflex" unicode="&#x175;" horiz-adv-x="525" 
d="M226 543h84l62 -389l58 389h86l-108 -543h-74l-66 399l-68 -399h-86l-105 543h97l57 -389zM153 644l76 127h64l78 -128l-52 -25l-59 104l-59 -106z" />
    <glyph glyph-name="Ycircumflex" unicode="&#x176;" horiz-adv-x="382" 
d="M195 417l94 328h83l-131 -431v-314h-98v314l-134 431h97zM81 846l76 127h64l78 -128l-52 -25l-59 104l-59 -106z" />
    <glyph glyph-name="ycircumflex" unicode="&#x177;" horiz-adv-x="370" 
d="M196 148l75.999 395h89l-141 -583c-6 -25.333 -12.667 -48.833 -20 -70.5s-16.833 -40.5 -28.5 -56.5s-26.167 -28.667 -43.5 -38s-38.666 -14 -63.999 -14c-14 0 -26.5 1.16699 -37.5 3.5s-21.833 6.83301 -32.5 13.5l40 79c4.66699 -3.33301 9.5 -6 14.5 -8
s10.167 -3 15.5 -3c14 0 28.833 10 44.5 30s29.167 56 40.5 108l-141 539h104zM74.999 644l76 127h64l78 -128l-52 -25l-59 104l-59 -106z" />
    <glyph glyph-name="Ydieresis" unicode="&#x178;" horiz-adv-x="382" 
d="M195 417l94 328h83l-131 -431v-314h-98v314l-134 431h97zM150 815h-82v120h82v-120zM313 815h-82v120h82v-120z" />
    <glyph glyph-name="Zacute" unicode="&#x179;" horiz-adv-x="352" 
d="M46 745h278v-64l-209 -604h220v-77h-321v66l212 600h-180v79zM312 899l-178 -105l-34 38l162 126z" />
    <glyph glyph-name="zacute" unicode="&#x17a;" horiz-adv-x="324" 
d="M41 543h251v-58l-184 -416h204v-69h-299v58l180 415h-152v70zM298 697l-178 -105l-34 38l162 126z" />
    <glyph glyph-name="Zdotaccent" unicode="&#x17b;" horiz-adv-x="352" 
d="M46 745h278v-64l-209 -604h220v-77h-321v66l212 600h-180v79zM217 815h-82v120h82v-120z" />
    <glyph glyph-name="zdotaccent" unicode="&#x17c;" horiz-adv-x="324" 
d="M41 543h251v-58l-184 -416h204v-69h-299v58l180 415h-152v70zM203 613h-82v120h82v-120z" />
    <glyph glyph-name="Zcaron" unicode="&#x17d;" horiz-adv-x="352" 
d="M46 745h278v-64l-209 -604h220v-77h-321v66l212 600h-180v79zM284 937l-76 -126h-64l-78 127l52 25l58 -104l60 106z" />
    <glyph glyph-name="zcaron" unicode="&#x17e;" horiz-adv-x="324" 
d="M41 543h251v-58l-184 -416h204v-69h-299v58l180 415h-152v70zM271 735l-76 -126h-64l-78 127l52 25l58 -104l60 106z" />
    <glyph glyph-name="florin" unicode="&#x192;" horiz-adv-x="480" 
d="M33 -152l-0.00195312 72h57c24 0 41.5 5.33301 52.5 16s18.167 31 21.5 61l53 479h-87v65h93l8 66c2.66699 27.333 7.33398 50.666 14.001 69.999s16 35 28 47s27.5 20.833 46.5 26.5s42.5 8.5 70.5 8.5h57v-72h-57c-24 0 -41.5 -5.33301 -52.5 -16
s-18.167 -31 -21.5 -61l-7 -69h114v-65h-122l-52 -476c-3.33301 -27.333 -8.16602 -50.666 -14.499 -69.999s-15.5 -35 -27.5 -47s-27.5 -20.833 -46.5 -26.5s-42.5 -8.5 -70.5 -8.5h-57z" />
    <glyph glyph-name="Scommaaccent" unicode="&#x218;" horiz-adv-x="399" 
d="M205 758c33.333 0 60.1699 -4.33789 80.5029 -13.0049s36 -20.5 47 -35.5s18.333 -32.833 22 -53.5s6.16699 -42.667 7.5 -66l-79 -11c-1.33301 16 -2.83301 30.333 -4.5 43s-5.16699 23.334 -10.5 32.001s-12.833 15.167 -22.5 19.5s-22.834 6.5 -39.501 6.5
c-17.333 0 -31.166 -2.33301 -41.499 -7s-18.333 -11.167 -24 -19.5s-9.5 -18.666 -11.5 -30.999s-3 -26.166 -3 -41.499c0 -19.333 2.16699 -36.166 6.5 -50.499s10.5 -27 18.5 -38s17.5 -20.667 28.5 -29s23.167 -16.5 36.5 -24.5c20 -11.333 39.5 -23.166 58.5 -35.499
s36 -27.666 51 -45.999s27 -41 36 -68s13.5 -61.167 13.5 -102.5c0 -64 -13.833 -113.333 -41.5 -148s-75.5 -52 -143.5 -52c-33.333 0 -60.5 4.16699 -81.5 12.5s-37.833 21.666 -50.5 39.999s-22 42.166 -28 71.499s-10.333 65 -13 107l85 17
c1.33301 -31.333 3.66602 -57.833 6.99902 -79.5s8.16602 -39.167 14.499 -52.5s14.833 -22.833 25.5 -28.5s24.334 -8.5 41.001 -8.5c18 0 32.5 2.66699 43.5 8s19.5 13.166 25.5 23.499s10.167 23.333 12.5 39s3.5 33.834 3.5 54.501c0 24 -2.33301 44.667 -7 62
s-11.5 32.333 -20.5 45s-20.167 24.167 -33.5 34.5s-28.333 20.5 -45 30.5c-18 10.667 -35.167 22.334 -51.5 35.001s-31 27.667 -44 45s-23.333 37.333 -31 60s-11.5 49.667 -11.5 81c0 26.667 2.83301 50.667 8.5 72s15.167 39.5 28.5 54.5s31.166 26.667 53.499 35
s50.166 12.5 83.499 12.5zM240.004 -119.005c0 -17.333 -5.16797 -35 -15.501 -53s-23.166 -33.667 -38.499 -47l-24 16c9.33301 9.33301 17 19.833 23 31.5s9 24.167 9 37.5h-43v97h89v-82z" />
    <glyph glyph-name="scommaaccent" unicode="&#x219;" horiz-adv-x="357" 
d="M181 552c28 0 50.499 -2.00293 67.499 -6.00293s30.5 -10.833 40.5 -20.5s17.333 -22.5 22 -38.5s9 -35.667 13 -59l-74 -14c-3.33301 22.667 -8.5 38.834 -15.5 48.501s-21.833 14.5 -44.5 14.5c-19.333 0 -34.666 -4.16699 -45.999 -12.5s-17 -23.5 -17 -45.5
c0 -20 3.83301 -37 11.5 -51s22.167 -27 43.5 -39l60.5 -32.5c18.333 -9.66699 34 -20.667 47 -33s23.167 -27.5 30.5 -45.5s11 -41.333 11 -70c0 -52 -12.5 -91.833 -37.5 -119.5s-65.833 -41.5 -122.5 -41.5c-50.667 0 -88.334 13 -113.001 39s-37 69.333 -37 130l81 12
c0 -14.667 1 -28.5 3 -41.5s5.5 -24.5 10.5 -34.5s11.833 -17.833 20.5 -23.5s20 -8.5 34 -8.5c32 0 53 7 63 21s15 33.333 15 58c0 30 -7.5 52.667 -22.5 68s-35.833 29.333 -62.5 42c-20 9.33301 -37.667 19 -53 29s-28.166 21.333 -38.499 34s-18.333 27.334 -24 44.001
s-8.5 36.667 -8.5 60c0 20.667 2.16699 39.334 6.5 56.001s12 31 23 43s25.5 21.167 43.5 27.5s41 9.5 69 9.5zM222.999 -119.003c0 -17.333 -5.16797 -35 -15.501 -53s-23.166 -33.667 -38.499 -47l-24 16c9.33301 9.33301 17 19.833 23 31.5s9 24.167 9 37.5h-43v97h89
v-82z" />
    <glyph glyph-name="uni021A" unicode="&#x21a;" horiz-adv-x="361" 
d="M356 745v-78h-127v-667h-99v667h-124v78h350zM226 -119c0 -17.333 -5.16797 -35 -15.501 -53s-23.166 -33.667 -38.499 -47l-24 16c9.33301 9.33301 17 19.833 23 31.5s9 24.167 9 37.5h-43v97h89v-82z" />
    <glyph glyph-name="uni021B" unicode="&#x21b;" horiz-adv-x="274" 
d="M134 543h136.001l-8 -67h-128v-337c0 -20.667 4.66699 -36.834 14 -48.501s19.333 -17.5 30 -17.5c14.667 0 26.167 3.83301 34.5 11.5s16.166 19.167 23.499 34.5l39 -58c-8.66699 -17.333 -23 -32.666 -43 -45.999s-46 -20 -78 -20c-36 0 -64 10.5 -84 31.5
s-30 54.5 -30 100.5v349h-41l7 67h34v137l94 16v-153zM186.001 -119c0 -17.333 -5.16797 -35 -15.501 -53s-23.166 -33.667 -38.499 -47l-24 16c9.33301 9.33301 17 19.833 23 31.5s9 24.167 9 37.5h-43v97h89v-82z" />
    <glyph glyph-name="dotlessj" unicode="&#x237;" horiz-adv-x="187" 
d="M53 543l93.999 0.000976562v-579c0 -36 -2.33301 -65.833 -7 -89.5s-12 -42.334 -22 -56.001s-23 -23.334 -39 -29.001s-35.667 -8.5 -59 -8.5c-22.667 0 -41 3.16699 -55 9.5s-24.667 13.833 -32 22.5l18 67c6.66699 -9.33301 14.834 -15.666 24.501 -18.999
s19.167 -5 28.5 -5c8.66699 0 16.167 1.5 22.5 4.5s11.5 9.16699 15.5 18.5s6.83301 22.833 8.5 40.5s2.5 41.167 2.5 70.5v553z" />
    <glyph glyph-name="hsuperior" unicode="&#x2b0;" horiz-adv-x="287" 
d="M30 404v489l70 13v-183c19.333 19.333 45 29 77 29c16 0 29.167 -2.66699 39.5 -8s18.5 -12.5 24.5 -21.5s10.167 -19.167 12.5 -30.5s3.5 -23.333 3.5 -36v-252h-70v255c0 10.667 -2.66699 19.167 -8 25.5s-14 9.5 -26 9.5c-10 0 -19.5 -3.16699 -28.5 -9.5
s-17.167 -14.833 -24.5 -25.5v-255h-70z" />
    <glyph glyph-name="circumflex" unicode="&#x2c6;" horiz-adv-x="278" 
d="M30 644l76 127h64l78 -128l-52 -25l-59 104l-59 -106z" />
    <glyph glyph-name="caron" unicode="&#x2c7;" horiz-adv-x="278" 
d="M248 735l-76 -126h-64l-78 127l52 25l58 -104l60 106z" />
    <glyph glyph-name="breve" unicode="&#x2d8;" horiz-adv-x="291" 
d="M295 737c-9.33301 -39.333 -26.502 -70.5 -51.502 -93.5s-56.833 -34.5 -95.5 -34.5s-71.834 11.5 -99.501 34.5s-45.167 54.5 -52.5 94.5l49 17c2.66699 -12.667 6.83398 -24.834 12.501 -36.501s12.834 -22 21.501 -31s18.834 -16.167 30.501 -21.5s24.5 -8 38.5 -8
c28 0 51 9.83301 69 29.5s29.667 42.834 35 69.501z" />
    <glyph glyph-name="dotaccent" unicode="&#x2d9;" horiz-adv-x="139" 
d="M112 613h-82v120h82v-120z" />
    <glyph glyph-name="ring" unicode="&#x2da;" horiz-adv-x="259" 
d="M229 643c0 -57.333 -33 -86 -99 -86c-66.667 0 -100 28.667 -100 86c0 56.667 33.333 85 100 85c66 0 99 -28.333 99 -85zM190 643c0 34 -20 51 -60 51s-60 -17 -60 -51s20 -51 60 -51s60 17 60 51z" />
    <glyph glyph-name="ogonek" unicode="&#x2db;" horiz-adv-x="221" 
d="M105 -56c-15.333 -24 -22.999 -43 -22.999 -57c0 -10.667 4.16699 -18.167 12.5 -22.5s18.5 -6.5 30.5 -6.5s25.5 2 40.5 6s29.167 9.66699 42.5 17l-29 -72c-37.333 -18.667 -70.333 -28 -99 -28c-16.667 0 -30.167 3.83301 -40.5 11.5s-15.5 19.834 -15.5 36.501
c0 13.333 3.66699 29.666 11 48.999s19.666 42 36.999 68l35 54h34z" />
    <glyph glyph-name="tilde" unicode="&#x2dc;" horiz-adv-x="382" 
d="M30 657c7.33301 30 18.8311 51.3311 34.498 63.998s33.5 19 53.5 19c13.333 0 26.333 -2.5 39 -7.5s24.667 -10.5 36 -16.5l32.5 -16.5c10.333 -5 20.166 -7.5 29.499 -7.5c18.667 0 31.334 18.333 38.001 55l59 -19c-8 -32 -20.333 -54.833 -37 -68.5
s-35 -20.5 -55 -20.5c-13.333 0 -26 2.33301 -38 7s-23.833 9.83398 -35.5 15.501l-33 15.5c-10.333 4.66699 -20.166 7 -29.499 7c-8 0 -15.167 -4.66699 -21.5 -14s-12.166 -22.666 -17.499 -39.999z" />
    <glyph glyph-name="hungarumlaut" unicode="&#x2dd;" horiz-adv-x="452" 
d="M262 697l-178 -105l-34 38l162 126zM443 697l-178 -105l-34 38l162 126z" />
    <glyph glyph-name="commaaccent" unicode="&#x326;" horiz-adv-x="136" 
d="M113 -119c0 -17.333 -5.16797 -35 -15.501 -53s-23.166 -33.667 -38.499 -47l-24 16c9.33301 9.33301 17 19.833 23 31.5s9 24.167 9 37.5h-43v97h89v-82z" />
    <glyph glyph-name="pi" unicode="&#x3c0;" horiz-adv-x="557" 
d="M529 2c-10 -3.33301 -21.501 -6.00098 -34.501 -8.00098s-26.167 -3 -39.5 -3c-35.333 0 -62.666 8.5 -81.999 25.5s-29 46.5 -29 88.5v371h-192v-476h-77v532h346v-406c0 -11.333 0.666992 -21.666 2 -30.999s4 -17.5 8 -24.5s10 -12.5 18 -16.5s18.667 -6 32 -6
c17.333 0 33.333 3.66699 48 11v-57z" />
    <glyph glyph-name="Wgrave" unicode="&#x1e80;" horiz-adv-x="648" 
d="M276 745h102l83 -593l74 593h104l-125 -745h-97l-90 599l-87 -599h-107l-124 745h106l76 -595zM237 972l162 -127l-33 -37l-179 106z" />
    <glyph glyph-name="wgrave" unicode="&#x1e81;" horiz-adv-x="525" 
d="M226 543h84l62 -389l58 389h86l-108 -543h-74l-66 399l-68 -399h-86l-105 543h97l57 -389zM176 770l162 -127l-33 -37l-179 106z" />
    <glyph glyph-name="Wacute" unicode="&#x1e82;" horiz-adv-x="648" 
d="M276 745h102l83 -593l74 593h104l-125 -745h-97l-90 599l-87 -599h-107l-124 745h106l76 -595zM460 899l-178 -105l-34 38l162 126z" />
    <glyph glyph-name="wacute" unicode="&#x1e83;" horiz-adv-x="525" 
d="M226 543h84l62 -389l58 389h86l-108 -543h-74l-66 399l-68 -399h-86l-105 543h97l57 -389zM398 697l-178 -105l-34 38l162 126z" />
    <glyph glyph-name="Wdieresis" unicode="&#x1e84;" horiz-adv-x="648" 
d="M276 745h102l83 -593l74 593h104l-125 -745h-97l-90 599l-87 -599h-107l-124 745h106l76 -595zM283 815h-82v120h82v-120zM446 815h-82v120h82v-120z" />
    <glyph glyph-name="wdieresis" unicode="&#x1e85;" horiz-adv-x="525" 
d="M226 543h84l62 -389l58 389h86l-108 -543h-74l-66 399l-68 -399h-86l-105 543h97l57 -389zM222 613h-82v120h82v-120zM385 613h-82v120h82v-120z" />
    <glyph glyph-name="Ygrave" unicode="&#x1ef2;" horiz-adv-x="382" 
d="M195 417l94 328h83l-131 -431v-314h-98v314l-134 431h97zM104 972l162 -127l-33 -37l-179 106z" />
    </font>
</defs>
</svg>
